{"glyphs":{"0":{"ha":833,"x_min":43,"x_max":790,"o":"m 417 -17 q 135 115 226 -17 q 43 485 43 247 q 135 854 43 722 q 417 986 226 986 q 699 854 607 986 q 790 485 790 722 q 699 115 790 247 q 417 -17 607 -17 m 417 160 q 532 221 500 160 q 564 393 564 282 l 564 576 q 532 749 564 688 q 417 810 500 810 q 301 749 333 810 q 269 576 269 688 l 269 393 q 301 221 269 282 q 417 160 333 160 z "},"1":{"ha":833,"x_min":49,"x_max":806,"o":"m 131 0 l 131 168 l 392 168 l 392 818 l 379 818 l 182 560 l 49 664 l 281 969 l 600 969 l 600 168 l 806 168 l 806 0 l 131 0 z "},"2":{"ha":833,"x_min":58,"x_max":765,"o":"m 765 0 l 79 0 l 79 190 l 378 446 q 446 509 418 481 q 491 565 474 538 q 516 618 508 592 q 524 675 524 644 l 524 694 q 513 743 524 722 q 483 778 501 764 q 442 799 465 792 q 396 806 419 806 q 335 794 361 806 q 291 765 310 783 q 260 722 272 746 q 240 669 247 697 l 58 739 q 104 834 75 789 q 177 913 133 879 q 281 967 221 947 q 415 986 340 986 q 556 964 494 986 q 659 903 617 942 q 724 810 701 864 q 746 694 746 757 q 725 581 746 632 q 669 484 704 529 q 586 399 633 439 q 488 317 539 358 l 307 175 l 765 175 l 765 0 z "},"3":{"ha":833,"x_min":22,"x_max":749,"o":"m 364 586 q 477 616 442 586 q 513 690 513 646 l 513 700 q 478 785 513 753 q 382 817 444 817 q 272 787 324 817 q 185 701 221 757 l 54 824 q 114 890 82 860 q 186 941 146 919 q 276 974 226 963 q 389 986 326 986 q 530 968 467 986 q 638 916 593 950 q 708 835 683 882 q 732 729 732 788 q 717 646 732 683 q 677 581 703 608 q 618 535 651 553 q 547 511 585 518 l 547 503 q 627 476 590 494 q 691 428 664 457 q 733 359 718 399 q 749 269 749 319 q 722 151 749 204 q 647 61 696 99 q 531 3 599 24 q 381 -17 463 -17 q 250 -1 307 -17 q 151 40 193 14 q 77 99 108 65 q 22 169 46 132 l 176 289 q 255 191 208 229 q 381 153 301 153 q 491 188 451 153 q 531 285 531 224 l 531 293 q 485 383 531 353 q 361 413 440 413 l 274 413 l 274 586 l 364 586 z "},"4":{"ha":833,"x_min":42,"x_max":789,"o":"m 468 0 l 468 186 l 42 186 l 42 364 l 419 969 l 667 969 l 667 347 l 789 347 l 789 186 l 667 186 l 667 0 l 468 0 m 208 347 l 468 347 l 468 754 l 454 754 l 208 347 z "},"5":{"ha":833,"x_min":64,"x_max":782,"o":"m 725 788 l 285 788 l 264 481 l 275 481 q 306 544 289 515 q 347 592 324 572 q 404 624 371 613 q 483 635 438 635 q 600 614 546 635 q 694 553 654 593 q 758 456 735 514 q 782 326 782 399 q 758 190 782 253 q 685 81 733 126 q 568 9 638 35 q 410 -17 499 -17 q 285 -1 339 -17 q 189 40 231 14 q 117 99 147 65 q 64 169 86 132 l 215 289 q 292 192 247 232 q 411 153 336 153 q 524 196 486 153 q 563 310 563 239 l 563 321 q 524 426 563 388 q 417 465 485 465 q 323 442 360 465 q 267 397 286 419 l 96 421 l 132 969 l 725 969 l 725 788 z "},"6":{"ha":833,"x_min":58,"x_max":786,"o":"m 422 -17 q 268 10 336 -17 q 153 88 200 38 q 83 210 107 139 q 58 368 58 281 q 90 560 58 469 q 170 728 121 651 q 281 867 219 806 q 406 969 343 928 l 693 969 q 533 848 604 906 q 410 732 463 790 q 324 613 358 674 q 276 483 290 553 l 289 479 q 319 533 301 507 q 362 580 336 560 q 422 613 388 600 q 503 625 457 625 q 615 603 563 625 q 705 543 667 582 q 765 448 743 504 q 786 324 786 392 q 760 186 786 249 q 687 78 735 124 q 572 8 639 33 q 422 -17 506 -17 m 422 146 q 531 184 492 146 q 569 293 569 222 l 569 318 q 531 427 569 389 q 422 465 492 465 q 314 427 353 465 q 275 318 275 389 l 275 293 q 314 184 275 222 q 422 146 353 146 z "},"7":{"ha":833,"x_min":76,"x_max":763,"o":"m 231 0 l 556 800 l 253 800 l 253 624 l 76 624 l 76 969 l 763 969 l 763 789 l 450 0 l 231 0 z "},"8":{"ha":833,"x_min":56,"x_max":778,"o":"m 417 -17 q 263 5 331 -17 q 150 64 196 26 q 80 153 104 101 q 56 265 56 204 q 107 417 56 358 q 246 500 158 476 l 246 511 q 130 592 175 538 q 85 731 85 646 q 106 833 85 786 q 170 915 128 881 q 274 967 213 949 q 417 986 336 986 q 559 967 497 986 q 663 915 621 949 q 727 833 706 881 q 749 731 749 786 q 703 592 749 646 q 588 511 658 538 l 588 500 q 726 417 675 476 q 778 265 778 358 q 753 153 778 204 q 683 64 729 101 q 570 5 638 26 q 417 -17 503 -17 m 417 143 q 523 176 486 143 q 560 267 560 208 l 560 294 q 523 385 560 353 q 417 418 486 418 q 310 385 347 418 q 274 294 274 353 l 274 267 q 310 176 274 208 q 417 143 347 143 m 417 571 q 518 602 483 571 q 553 688 553 633 l 553 710 q 518 795 553 764 q 417 826 483 826 q 315 795 350 826 q 281 710 281 764 l 281 688 q 315 602 281 633 q 417 571 350 571 z "},"9":{"ha":833,"x_min":47,"x_max":775,"o":"m 775 601 q 744 408 775 499 q 663 241 713 318 q 552 103 614 164 q 428 0 490 42 l 140 0 q 300 122 229 64 q 423 238 371 179 q 508 356 475 296 q 557 486 542 417 l 544 490 q 515 436 532 463 q 472 390 497 410 q 411 357 446 369 q 331 344 376 344 q 219 366 271 344 q 128 426 167 388 q 69 521 90 465 q 47 646 47 576 q 73 783 47 721 q 147 891 99 846 q 261 961 194 936 q 411 986 328 986 q 565 959 497 986 q 680 881 633 932 q 751 760 726 831 q 775 601 775 689 m 411 504 q 519 542 481 504 q 558 651 558 581 l 558 676 q 519 785 558 747 q 411 824 481 824 q 303 785 342 824 q 264 676 264 747 l 264 651 q 303 542 264 581 q 411 504 342 504 z "},"\u0000":{"ha":0,"x_min":0,"x_max":0,"o":""},"\r":{"ha":328,"x_min":0,"x_max":0,"o":""}," ":{"ha":328,"x_min":0,"x_max":0,"o":""},"a":{"ha":790,"x_min":47,"x_max":749,"o":"m 635 0 q 542 35 579 0 q 496 128 506 69 l 488 128 q 414 20 471 57 q 274 -17 357 -17 q 106 42 164 -17 q 47 196 47 100 q 131 367 47 311 q 360 424 215 424 l 475 424 l 475 469 q 447 553 475 522 q 354 585 419 585 q 257 558 293 585 q 197 499 221 532 l 75 607 q 187 709 119 672 q 369 746 254 746 q 603 678 525 746 q 681 479 681 610 l 681 160 l 749 160 l 749 0 l 635 0 m 350 126 q 438 149 401 126 q 475 221 475 171 l 475 307 l 375 307 q 254 225 254 307 l 254 204 q 279 145 254 164 q 350 126 304 126 z "},"b":{"ha":844,"x_min":96,"x_max":785,"o":"m 96 1028 l 301 1028 l 301 607 l 308 607 q 378 707 324 668 q 504 746 433 746 q 714 649 643 746 q 785 365 785 551 q 714 81 785 179 q 504 -17 643 -17 q 436 -6 468 -17 q 378 23 404 4 q 335 67 353 42 q 308 122 317 93 l 301 122 l 301 0 l 96 0 l 96 1028 m 436 150 q 533 191 494 150 q 571 301 571 232 l 571 428 q 533 538 571 497 q 436 579 494 579 q 340 551 378 579 q 301 472 301 522 l 301 257 q 340 178 301 207 q 436 150 378 150 z "},"c":{"ha":718,"x_min":50,"x_max":686,"o":"m 390 -17 q 244 10 308 -17 q 138 87 181 38 q 72 207 94 136 q 50 365 50 278 q 72 523 50 453 q 138 643 94 593 q 244 719 181 693 q 390 746 308 746 q 576 696 501 746 q 682 556 650 646 l 515 483 q 475 554 506 525 q 390 583 444 583 q 296 542 328 583 q 264 432 264 501 l 264 296 q 296 186 264 226 q 390 146 328 146 q 478 176 446 146 q 526 254 511 206 l 686 185 q 574 32 650 81 q 390 -17 499 -17 z "},"d":{"ha":844,"x_min":60,"x_max":749,"o":"m 543 122 l 536 122 q 510 67 528 93 q 466 23 492 42 q 408 -6 440 4 q 340 -17 375 -17 q 131 81 201 -17 q 60 365 60 179 q 131 649 60 551 q 340 746 201 746 q 466 707 411 746 q 536 607 521 668 l 543 607 l 543 1028 l 749 1028 l 749 0 l 543 0 l 543 122 m 408 150 q 505 178 467 150 q 543 257 543 207 l 543 472 q 505 551 543 522 q 408 579 467 579 q 312 538 350 579 q 274 428 274 497 l 274 301 q 312 191 274 232 q 408 150 350 150 z "},"e":{"ha":781,"x_min":50,"x_max":731,"o":"m 400 -17 q 251 10 317 -17 q 141 87 186 38 q 73 207 96 136 q 50 365 50 278 q 72 522 50 451 q 138 642 94 592 q 246 719 182 692 q 392 746 310 746 q 547 715 482 746 q 652 633 611 685 q 712 515 693 582 q 731 374 731 447 l 731 313 l 263 313 l 263 301 q 301 187 263 229 q 424 144 340 144 q 528 170 488 144 q 603 232 568 196 l 706 104 q 578 15 657 47 q 400 -17 500 -17 m 396 594 q 298 553 333 594 q 263 444 263 513 l 263 433 l 518 433 l 518 446 q 488 553 518 513 q 396 594 458 594 z "},"f":{"ha":501,"x_min":29,"x_max":483,"o":"m 132 569 l 29 569 l 29 729 l 132 729 l 132 815 q 188 974 132 921 q 350 1028 243 1028 l 483 1028 l 483 868 l 338 868 l 338 729 l 483 729 l 483 569 l 338 569 l 338 0 l 132 0 l 132 569 z "},"g":{"ha":767,"x_min":31,"x_max":771,"o":"m 771 -53 q 751 -156 771 -111 q 685 -231 731 -200 q 563 -278 639 -262 q 376 -294 488 -294 q 216 -283 282 -294 q 109 -249 150 -271 q 49 -197 68 -228 q 31 -125 31 -165 q 67 -29 31 -64 q 167 14 103 6 l 167 29 q 88 74 114 39 q 61 157 61 110 q 73 208 61 186 q 103 245 85 229 q 147 271 122 261 q 197 286 172 281 l 197 292 q 99 376 131 322 q 67 500 67 429 q 144 678 67 611 q 379 746 221 746 q 503 732 451 746 l 503 760 q 531 844 503 818 q 613 869 560 869 l 728 869 l 728 717 l 567 717 l 567 708 q 661 624 631 678 q 692 500 692 571 q 615 324 692 390 q 379 258 538 258 q 250 274 308 258 q 218 215 218 253 q 238 174 218 189 q 306 160 258 160 l 517 160 q 710 104 650 160 q 771 -53 771 49 m 578 -81 q 553 -32 578 -49 q 465 -15 528 -15 l 215 -15 q 195 -47 201 -29 q 189 -81 189 -64 q 224 -140 189 -121 q 342 -158 258 -158 l 425 -158 q 543 -140 508 -158 q 578 -81 578 -121 m 379 393 q 470 419 440 393 q 500 493 500 444 l 500 510 q 470 584 500 558 q 379 610 440 610 q 288 584 318 610 q 258 510 258 558 l 258 493 q 288 419 258 444 q 379 393 318 393 z "},"h":{"ha":828,"x_min":96,"x_max":740,"o":"m 96 1028 l 301 1028 l 301 606 l 310 606 q 378 704 329 663 q 513 746 426 746 q 683 671 625 746 q 740 457 740 596 l 740 0 l 535 0 l 535 440 q 513 545 535 511 q 433 579 490 579 q 385 573 408 579 q 342 553 361 567 q 313 519 324 539 q 301 472 301 499 l 301 0 l 96 0 l 96 1028 z "},"i":{"ha":397,"x_min":79,"x_max":318,"o":"m 199 807 q 108 835 136 807 q 79 908 79 864 l 79 939 q 108 1012 79 983 q 199 1040 136 1040 q 290 1012 261 1040 q 318 939 318 983 l 318 908 q 290 835 318 864 q 199 807 261 807 m 96 729 l 301 729 l 301 0 l 96 0 l 96 729 z "},"j":{"ha":397,"x_min":-12,"x_max":318,"o":"m 96 729 l 301 729 l 301 -78 q 253 -226 301 -175 q 96 -278 204 -278 l -12 -278 l -12 -118 l 96 -118 l 96 729 m 199 807 q 108 835 136 807 q 79 908 79 864 l 79 939 q 108 1012 79 983 q 199 1040 136 1040 q 290 1012 261 1040 q 318 939 318 983 l 318 908 q 290 835 318 864 q 199 807 261 807 z "},"k":{"ha":801,"x_min":96,"x_max":801,"o":"m 96 1028 l 301 1028 l 301 421 l 310 421 l 400 556 l 546 729 l 774 729 l 531 450 l 801 0 l 557 0 l 393 308 l 301 206 l 301 0 l 96 0 l 96 1028 z "},"l":{"ha":421,"x_min":96,"x_max":393,"o":"m 300 0 q 145 51 194 0 q 96 200 96 103 l 96 1028 l 301 1028 l 301 160 l 393 160 l 393 0 l 300 0 z "},"m":{"ha":1242,"x_min":96,"x_max":1154,"o":"m 96 0 l 96 729 l 301 729 l 301 606 l 310 606 q 376 705 329 664 q 506 746 424 746 q 633 708 581 746 q 710 599 686 671 l 714 599 q 744 656 724 629 q 793 703 764 683 q 858 734 822 722 q 936 746 894 746 q 1098 671 1042 746 q 1154 457 1154 596 l 1154 0 l 949 0 l 949 440 q 849 579 949 579 q 765 553 803 579 q 728 472 728 526 l 728 0 l 522 0 l 522 440 q 422 579 522 579 q 378 573 400 579 q 340 553 357 567 q 312 519 322 539 q 301 472 301 499 l 301 0 l 96 0 z "},"n":{"ha":828,"x_min":96,"x_max":740,"o":"m 96 0 l 96 729 l 301 729 l 301 606 l 310 606 q 378 704 329 663 q 513 746 426 746 q 683 671 625 746 q 740 457 740 596 l 740 0 l 535 0 l 535 440 q 513 545 535 511 q 433 579 490 579 q 385 573 408 579 q 342 553 361 567 q 313 519 324 539 q 301 472 301 499 l 301 0 l 96 0 z "},"o":{"ha":783,"x_min":50,"x_max":733,"o":"m 392 -17 q 248 10 311 -17 q 141 86 185 36 q 74 207 97 136 q 50 365 50 278 q 74 524 50 453 q 141 644 97 594 q 248 719 185 693 q 392 746 311 746 q 535 719 472 746 q 642 644 599 693 q 710 524 686 594 q 733 365 733 453 q 710 207 733 278 q 642 86 686 136 q 535 10 599 36 q 392 -17 472 -17 m 392 146 q 486 183 453 146 q 519 290 519 221 l 519 439 q 486 546 519 508 q 392 583 453 583 q 297 546 331 583 q 264 439 264 508 l 264 290 q 297 183 264 221 q 392 146 331 146 z "},"p":{"ha":844,"x_min":96,"x_max":785,"o":"m 96 729 l 301 729 l 301 607 l 308 607 q 378 707 324 668 q 504 746 433 746 q 714 649 643 746 q 785 365 785 551 q 714 81 785 179 q 504 -17 643 -17 q 436 -6 468 -17 q 378 23 404 4 q 335 67 353 42 q 308 122 317 93 l 301 122 l 301 -278 l 96 -278 l 96 729 m 436 150 q 533 191 494 150 q 571 301 571 232 l 571 428 q 533 538 571 497 q 436 579 494 579 q 340 551 378 579 q 301 472 301 522 l 301 257 q 340 178 301 207 q 436 150 378 150 z "},"q":{"ha":844,"x_min":60,"x_max":749,"o":"m 543 122 l 536 122 q 510 67 528 93 q 466 23 492 42 q 408 -6 440 4 q 340 -17 375 -17 q 131 81 201 -17 q 60 365 60 179 q 131 649 60 551 q 340 746 201 746 q 466 707 411 746 q 536 607 521 668 l 543 607 l 543 729 l 749 729 l 749 -278 l 543 -278 l 543 122 m 408 150 q 505 178 467 150 q 543 257 543 207 l 543 472 q 505 551 543 522 q 408 579 467 579 q 312 538 350 579 q 274 428 274 497 l 274 301 q 312 191 274 232 q 408 150 350 150 z "},"r":{"ha":561,"x_min":96,"x_max":531,"o":"m 96 0 l 96 729 l 301 729 l 301 571 l 308 571 q 328 630 314 601 q 365 681 342 658 q 419 716 388 703 q 494 729 451 729 l 531 729 l 531 538 l 479 538 q 345 514 389 538 q 301 426 301 490 l 301 0 l 96 0 z "},"s":{"ha":700,"x_min":36,"x_max":656,"o":"m 343 -17 q 165 17 238 -17 q 36 114 93 51 l 157 236 q 243 168 196 193 q 350 143 290 143 q 435 162 411 143 q 458 213 458 181 q 385 274 458 264 l 306 283 q 60 508 60 314 q 80 605 60 561 q 137 680 100 649 q 226 728 174 711 q 343 746 278 746 q 444 738 400 746 q 522 716 488 731 q 584 680 556 701 q 640 632 613 658 l 522 511 q 444 566 488 546 q 354 586 400 586 q 279 569 301 586 q 257 525 257 553 q 273 480 257 496 q 333 457 289 464 l 415 446 q 656 226 656 414 q 633 129 656 174 q 570 52 611 85 q 472 1 529 19 q 343 -17 414 -17 z "},"t":{"ha":532,"x_min":32,"x_max":485,"o":"m 351 0 q 190 54 244 0 q 135 213 135 108 l 135 569 l 32 569 l 32 729 l 83 729 q 140 749 125 729 q 156 807 156 769 l 156 926 l 340 926 l 340 729 l 485 729 l 485 569 l 340 569 l 340 160 l 474 160 l 474 0 l 351 0 z "},"u":{"ha":828,"x_min":88,"x_max":732,"o":"m 526 122 l 519 122 q 494 69 510 94 q 453 25 478 44 q 394 -6 428 6 q 315 -17 360 -17 q 145 58 203 -17 q 88 271 88 132 l 88 729 l 293 729 l 293 289 q 317 186 293 222 q 397 150 340 150 q 444 157 421 150 q 486 177 468 164 q 515 210 504 190 q 526 256 526 229 l 526 729 l 732 729 l 732 0 l 526 0 l 526 122 z "},"v":{"ha":747,"x_min":13,"x_max":735,"o":"m 251 0 l 13 729 l 215 729 l 306 435 l 374 171 l 385 171 l 453 435 l 540 729 l 735 729 l 496 0 l 251 0 z "},"w":{"ha":1168,"x_min":26,"x_max":1142,"o":"m 26 729 l 225 729 l 296 435 l 346 213 l 351 213 l 410 435 l 493 729 l 681 729 l 765 435 l 825 213 l 831 213 l 881 435 l 951 729 l 1142 729 l 940 0 l 725 0 l 636 308 l 585 497 l 581 497 l 531 308 l 442 0 l 231 0 l 26 729 z "},"x":{"ha":778,"x_min":25,"x_max":753,"o":"m 25 0 l 265 371 l 28 729 l 261 729 l 397 500 l 403 500 l 535 729 l 751 729 l 510 364 l 753 0 l 519 0 l 379 238 l 374 238 l 239 0 l 25 0 z "},"y":{"ha":742,"x_min":8,"x_max":733,"o":"m 542 729 l 733 729 l 453 -112 q 374 -237 425 -197 q 229 -278 324 -278 l 101 -278 l 101 -118 l 239 -118 l 264 -37 l 8 729 l 213 729 l 319 389 l 372 178 l 381 178 l 435 389 l 542 729 z "},"z":{"ha":719,"x_min":54,"x_max":665,"o":"m 54 0 l 54 163 l 417 569 l 67 569 l 67 729 l 656 729 l 656 568 l 292 160 l 665 160 l 665 0 l 54 0 z "},"A":{"ha":951,"x_min":28,"x_max":924,"o":"m 704 0 l 635 231 l 311 231 l 242 0 l 28 0 l 347 969 l 608 969 l 924 0 l 704 0 m 475 778 l 468 778 l 361 410 l 583 410 l 475 778 z "},"B":{"ha":926,"x_min":107,"x_max":871,"o":"m 107 969 l 578 969 q 766 901 699 969 q 833 721 833 833 q 819 626 833 665 q 780 563 804 588 q 723 526 756 538 q 653 513 690 514 l 653 504 q 726 492 688 504 q 796 452 764 479 q 849 382 828 425 q 871 276 871 339 q 852 169 871 219 q 800 81 833 118 q 721 22 767 43 q 621 0 675 0 l 107 0 l 107 969 m 318 178 l 561 178 q 627 201 603 178 q 651 265 651 224 l 651 313 q 627 377 651 354 q 561 400 603 400 l 318 400 l 318 178 m 318 572 l 528 572 q 593 596 569 572 q 617 661 617 619 l 617 703 q 593 768 617 744 q 528 792 569 792 l 318 792 l 318 572 z "},"C":{"ha":904,"x_min":69,"x_max":864,"o":"m 499 -17 q 321 15 400 -17 q 186 108 242 46 q 100 262 131 169 q 69 478 69 354 q 100 695 69 600 q 186 855 131 790 q 321 953 242 919 q 499 986 400 986 q 721 931 633 986 q 861 758 808 876 l 679 664 q 619 762 660 725 q 499 799 578 799 q 349 738 406 799 q 293 563 293 678 l 293 407 q 349 231 293 292 q 499 171 406 171 q 623 213 576 171 q 692 315 669 256 l 864 215 q 722 44 810 104 q 499 -17 633 -17 z "},"D":{"ha":968,"x_min":107,"x_max":899,"o":"m 107 969 l 472 969 q 647 939 568 969 q 782 848 726 908 q 868 697 838 788 q 899 485 899 606 q 868 273 899 364 q 782 122 838 182 q 647 31 726 61 q 472 0 568 0 l 107 0 l 107 969 m 472 188 q 621 240 567 188 q 675 410 675 293 l 675 560 q 621 729 675 676 q 472 782 567 782 l 318 782 l 318 188 l 472 188 z "},"E":{"ha":843,"x_min":107,"x_max":767,"o":"m 107 0 l 107 969 l 767 969 l 767 782 l 318 782 l 318 583 l 703 583 l 703 397 l 318 397 l 318 188 l 767 188 l 767 0 l 107 0 z "},"F":{"ha":813,"x_min":107,"x_max":750,"o":"m 107 0 l 107 969 l 750 969 l 750 782 l 318 782 l 318 583 l 686 583 l 686 397 l 318 397 l 318 0 l 107 0 z "},"G":{"ha":999,"x_min":69,"x_max":900,"o":"m 722 154 l 715 154 q 640 32 704 81 q 467 -17 576 -17 q 311 15 383 -17 q 185 110 239 47 q 100 265 131 172 q 69 481 69 358 q 101 697 69 603 q 191 856 133 792 q 329 953 249 919 q 508 986 410 986 q 733 930 639 986 q 882 761 828 874 l 710 663 q 640 759 688 719 q 508 799 593 799 q 351 742 410 799 q 293 563 293 685 l 293 407 q 351 228 293 286 q 508 171 410 171 q 582 180 547 171 q 643 208 617 189 q 684 253 669 226 q 699 315 699 279 l 699 364 l 518 364 l 518 540 l 900 540 l 900 0 l 722 0 l 722 154 z "},"H":{"ha":1006,"x_min":107,"x_max":899,"o":"m 688 397 l 318 397 l 318 0 l 107 0 l 107 969 l 318 969 l 318 583 l 688 583 l 688 969 l 899 969 l 899 0 l 688 0 l 688 397 z "},"I":{"ha":600,"x_min":69,"x_max":531,"o":"m 69 0 l 69 168 l 194 168 l 194 801 l 69 801 l 69 969 l 531 969 l 531 801 l 406 801 l 406 168 l 531 168 l 531 0 l 69 0 z "},"J":{"ha":776,"x_min":35,"x_max":675,"o":"m 675 969 l 675 281 q 653 159 675 214 q 590 66 632 104 q 490 6 549 28 q 356 -15 431 -15 q 228 4 283 -15 q 134 60 174 24 q 69 146 94 96 q 35 257 44 196 l 232 296 q 353 169 256 169 q 431 199 399 169 q 464 290 464 228 l 464 800 l 169 800 l 169 969 l 675 969 z "},"K":{"ha":967,"x_min":107,"x_max":950,"o":"m 444 422 l 318 269 l 318 0 l 107 0 l 107 969 l 318 969 l 318 508 l 326 508 l 464 696 l 682 969 l 921 969 l 594 571 l 950 0 l 701 0 l 444 422 z "},"L":{"ha":736,"x_min":107,"x_max":688,"o":"m 107 0 l 107 969 l 318 969 l 318 188 l 688 188 l 688 0 l 107 0 z "},"M":{"ha":1138,"x_min":107,"x_max":1031,"o":"m 832 636 l 828 636 l 757 494 l 568 151 l 383 493 l 310 646 l 306 646 l 306 0 l 107 0 l 107 969 l 331 969 l 568 515 l 571 515 l 806 969 l 1031 969 l 1031 0 l 832 0 l 832 636 z "},"N":{"ha":1006,"x_min":107,"x_max":899,"o":"m 403 458 l 310 653 l 306 653 l 306 0 l 107 0 l 107 969 l 338 969 l 603 511 l 696 317 l 700 317 l 700 969 l 899 969 l 899 0 l 668 0 l 403 458 z "},"O":{"ha":992,"x_min":69,"x_max":922,"o":"m 496 -17 q 321 15 400 -17 q 186 110 242 47 q 100 267 131 174 q 69 485 69 361 q 100 702 69 608 q 186 859 131 796 q 321 954 242 922 q 496 986 400 986 q 671 954 592 986 q 806 859 750 922 q 892 702 861 796 q 922 485 922 608 q 892 267 922 361 q 806 110 861 174 q 671 15 750 47 q 496 -17 592 -17 m 496 171 q 645 233 592 171 q 699 413 699 296 l 699 557 q 645 736 699 674 q 496 799 592 799 q 347 736 400 799 q 293 557 293 674 l 293 413 q 347 233 293 296 q 496 171 400 171 z "},"P":{"ha":911,"x_min":107,"x_max":860,"o":"m 107 0 l 107 969 l 565 969 q 688 947 633 969 q 780 883 742 924 q 839 785 818 843 q 860 660 860 728 q 839 533 860 590 q 780 436 818 476 q 688 373 742 396 q 565 350 633 350 l 318 350 l 318 0 l 107 0 m 318 533 l 540 533 q 615 558 588 533 q 642 629 642 582 l 642 690 q 615 762 642 738 q 540 786 588 786 l 318 786 l 318 533 z "},"Q":{"ha":992,"x_min":69,"x_max":922,"o":"m 753 -256 l 622 -256 q 458 -203 510 -256 q 407 -50 407 -150 l 407 -10 q 160 142 251 18 q 69 485 69 267 q 100 702 69 608 q 186 859 131 796 q 321 954 242 922 q 496 986 400 986 q 671 954 592 986 q 806 859 750 922 q 892 702 861 796 q 922 485 922 608 q 837 150 922 274 q 604 -6 751 26 l 604 -83 l 753 -83 l 753 -256 m 496 171 q 645 233 592 171 q 699 413 699 296 l 699 557 q 645 736 699 674 q 496 799 592 799 q 347 736 400 799 q 293 557 293 674 l 293 413 q 347 233 293 296 q 496 171 400 171 z "},"R":{"ha":936,"x_min":107,"x_max":874,"o":"m 318 0 l 107 0 l 107 969 l 567 969 q 688 947 633 969 q 780 884 742 925 q 839 786 818 843 q 860 660 860 729 q 816 488 860 561 q 683 381 772 414 l 874 0 l 639 0 l 469 356 l 318 356 l 318 0 m 540 533 q 615 558 588 533 q 642 629 642 582 l 642 690 q 615 762 642 738 q 540 786 588 786 l 318 786 l 318 533 l 540 533 z "},"S":{"ha":867,"x_min":53,"x_max":799,"o":"m 421 -17 q 204 27 293 -17 q 53 140 115 71 l 192 281 q 435 169 290 169 q 550 201 513 169 q 588 286 588 233 q 565 353 588 326 q 475 390 543 381 l 379 403 q 153 496 225 422 q 82 692 82 569 q 107 811 82 757 q 178 904 132 865 q 292 965 225 943 q 446 986 360 986 q 639 951 556 986 q 782 850 722 917 l 642 708 q 558 774 607 749 q 433 800 508 800 q 328 775 363 800 q 293 706 293 750 q 320 633 293 656 q 408 601 347 611 l 504 586 q 726 494 654 563 q 799 299 799 425 q 774 171 799 229 q 701 71 749 113 q 582 6 653 29 q 421 -17 511 -17 z "},"T":{"ha":811,"x_min":38,"x_max":774,"o":"m 511 782 l 511 0 l 300 0 l 300 782 l 38 782 l 38 969 l 774 969 l 774 782 l 511 782 z "},"U":{"ha":964,"x_min":101,"x_max":863,"o":"m 307 969 l 307 375 q 347 222 307 272 q 482 171 388 171 q 617 222 576 171 q 657 375 657 272 l 657 969 l 863 969 l 863 397 q 842 212 863 290 q 776 83 822 133 q 658 8 731 32 q 482 -17 586 -17 q 306 8 378 -17 q 188 83 233 32 q 122 212 142 133 q 101 397 101 290 l 101 969 l 307 969 z "},"V":{"ha":903,"x_min":19,"x_max":883,"o":"m 332 0 l 19 969 l 233 969 l 378 504 l 454 200 l 458 200 l 532 504 l 676 969 l 883 969 l 568 0 l 332 0 z "},"W":{"ha":1351,"x_min":40,"x_max":1311,"o":"m 260 0 l 40 969 l 249 969 l 340 504 l 392 235 l 396 235 l 457 504 l 564 969 l 794 969 l 903 504 l 963 235 l 967 235 l 1018 504 l 1111 969 l 1311 969 l 1086 0 l 846 0 l 724 525 l 676 738 l 672 738 l 624 525 l 501 0 l 260 0 z "},"X":{"ha":935,"x_min":22,"x_max":913,"o":"m 913 0 l 668 0 l 458 357 l 454 357 l 250 0 l 22 0 l 333 501 l 38 969 l 283 969 l 472 642 l 476 642 l 668 969 l 896 969 l 597 497 l 913 0 z "},"Y":{"ha":901,"x_min":13,"x_max":889,"o":"m 344 0 l 344 379 l 13 969 l 249 969 l 457 583 l 460 583 l 660 969 l 889 969 l 557 381 l 557 0 l 344 0 z "},"Z":{"ha":843,"x_min":54,"x_max":789,"o":"m 789 0 l 54 0 l 54 188 l 532 782 l 78 782 l 78 969 l 778 969 l 778 782 l 299 188 l 789 188 l 789 0 z "},"&":{"ha":1001,"x_min":69,"x_max":997,"o":"m 676 79 q 565 13 631 42 q 399 -17 500 -17 q 257 3 318 -17 q 154 60 196 24 q 91 147 113 97 q 69 254 69 196 q 84 343 69 304 q 124 414 99 382 q 186 472 150 446 q 264 524 222 499 q 224 572 243 546 q 189 628 204 599 q 165 689 174 657 q 156 754 156 721 q 176 844 156 801 q 234 918 196 886 q 326 968 272 950 q 446 986 379 986 q 556 972 506 986 q 644 928 607 957 q 703 858 682 900 q 725 764 725 817 q 710 681 725 718 q 668 612 694 643 q 606 554 642 581 q 532 504 571 528 l 682 342 q 710 436 700 386 q 722 535 719 486 l 954 535 l 954 364 l 867 364 q 804 210 843 275 l 997 0 l 749 0 l 676 79 m 440 829 q 377 808 403 829 q 351 750 351 788 l 351 744 q 369 690 351 717 q 431 614 388 663 q 504 673 479 643 q 529 744 529 703 l 529 750 q 503 808 529 788 q 440 829 478 829 m 429 154 q 569 193 511 154 l 365 414 q 299 357 318 386 q 279 290 279 328 l 279 276 q 317 189 279 224 q 429 154 354 154 z "},"@":{"ha":1254,"x_min":85,"x_max":1175,"o":"m 933 -168 l 642 -168 q 406 -126 510 -168 q 231 -9 303 -85 q 122 172 160 67 q 85 404 85 276 q 124 638 85 531 q 235 822 163 744 q 410 942 307 899 q 642 985 513 985 q 860 948 761 985 q 1028 844 958 911 q 1137 680 1099 776 q 1175 465 1175 583 q 1105 206 1175 299 q 915 114 1035 114 q 793 150 840 114 q 742 244 746 186 l 735 244 q 683 151 721 186 q 575 117 644 117 q 422 190 483 117 q 361 404 361 263 q 422 619 361 546 q 575 692 483 692 q 669 660 633 692 q 718 583 706 629 l 725 583 l 725 679 l 879 679 l 879 306 q 940 236 879 236 q 1017 287 988 236 q 1046 444 1046 338 l 1046 483 q 1016 643 1046 572 q 933 763 986 714 q 805 838 879 811 q 642 864 731 864 q 465 832 543 864 q 330 742 386 800 q 244 605 274 685 q 214 431 214 525 l 214 378 q 244 205 214 283 q 330 71 274 126 q 465 -15 386 15 q 642 -46 543 -46 l 933 -46 l 933 -168 m 632 243 q 697 270 668 243 q 725 329 725 297 l 725 490 q 697 544 725 522 q 632 565 668 565 q 552 533 582 565 q 522 451 522 501 l 522 357 q 552 275 522 307 q 632 243 582 243 z "},"-":{"ha":560,"x_min":74,"x_max":486,"o":"m 74 324 l 74 524 l 486 524 l 486 324 l 74 324 z "},"­":{"ha":560,"x_min":74,"x_max":486,"o":"m 74 324 l 74 524 l 486 524 l 486 324 l 74 324 z "},"–":{"ha":817,"x_min":50,"x_max":767,"o":"m 50 339 l 50 506 l 767 506 l 767 339 l 50 339 z "},"—":{"ha":1083,"x_min":50,"x_max":1033,"o":"m 50 339 l 50 506 l 1033 506 l 1033 339 l 50 339 z "},"_":{"ha":772,"x_min":42,"x_max":731,"o":"m 42 -264 l 42 -93 l 731 -93 l 731 -264 l 42 -264 z "},".":{"ha":431,"x_min":93,"x_max":338,"o":"m 215 -15 q 123 16 153 -15 q 93 96 93 47 l 93 124 q 123 203 93 172 q 215 235 153 235 q 308 203 278 235 q 338 124 338 172 l 338 96 q 308 16 338 47 q 215 -15 278 -15 z "},"…":{"ha":1246,"x_min":93,"x_max":1153,"o":"m 215 -15 q 123 16 153 -15 q 93 96 93 47 l 93 124 q 123 203 93 172 q 215 235 153 235 q 308 203 278 235 q 338 124 338 172 l 338 96 q 308 16 338 47 q 215 -15 278 -15 m 622 -15 q 530 16 560 -15 q 500 96 500 47 l 500 124 q 530 203 500 172 q 622 235 560 235 q 715 203 685 235 q 744 124 744 172 l 744 96 q 715 16 744 47 q 622 -15 685 -15 m 1031 -15 q 938 16 968 -15 q 908 96 908 47 l 908 124 q 938 203 908 172 q 1031 235 968 235 q 1123 203 1093 235 q 1153 124 1153 172 l 1153 96 q 1123 16 1153 47 q 1031 -15 1093 -15 z "},":":{"ha":458,"x_min":107,"x_max":351,"o":"m 229 -15 q 137 16 167 -15 q 107 96 107 47 l 107 124 q 137 203 107 172 q 229 235 167 235 q 322 203 292 235 q 351 124 351 172 l 351 96 q 322 16 351 47 q 229 -15 292 -15 m 229 494 q 137 526 167 494 q 107 606 107 557 l 107 633 q 137 713 107 682 q 229 744 167 744 q 322 713 292 744 q 351 633 351 682 l 351 606 q 322 526 351 557 q 229 494 292 494 z "},",":{"ha":431,"x_min":50,"x_max":338,"o":"m 215 235 q 308 203 278 235 q 338 124 338 172 l 338 96 q 297 -71 338 11 q 189 -204 256 -153 l 50 -204 q 133 -113 99 -158 q 186 -12 168 -68 q 115 26 138 -4 q 93 96 93 56 l 93 124 q 123 203 93 172 q 215 235 153 235 z "},";":{"ha":458,"x_min":64,"x_max":351,"o":"m 229 235 q 322 203 292 235 q 351 124 351 172 l 351 96 q 310 -71 351 11 q 203 -204 269 -153 l 64 -204 q 147 -113 113 -158 q 200 -12 182 -68 q 129 26 151 -4 q 107 96 107 56 l 107 124 q 137 203 107 172 q 229 235 167 235 m 229 494 q 137 526 167 494 q 107 606 107 557 l 107 633 q 137 713 107 682 q 229 744 167 744 q 322 713 292 744 q 351 633 351 682 l 351 606 q 322 526 351 557 q 229 494 292 494 z "},";":{"ha":458,"x_min":64,"x_max":351,"o":"m 229 235 q 322 203 292 235 q 351 124 351 172 l 351 96 q 310 -71 351 11 q 203 -204 269 -153 l 64 -204 q 147 -113 113 -158 q 200 -12 182 -68 q 129 26 151 -4 q 107 96 107 56 l 107 124 q 137 203 107 172 q 229 235 167 235 m 229 494 q 137 526 167 494 q 107 606 107 557 l 107 633 q 137 713 107 682 q 229 744 167 744 q 322 713 292 744 q 351 633 351 682 l 351 606 q 322 526 351 557 q 229 494 292 494 z "},"'":{"ha":372,"x_min":94,"x_max":278,"o":"m 94 575 l 94 1028 l 278 1028 l 278 575 l 94 575 z "},"\"":{"ha":685,"x_min":94,"x_max":590,"o":"m 94 575 l 94 1028 l 278 1028 l 278 575 l 94 575 m 407 575 l 407 1028 l 590 1028 l 590 575 l 407 575 z "},"‘":{"ha":417,"x_min":86,"x_max":367,"o":"m 206 611 q 115 640 143 611 q 86 711 86 668 l 86 740 q 98 822 86 781 q 130 900 110 863 q 178 970 150 938 q 238 1028 206 1003 l 367 1028 q 288 943 321 986 q 239 847 256 900 q 304 810 283 839 q 325 746 325 782 l 325 711 q 297 640 325 668 q 206 611 268 611 z "},"’":{"ha":417,"x_min":50,"x_max":331,"o":"m 211 1042 q 302 1013 274 1042 q 331 942 331 985 l 331 913 q 319 831 331 872 q 287 753 307 790 q 239 683 267 715 q 179 625 211 650 l 50 625 q 128 710 96 667 q 178 806 161 753 q 113 842 133 814 q 92 907 92 871 l 92 942 q 120 1013 92 985 q 211 1042 149 1042 z "},"“":{"ha":743,"x_min":86,"x_max":693,"o":"m 206 611 q 115 640 143 611 q 86 711 86 668 l 86 740 q 98 822 86 781 q 130 900 110 863 q 178 970 150 938 q 238 1028 206 1003 l 367 1028 q 288 943 321 986 q 239 847 256 900 q 304 810 283 839 q 325 746 325 782 l 325 711 q 297 640 325 668 q 206 611 268 611 m 532 611 q 441 640 469 611 q 413 711 413 668 l 413 740 q 424 822 413 781 q 456 900 436 863 q 504 970 476 938 q 564 1028 532 1003 l 693 1028 q 615 943 647 986 q 565 847 582 900 q 631 810 610 839 q 651 746 651 782 l 651 711 q 623 640 651 668 q 532 611 594 611 z "},"”":{"ha":743,"x_min":50,"x_max":657,"o":"m 211 1042 q 302 1013 274 1042 q 331 942 331 985 l 331 913 q 319 831 331 872 q 287 753 307 790 q 239 683 267 715 q 179 625 211 650 l 50 625 q 128 710 96 667 q 178 806 161 753 q 113 842 133 814 q 92 907 92 871 l 92 942 q 120 1013 92 985 q 211 1042 149 1042 m 538 1042 q 628 1013 600 1042 q 657 942 657 985 l 657 913 q 645 831 657 872 q 613 753 633 790 q 565 683 593 715 q 506 625 538 650 l 376 625 q 455 710 422 667 q 504 806 488 753 q 439 842 460 814 q 418 907 418 871 l 418 942 q 447 1013 418 985 q 538 1042 475 1042 z "},"‚":{"ha":422,"x_min":53,"x_max":333,"o":"m 215 254 q 306 225 279 254 q 333 151 333 196 l 333 121 q 322 40 333 81 q 291 -37 311 0 q 244 -106 271 -74 q 186 -162 217 -137 l 53 -162 q 133 -78 100 -121 q 183 18 167 -35 q 117 56 138 26 q 97 121 97 85 l 97 151 q 124 225 97 196 q 215 254 151 254 z "},"„":{"ha":749,"x_min":53,"x_max":660,"o":"m 215 254 q 306 225 279 254 q 333 151 333 196 l 333 121 q 322 40 333 81 q 291 -37 311 0 q 244 -106 271 -74 q 186 -162 217 -137 l 53 -162 q 133 -78 100 -121 q 183 18 167 -35 q 117 56 138 26 q 97 121 97 85 l 97 151 q 124 225 97 196 q 215 254 151 254 m 542 254 q 633 225 606 254 q 660 151 660 196 l 660 121 q 649 40 660 81 q 617 -37 638 0 q 570 -106 597 -74 q 513 -162 543 -137 l 379 -162 q 460 -78 426 -121 q 510 18 493 -35 q 444 56 464 26 q 424 121 424 85 l 424 151 q 451 225 424 196 q 542 254 478 254 z "},"‹":{"ha":440,"x_min":53,"x_max":371,"o":"m 311 68 l 53 290 l 53 465 l 311 688 l 371 560 l 204 378 l 371 196 l 311 68 z "},"›":{"ha":440,"x_min":69,"x_max":388,"o":"m 69 196 l 236 378 l 69 560 l 129 688 l 388 465 l 388 290 l 129 68 l 69 196 z "},"«":{"ha":775,"x_min":53,"x_max":706,"o":"m 311 68 l 53 290 l 53 465 l 311 688 l 371 560 l 204 378 l 371 196 l 311 68 m 646 68 l 388 290 l 388 465 l 646 688 l 706 560 l 539 378 l 706 196 l 646 68 z "},"»":{"ha":775,"x_min":69,"x_max":722,"o":"m 69 196 l 236 378 l 69 560 l 129 688 l 388 465 l 388 290 l 129 68 l 69 196 m 404 196 l 571 378 l 404 560 l 464 688 l 722 465 l 722 290 l 464 68 l 404 196 z "},"¡":{"ha":444,"x_min":99,"x_max":346,"o":"m 114 -240 l 114 29 l 178 424 l 265 424 l 331 29 l 331 -240 l 114 -240 m 222 501 q 127 532 156 501 q 99 607 99 563 l 99 640 q 127 715 99 685 q 222 746 156 746 q 317 715 289 746 q 346 640 346 685 l 346 607 q 317 532 346 563 q 222 501 289 501 z "},"!":{"ha":444,"x_min":99,"x_max":346,"o":"m 181 306 l 115 700 l 115 969 l 332 969 l 332 700 l 268 306 l 181 306 m 222 -17 q 127 14 156 -17 q 99 89 99 44 l 99 122 q 127 197 99 167 q 222 228 156 228 q 317 197 289 228 q 346 122 346 167 l 346 89 q 317 14 346 44 q 222 -17 289 -17 z "},"¿":{"ha":686,"x_min":38,"x_max":675,"o":"m 361 -257 q 228 -236 288 -257 q 126 -178 169 -215 q 60 -87 83 -140 q 38 29 38 -35 q 57 135 38 88 q 110 217 76 182 q 188 275 143 253 q 281 306 232 297 l 281 406 l 475 406 l 475 193 q 310 156 365 189 q 256 46 256 124 l 256 26 q 287 -54 256 -26 q 368 -82 318 -82 q 458 -49 422 -82 q 506 36 493 -15 l 675 -35 q 639 -117 663 -76 q 577 -188 615 -157 q 485 -238 539 -219 q 361 -257 432 -257 m 375 501 q 280 532 308 501 q 251 607 251 563 l 251 640 q 280 715 251 685 q 375 746 308 746 q 470 715 442 746 q 499 640 499 685 l 499 607 q 470 532 499 563 q 375 501 442 501 z "},"?":{"ha":694,"x_min":19,"x_max":657,"o":"m 219 324 l 219 536 q 384 573 329 540 q 439 683 439 606 l 439 703 q 408 783 439 756 q 326 811 376 811 q 237 778 272 811 q 189 693 201 744 l 19 764 q 56 845 32 806 q 117 916 79 885 q 209 967 156 947 q 333 986 263 986 q 465 965 406 986 q 568 907 525 944 q 634 817 611 869 q 657 700 657 764 q 638 594 657 642 q 585 512 618 547 q 507 454 551 476 q 414 424 463 432 l 414 324 l 219 324 m 319 -17 q 224 14 253 -17 q 196 89 196 44 l 196 122 q 224 197 196 167 q 319 228 253 228 q 415 197 386 228 q 443 122 443 167 l 443 89 q 415 14 443 44 q 319 -17 386 -17 z "},"(":{"ha":469,"x_min":51,"x_max":488,"o":"m 51 433 q 70 626 51 533 q 121 799 89 719 q 197 944 153 879 q 294 1056 242 1010 l 488 1056 q 310 805 375 951 q 246 481 246 658 l 246 383 q 311 54 246 199 q 488 -192 376 -90 l 293 -192 q 199 -83 243 -149 q 122 63 154 -18 q 70 238 89 144 q 51 433 51 332 z "},")":{"ha":469,"x_min":-18,"x_max":418,"o":"m 418 433 q 399 238 418 332 q 348 63 381 144 q 271 -83 315 -18 q 176 -192 226 -149 l -18 -192 q 158 54 93 -90 q 224 383 224 199 l 224 481 q 159 805 224 658 q -18 1056 94 951 l 175 1056 q 272 944 228 1010 q 349 799 317 879 q 399 626 381 719 q 418 433 418 533 z "},"[":{"ha":464,"x_min":107,"x_max":394,"o":"m 107 -192 l 107 1056 l 394 1056 l 394 911 l 297 911 l 297 -47 l 394 -47 l 394 -192 l 107 -192 z "},"]":{"ha":464,"x_min":69,"x_max":357,"o":"m 357 1056 l 357 -192 l 69 -192 l 69 -47 l 167 -47 l 167 911 l 69 911 l 69 1056 l 357 1056 z "},"{":{"ha":517,"x_min":26,"x_max":447,"o":"m 296 -192 q 200 -156 239 -192 q 161 -51 161 -119 l 161 231 q 123 323 161 292 q 26 354 85 354 l 26 511 q 123 542 85 511 q 161 635 161 574 l 161 915 q 200 1019 161 983 q 296 1056 239 1056 l 447 1056 l 447 911 l 351 911 l 351 613 q 340 549 351 579 q 308 496 328 519 q 263 456 289 472 q 207 435 236 440 l 207 429 q 263 408 236 424 q 308 368 289 392 q 340 315 328 344 q 351 251 351 285 l 351 -47 l 447 -47 l 447 -192 l 296 -192 z "},"}":{"ha":517,"x_min":69,"x_max":490,"o":"m 221 1056 q 317 1019 278 1056 q 356 915 356 983 l 356 635 q 394 542 356 574 q 490 511 432 511 l 490 354 q 394 323 432 354 q 356 231 356 292 l 356 -51 q 317 -156 356 -119 q 221 -192 278 -192 l 69 -192 l 69 -47 l 165 -47 l 165 253 q 177 316 165 286 q 208 369 189 346 q 254 409 228 393 q 310 431 281 425 l 310 436 q 254 458 281 442 q 208 497 228 474 q 177 551 189 521 q 165 614 165 581 l 165 911 l 69 911 l 69 1056 l 221 1056 z "},"/":{"ha":639,"x_min":4,"x_max":588,"o":"m 4 -210 l 418 1028 l 588 1028 l 174 -210 l 4 -210 z "},"\\":{"ha":639,"x_min":50,"x_max":633,"o":"m 464 -210 l 50 1028 l 219 1028 l 633 -210 l 464 -210 z "},"⁄":{"ha":204,"x_min":-340,"x_max":544,"o":"m -340 0 l 394 969 l 544 969 l -190 0 l -340 0 z "},"∕":{"ha":204,"x_min":-340,"x_max":544,"o":"m -340 0 l 394 969 l 544 969 l -190 0 l -340 0 z "},"%":{"ha":1353,"x_min":69,"x_max":1283,"o":"m 249 0 l 921 969 l 1104 969 l 432 0 l 249 0 m 319 436 q 133 506 197 436 q 69 711 69 575 q 133 917 69 847 q 319 986 197 986 q 506 917 442 986 q 569 711 569 847 q 506 506 569 575 q 319 436 442 436 m 319 556 q 374 584 356 556 q 392 675 392 613 l 392 747 q 374 838 392 810 q 319 867 356 867 q 265 838 283 867 q 247 747 247 810 l 247 675 q 265 584 247 613 q 319 556 283 556 m 1033 -17 q 847 53 911 -17 q 783 258 783 122 q 847 464 783 394 q 1033 533 911 533 q 1219 464 1156 533 q 1283 258 1283 394 q 1219 53 1283 122 q 1033 -17 1156 -17 m 1033 103 q 1088 131 1069 103 q 1106 222 1106 160 l 1106 294 q 1088 385 1106 357 q 1033 414 1069 414 q 979 385 997 414 q 961 294 961 357 l 961 222 q 979 131 961 160 q 1033 103 997 103 z "},"‰":{"ha":1919,"x_min":69,"x_max":1850,"o":"m 249 0 l 921 969 l 1104 969 l 432 0 l 249 0 m 319 436 q 133 506 197 436 q 69 711 69 575 q 133 917 69 847 q 319 986 197 986 q 506 917 442 986 q 569 711 569 847 q 506 506 569 575 q 319 436 442 436 m 319 556 q 374 584 356 556 q 392 675 392 613 l 392 747 q 374 838 392 810 q 319 867 356 867 q 265 838 283 867 q 247 747 247 810 l 247 675 q 265 584 247 613 q 319 556 283 556 m 1033 -17 q 847 53 911 -17 q 783 258 783 122 q 847 464 783 394 q 1033 533 911 533 q 1219 464 1156 533 q 1283 258 1283 394 q 1219 53 1283 122 q 1033 -17 1156 -17 m 1033 103 q 1088 131 1069 103 q 1106 222 1106 160 l 1106 294 q 1088 385 1106 357 q 1033 414 1069 414 q 979 385 997 414 q 961 294 961 357 l 961 222 q 979 131 961 160 q 1033 103 997 103 m 1600 -17 q 1414 53 1478 -17 q 1350 258 1350 122 q 1414 464 1350 394 q 1600 533 1478 533 q 1786 464 1722 533 q 1850 258 1850 394 q 1786 53 1850 122 q 1600 -17 1722 -17 m 1600 103 q 1654 131 1636 103 q 1672 222 1672 160 l 1672 294 q 1654 385 1672 357 q 1600 414 1636 414 q 1546 385 1564 414 q 1528 294 1528 357 l 1528 222 q 1546 131 1528 160 q 1600 103 1564 103 z "},"|":{"ha":558,"x_min":192,"x_max":367,"o":"m 192 -192 l 192 1056 l 367 1056 l 367 -192 l 192 -192 z "},"¦":{"ha":558,"x_min":192,"x_max":367,"o":"m 192 557 l 192 1056 l 367 1056 l 367 557 l 192 557 m 192 -192 l 192 307 l 367 307 l 367 -192 l 192 -192 z "},"§":{"ha":790,"x_min":69,"x_max":721,"o":"m 678 18 q 656 -83 678 -39 q 594 -159 633 -128 q 499 -207 554 -190 q 376 -224 443 -224 q 232 -201 304 -224 q 100 -124 160 -179 l 200 -1 q 281 -58 236 -37 q 379 -78 325 -78 q 471 -56 436 -78 q 506 10 506 -33 q 476 70 506 49 q 385 108 447 92 l 278 138 q 179 176 219 154 q 115 226 139 199 q 80 283 90 253 q 69 343 69 313 q 106 453 69 403 q 218 535 142 503 l 218 558 q 140 638 169 590 q 111 751 111 686 q 133 852 111 808 q 195 926 156 896 q 290 971 235 956 q 411 986 346 986 q 558 965 486 986 q 690 886 629 943 l 589 764 q 510 820 553 800 q 407 840 468 840 q 319 822 354 840 q 283 758 283 803 q 313 701 283 722 q 404 664 342 681 l 511 635 q 610 595 569 618 q 675 545 650 572 q 710 488 700 518 q 721 426 721 457 q 685 317 721 367 q 571 235 649 267 l 571 213 q 649 133 619 181 q 678 18 678 85 m 550 364 q 528 430 550 400 q 439 479 506 460 l 333 508 q 289 522 308 515 q 252 466 265 494 q 239 406 239 438 q 261 342 239 371 q 350 293 283 313 l 456 264 q 478 257 467 261 q 501 249 490 253 q 538 304 525 276 q 550 364 550 332 z "},"¶":{"ha":940,"x_min":43,"x_max":867,"o":"m 336 361 q 222 385 275 361 q 128 451 168 410 q 66 547 89 492 q 43 665 43 603 q 66 783 43 728 q 128 880 89 839 q 222 945 168 921 q 336 969 275 969 l 867 969 l 867 822 l 775 822 l 775 -207 l 624 -207 l 624 822 l 488 822 l 488 -207 l 336 -207 l 336 361 z "},"©":{"ha":1100,"x_min":67,"x_max":1033,"o":"m 550 -17 q 356 18 444 -17 q 203 118 267 53 q 103 276 139 183 q 67 485 67 368 q 103 694 67 601 q 203 851 139 786 q 356 951 267 917 q 550 986 444 986 q 744 951 656 986 q 897 851 833 917 q 997 694 961 786 q 1033 485 1033 601 q 997 276 1033 368 q 897 118 961 183 q 744 18 833 53 q 550 -17 656 -17 m 550 72 q 703 101 633 72 q 823 178 772 129 q 902 293 874 226 q 931 438 931 360 l 931 532 q 902 676 931 608 q 823 792 874 743 q 703 869 772 840 q 550 897 633 897 q 397 869 467 897 q 277 792 328 840 q 198 676 226 743 q 169 532 169 608 l 169 438 q 198 293 169 360 q 277 178 226 226 q 397 101 328 129 q 550 72 467 72 m 560 186 q 438 208 492 186 q 347 268 385 229 q 290 362 310 307 q 271 485 271 417 q 290 608 271 553 q 347 701 310 663 q 438 762 385 740 q 560 783 492 783 q 722 740 661 783 q 811 626 783 697 l 672 560 q 631 618 656 596 q 560 640 606 640 q 488 613 514 640 q 461 540 461 586 l 461 429 q 488 356 461 383 q 560 329 514 329 q 635 352 606 329 q 682 410 664 375 l 822 344 q 785 284 807 313 q 732 233 764 256 q 658 199 700 211 q 560 186 615 186 z "},"®":{"ha":644,"x_min":42,"x_max":603,"o":"m 322 414 q 213 435 264 414 q 123 495 161 457 q 63 586 85 533 q 42 700 42 639 q 63 814 42 761 q 123 905 85 867 q 213 965 161 943 q 322 986 264 986 q 432 965 381 986 q 522 905 483 943 q 581 814 560 867 q 603 700 603 761 q 581 586 603 639 q 522 495 560 533 q 432 435 483 457 q 322 414 381 414 m 322 479 q 401 492 364 479 q 467 531 439 506 q 511 594 494 557 q 528 678 528 631 l 528 722 q 511 806 528 769 q 467 869 494 843 q 401 908 439 894 q 322 921 364 921 q 243 908 281 921 q 178 869 206 894 q 133 806 150 843 q 117 722 117 769 l 117 678 q 133 594 117 631 q 178 531 150 557 q 243 492 206 506 q 322 479 281 479 m 290 556 l 201 556 l 201 846 l 343 846 q 428 818 401 846 q 454 749 454 790 q 440 691 454 714 q 403 657 426 668 l 463 556 l 367 556 l 322 640 l 290 640 l 290 556 m 325 706 q 364 738 364 706 l 364 747 q 325 779 364 779 l 290 779 l 290 706 l 325 706 z "},"™":{"ha":853,"x_min":33,"x_max":781,"o":"m 126 568 l 126 885 l 33 885 l 33 969 l 338 969 l 338 885 l 246 885 l 246 568 l 126 568 m 379 568 l 379 969 l 504 969 l 581 821 l 589 821 l 664 969 l 781 969 l 781 568 l 682 568 l 682 700 l 693 831 l 688 831 l 581 629 l 472 831 l 467 831 l 479 700 l 479 568 l 379 568 z "},"ª":{"ha":624,"x_min":64,"x_max":563,"o":"m 563 458 l 479 458 q 415 477 444 458 q 378 547 385 496 l 372 547 q 319 474 358 499 q 222 450 279 450 q 108 490 151 450 q 64 601 64 529 q 121 718 64 681 q 286 756 178 756 l 364 756 l 364 782 q 344 850 364 828 q 276 872 325 872 q 203 855 232 872 q 156 810 175 838 l 78 879 q 156 951 103 924 q 293 978 210 978 q 451 931 393 978 q 508 788 508 883 l 508 563 l 563 563 l 563 458 m 290 678 q 204 618 204 678 l 204 599 q 224 558 204 571 q 278 544 244 544 q 339 563 314 544 q 364 617 364 581 l 364 678 l 290 678 z "},"º":{"ha":601,"x_min":53,"x_max":550,"o":"m 301 450 q 118 521 183 450 q 53 714 53 592 q 118 907 53 836 q 301 978 183 978 q 485 907 419 978 q 550 714 550 836 q 485 521 550 592 q 301 450 419 450 m 301 558 q 375 587 349 558 q 401 674 401 615 l 401 754 q 375 841 401 813 q 301 869 349 869 q 228 841 254 869 q 201 754 201 813 l 201 674 q 228 587 201 615 q 301 558 254 558 z "},"°":{"ha":653,"x_min":69,"x_max":583,"o":"m 326 464 q 225 483 272 464 q 143 538 178 503 q 89 621 108 574 q 69 725 69 668 q 89 828 69 781 q 143 912 108 876 q 225 967 178 947 q 326 986 272 986 q 428 967 381 986 q 510 912 475 947 q 564 828 544 876 q 583 725 583 781 q 564 621 583 668 q 510 538 544 574 q 428 483 475 503 q 326 464 381 464 m 326 596 q 411 633 379 596 q 443 725 443 669 q 411 817 443 781 q 326 854 379 854 q 242 817 274 854 q 210 725 210 781 q 242 633 210 669 q 326 596 274 596 z "},"′":{"ha":372,"x_min":50,"x_max":322,"o":"m 50 481 l 136 969 l 322 969 l 236 481 l 50 481 z "},"″":{"ha":685,"x_min":50,"x_max":635,"o":"m 50 481 l 136 969 l 322 969 l 236 481 l 50 481 m 363 481 l 449 969 l 635 969 l 549 481 l 363 481 z "},"*":{"ha":835,"x_min":44,"x_max":790,"o":"m 267 331 l 122 428 l 299 640 l 44 717 l 99 875 l 340 774 l 328 1038 l 507 1038 l 494 774 l 736 875 l 790 717 l 536 640 l 711 428 l 567 332 l 417 557 l 267 331 z "},"†":{"ha":725,"x_min":36,"x_max":689,"o":"m 275 -278 l 275 567 l 36 567 l 36 717 l 275 717 l 275 1028 l 450 1028 l 450 717 l 689 717 l 689 567 l 450 567 l 450 -278 l 275 -278 z "},"‡":{"ha":753,"x_min":50,"x_max":703,"o":"m 289 -278 l 289 33 l 50 33 l 50 183 l 289 183 l 289 567 l 50 567 l 50 717 l 289 717 l 289 1028 l 464 1028 l 464 717 l 703 717 l 703 567 l 464 567 l 464 183 l 703 183 l 703 33 l 464 33 l 464 -278 l 289 -278 z "},"#":{"ha":878,"x_min":15,"x_max":863,"o":"m 508 240 l 286 240 l 244 0 l 114 0 l 156 240 l 15 240 l 15 365 l 178 365 l 218 604 l 78 604 l 78 729 l 240 729 l 282 969 l 411 969 l 369 729 l 592 729 l 633 969 l 764 969 l 722 729 l 863 729 l 863 604 l 700 604 l 660 365 l 800 365 l 800 240 l 638 240 l 596 0 l 467 0 l 508 240 m 529 365 l 571 604 l 349 604 l 307 365 l 529 365 z "},"^":{"ha":833,"x_min":58,"x_max":776,"o":"m 611 385 l 417 746 l 408 746 l 214 385 l 58 464 l 336 969 l 503 969 l 776 464 l 611 385 z "},"~":{"ha":833,"x_min":74,"x_max":760,"o":"m 578 294 q 488 308 526 294 q 403 344 449 321 q 329 377 365 364 q 250 390 293 390 q 195 381 218 390 q 142 353 172 372 l 74 469 q 143 531 99 506 q 256 556 188 556 q 346 542 307 556 q 431 506 385 529 q 504 473 468 486 q 583 460 540 460 q 638 469 615 460 q 692 497 661 478 l 760 381 q 690 319 735 344 q 578 294 646 294 z "},"+":{"ha":833,"x_min":93,"x_max":740,"o":"m 328 88 l 328 343 l 93 343 l 93 507 l 328 507 l 328 763 l 506 763 l 506 507 l 740 507 l 740 343 l 506 343 l 506 88 l 328 88 z "},"−":{"ha":833,"x_min":93,"x_max":740,"o":"m 93 343 l 93 507 l 740 507 l 740 343 l 93 343 z "},"±":{"ha":833,"x_min":93,"x_max":740,"o":"m 328 256 l 328 488 l 93 488 l 93 653 l 328 653 l 328 882 l 506 882 l 506 653 l 740 653 l 740 488 l 506 488 l 506 256 l 328 256 m 93 0 l 93 165 l 740 165 l 740 0 l 93 0 z "},"×":{"ha":833,"x_min":110,"x_max":724,"o":"m 417 301 l 224 99 l 110 213 l 303 415 l 110 618 l 224 732 l 417 529 l 610 732 l 724 618 l 531 415 l 724 213 l 610 99 l 417 301 z "},"÷":{"ha":833,"x_min":93,"x_max":739,"o":"m 93 343 l 93 507 l 739 507 l 739 343 l 93 343 m 417 39 q 324 67 351 39 q 296 135 296 96 l 296 168 q 324 235 296 207 q 417 264 351 264 q 510 235 482 264 q 538 168 538 207 l 538 135 q 510 67 538 96 q 417 39 482 39 m 417 583 q 324 612 351 583 q 296 679 296 640 l 296 713 q 324 780 296 751 q 417 808 351 808 q 510 780 482 808 q 538 713 538 751 l 538 679 q 510 612 538 640 q 417 583 482 583 z "},"=":{"ha":833,"x_min":93,"x_max":740,"o":"m 93 503 l 93 667 l 740 667 l 740 503 l 93 503 m 93 181 l 93 344 l 740 344 l 740 181 l 93 181 z "},"≈":{"ha":833,"x_min":74,"x_max":760,"o":"m 578 456 q 488 469 526 456 q 403 506 449 482 q 329 538 365 525 q 250 551 293 551 q 195 542 218 551 q 142 514 172 533 l 74 631 q 143 692 99 667 q 256 717 188 717 q 346 703 307 717 q 431 667 385 690 q 504 634 468 647 q 583 621 540 621 q 638 630 615 621 q 692 658 661 639 l 760 542 q 690 481 735 506 q 578 456 646 456 m 578 133 q 488 147 526 133 q 403 183 449 160 q 329 216 365 203 q 250 229 293 229 q 195 220 218 229 q 142 192 172 211 l 74 308 q 143 369 99 344 q 256 394 188 394 q 346 381 307 394 q 431 344 385 368 q 504 312 468 325 q 583 299 540 299 q 638 308 615 299 q 692 336 661 317 l 760 219 q 690 158 735 183 q 578 133 646 133 z "},"≠":{"ha":833,"x_min":93,"x_max":740,"o":"m 129 51 l 199 181 l 93 181 l 93 342 l 285 342 l 369 506 l 93 506 l 93 667 l 454 667 l 525 799 l 700 799 l 629 667 l 740 667 l 740 506 l 544 506 l 458 342 l 740 342 l 740 181 l 372 181 l 303 51 l 129 51 z "},"<":{"ha":833,"x_min":143,"x_max":690,"o":"m 143 358 l 143 479 l 690 839 l 690 632 l 360 424 l 360 414 l 690 206 l 690 -3 l 143 358 z "},">":{"ha":833,"x_min":143,"x_max":690,"o":"m 143 206 l 474 414 l 474 424 l 143 632 l 143 839 l 690 481 l 690 360 l 143 -3 l 143 206 z "},"≤":{"ha":833,"x_min":143,"x_max":690,"o":"m 143 0 l 143 161 l 690 161 l 690 0 l 143 0 m 690 656 l 388 524 l 388 514 l 690 383 l 690 193 l 143 456 l 143 581 l 690 846 l 690 656 z "},"≥":{"ha":833,"x_min":143,"x_max":690,"o":"m 143 383 l 446 515 l 446 525 l 143 656 l 143 846 l 690 583 l 690 458 l 143 193 l 143 383 m 143 161 l 690 161 l 690 0 l 143 0 l 143 161 z "},"·":{"ha":497,"x_min":126,"x_max":371,"o":"m 249 296 q 156 327 186 296 q 126 407 126 358 l 126 435 q 156 515 126 483 q 249 546 186 546 q 341 515 311 546 q 371 435 371 483 l 371 407 q 341 327 371 358 q 249 296 311 296 z "},"·":{"ha":458,"x_min":107,"x_max":351,"o":"m 229 494 q 137 526 167 494 q 107 606 107 557 l 107 633 q 137 713 107 682 q 229 744 167 744 q 322 713 292 744 q 351 633 351 682 l 351 606 q 322 526 351 557 q 229 494 292 494 z "},"•":{"ha":597,"x_min":86,"x_max":511,"o":"m 299 208 q 200 222 240 208 q 135 260 160 236 q 98 318 110 285 q 86 390 86 351 l 86 440 q 98 513 86 479 q 135 570 110 546 q 200 608 160 594 q 299 622 240 622 q 397 608 357 622 q 463 570 438 594 q 499 513 488 546 q 511 440 511 479 l 511 390 q 499 318 511 351 q 463 260 488 285 q 397 222 438 236 q 299 208 357 208 z "},"◊":{"ha":833,"x_min":74,"x_max":760,"o":"m 358 0 l 74 485 l 358 969 l 475 969 l 760 485 l 475 0 l 358 0 m 421 199 l 578 485 l 421 771 l 413 771 l 256 485 l 413 199 l 421 199 z "},"¬":{"ha":833,"x_min":72,"x_max":740,"o":"m 572 108 l 572 343 l 72 343 l 72 507 l 740 507 l 740 108 l 572 108 z "},"√":{"ha":833,"x_min":19,"x_max":813,"o":"m 288 0 l 125 557 l 19 557 l 19 729 l 256 729 l 344 415 l 407 171 l 418 171 l 481 415 l 642 969 l 813 969 l 532 0 l 288 0 z "},"∫":{"ha":622,"x_min":49,"x_max":574,"o":"m 49 -118 l 208 -118 l 208 819 q 222 903 208 865 q 262 969 235 942 q 330 1013 289 997 q 426 1028 371 1028 l 574 1028 l 574 868 l 414 868 l 414 -69 q 401 -153 414 -115 q 360 -219 388 -192 q 292 -262 333 -247 q 196 -278 251 -278 l 49 -278 l 49 -118 z "},"∞":{"ha":1100,"x_min":31,"x_max":1069,"o":"m 310 118 q 105 193 179 118 q 31 403 31 268 q 105 613 31 538 q 310 688 179 688 q 474 645 403 688 q 579 499 544 603 l 588 499 q 609 575 590 540 q 657 635 628 610 q 721 674 686 660 q 790 688 756 688 q 995 613 921 688 q 1069 403 1069 538 q 995 193 1069 268 q 790 118 921 118 q 626 160 697 118 q 521 307 556 203 l 513 307 q 491 231 510 265 q 443 171 472 196 q 379 132 414 146 q 310 118 344 118 m 310 275 q 413 309 369 275 q 472 386 457 343 q 446 440 461 414 q 410 487 431 467 q 365 519 390 507 q 310 531 339 531 q 236 501 263 531 q 210 415 210 472 l 210 390 q 236 304 210 333 q 310 275 263 275 m 790 275 q 864 304 838 275 q 890 390 890 333 l 890 415 q 864 501 890 472 q 790 531 838 531 q 687 497 731 531 q 628 419 643 463 q 653 365 638 392 q 690 319 669 339 q 735 287 710 299 q 790 275 761 275 z "},"℮":{"ha":992,"x_min":42,"x_max":950,"o":"m 297 122 q 386 83 338 97 q 496 68 435 68 q 703 125 621 68 q 835 275 785 182 l 911 231 q 843 133 883 178 q 750 54 803 88 q 633 2 697 21 q 496 -17 569 -17 q 315 19 397 -17 q 171 119 232 54 q 76 277 110 185 q 42 485 42 369 q 76 692 42 599 q 171 850 110 785 q 315 951 232 915 q 496 986 397 986 q 676 951 593 986 q 821 850 760 915 q 916 692 882 785 q 950 485 950 599 l 297 485 l 297 122 m 694 565 l 694 851 q 606 890 654 875 q 496 906 557 906 q 386 890 435 906 q 297 851 338 875 l 297 565 l 694 565 z "},"ℓ":{"ha":768,"x_min":22,"x_max":739,"o":"m 436 -17 q 332 0 381 -17 q 247 47 283 17 q 189 122 210 78 q 168 221 168 165 l 168 225 l 111 188 l 22 331 q 98 378 60 351 q 158 419 136 404 l 158 757 q 178 890 158 835 q 231 978 197 944 q 312 1028 265 1013 q 411 1044 358 1044 q 598 974 533 1044 q 663 779 663 903 q 643 656 663 714 q 585 544 624 599 q 489 433 547 489 q 353 317 431 378 l 353 260 q 374 184 353 207 q 433 161 396 161 q 502 191 472 161 q 572 304 532 221 l 739 219 q 625 49 699 114 q 436 -17 551 -17 m 417 863 q 373 840 393 863 q 353 764 353 818 l 353 525 q 440 630 406 572 q 474 763 474 688 l 474 776 q 457 842 474 821 q 417 863 440 863 z "},"№":{"ha":1472,"x_min":107,"x_max":1421,"o":"m 1190 497 q 1020 561 1081 497 q 960 742 960 625 q 1020 922 960 858 q 1190 986 1081 986 q 1360 922 1300 986 q 1421 742 1421 858 q 1360 561 1421 625 q 1190 497 1300 497 m 107 0 l 107 969 l 338 969 l 567 525 l 660 314 l 664 314 l 664 969 l 863 969 l 863 0 l 632 0 l 403 444 l 310 656 l 306 656 l 306 0 l 107 0 m 1190 607 q 1251 632 1229 607 q 1274 704 1274 657 l 1274 779 q 1251 851 1274 826 q 1190 876 1229 876 q 1129 851 1151 876 q 1107 779 1107 826 l 1107 704 q 1129 632 1107 657 q 1190 607 1151 607 m 969 303 l 969 413 l 1411 413 l 1411 303 l 969 303 z "},"∂":{"ha":815,"x_min":53,"x_max":761,"o":"m 761 381 q 735 203 761 278 q 663 79 710 128 q 552 7 617 31 q 410 -17 488 -17 q 260 9 326 -17 q 148 83 194 35 q 77 199 101 131 q 53 354 53 268 q 72 496 53 432 q 126 605 90 560 q 211 675 161 650 q 324 700 261 700 q 452 663 400 700 q 538 564 504 626 l 550 569 q 404 778 511 682 q 124 969 297 874 l 425 969 q 549 874 489 929 q 657 747 610 819 q 733 583 704 674 q 761 381 761 492 m 407 136 q 511 179 474 136 q 549 301 549 222 l 549 379 q 511 501 549 458 q 407 544 474 544 q 303 501 340 544 q 265 379 265 458 l 265 301 q 303 179 265 222 q 407 136 340 136 z "},"¤":{"ha":872,"x_min":14,"x_max":858,"o":"m 436 149 q 336 160 383 149 q 253 190 289 171 l 126 63 l 14 174 l 140 300 q 96 485 96 376 q 140 669 96 593 l 14 796 l 126 907 l 253 779 q 336 810 289 799 q 436 821 383 821 q 536 810 489 821 q 619 779 583 799 l 746 907 l 858 796 l 732 669 q 776 485 776 593 q 732 300 776 376 l 858 174 l 746 63 l 619 190 q 536 160 583 171 q 436 149 489 149 m 436 297 q 535 336 500 297 q 571 446 571 375 l 571 524 q 535 633 571 594 q 436 672 500 672 q 337 633 372 672 q 301 524 301 594 l 301 446 q 337 336 301 375 q 436 297 372 297 z "},"¢":{"ha":767,"x_min":57,"x_max":717,"o":"m 329 -158 l 329 -10 q 128 111 199 15 q 57 358 57 207 q 128 606 57 510 q 329 726 200 703 l 329 875 l 482 875 l 482 728 q 621 669 567 714 q 706 558 675 625 l 558 478 q 523 533 544 508 q 469 571 501 558 l 469 144 q 530 183 506 157 q 571 240 554 208 l 717 158 q 627 47 685 92 q 482 -11 569 1 l 482 -158 l 329 -158 m 253 300 q 276 205 253 244 q 343 147 299 165 l 343 569 q 276 512 299 551 q 253 417 253 472 l 253 300 z "},"€":{"ha":871,"x_min":69,"x_max":831,"o":"m 494 -17 q 322 17 400 -17 q 187 115 243 51 q 100 272 131 179 q 69 485 69 365 q 100 697 69 603 q 187 854 131 790 q 322 952 243 918 q 494 986 400 986 q 615 972 564 986 q 703 934 665 957 q 767 881 740 911 q 817 819 794 850 l 665 710 q 595 791 635 764 q 494 818 556 818 q 376 775 428 818 q 303 657 324 732 l 622 657 l 622 532 l 292 532 l 292 438 l 622 438 l 622 313 l 303 313 q 374 192 322 233 q 494 151 425 151 q 679 269 613 151 l 831 158 q 781 95 810 126 q 712 39 753 64 q 617 -1 671 14 q 494 -17 564 -17 z "},"ƒ":{"ha":672,"x_min":7,"x_max":656,"o":"m 24 -26 l 183 -26 l 222 349 l 75 349 l 92 515 l 239 515 l 264 758 q 333 910 274 850 q 503 969 392 969 l 656 969 l 639 810 l 474 810 l 443 515 l 617 515 l 603 349 l 426 349 l 393 24 q 325 -127 383 -68 q 154 -186 267 -186 l 7 -186 l 24 -26 z "},"£":{"ha":808,"x_min":47,"x_max":789,"o":"m 92 0 l 92 189 q 176 256 144 213 q 207 358 207 299 q 201 404 207 383 l 47 404 l 47 571 l 139 571 q 121 633 128 600 q 114 701 114 665 q 138 818 114 765 q 208 908 163 871 q 318 966 254 946 q 461 986 382 986 q 653 944 574 986 q 789 818 733 901 l 636 711 q 557 783 597 761 q 467 804 517 804 q 363 769 399 804 q 326 668 326 733 q 332 617 326 640 q 346 571 338 594 l 618 571 l 618 404 l 410 404 q 412 385 411 394 q 413 365 413 376 q 403 301 413 329 q 377 251 393 272 q 342 215 361 229 q 306 190 324 200 l 306 178 l 769 178 l 769 0 l 92 0 z "},"$":{"ha":835,"x_min":44,"x_max":776,"o":"m 347 -114 l 347 14 q 169 63 242 24 q 44 160 97 101 l 169 274 q 258 205 210 232 q 365 169 307 178 l 365 419 q 140 519 208 451 q 72 689 72 588 q 142 868 72 799 q 347 953 213 938 l 347 1083 l 506 1083 l 506 953 q 651 912 589 943 q 760 828 714 881 l 633 714 q 574 764 608 742 q 489 797 539 786 l 489 567 q 706 471 636 533 q 776 301 776 408 q 710 121 776 199 q 506 19 644 43 l 506 -114 l 347 -114 m 264 694 q 288 632 264 654 q 365 594 313 610 l 365 800 q 288 762 313 789 q 264 694 264 735 m 585 286 q 567 345 585 317 q 489 392 549 374 l 489 172 q 561 216 538 186 q 585 286 585 246 z "},"¥":{"ha":903,"x_min":26,"x_max":876,"o":"m 554 185 l 554 0 l 342 0 l 342 185 l 108 185 l 108 310 l 342 310 l 342 404 l 108 404 l 108 529 l 261 529 l 26 969 l 265 969 l 457 588 l 460 588 l 650 969 l 876 969 l 635 529 l 788 529 l 788 404 l 554 404 l 554 310 l 788 310 l 788 185 l 554 185 z "},"฿":{"ha":924,"x_min":107,"x_max":868,"o":"m 542 -125 l 383 -125 l 383 28 l 107 28 l 107 942 l 383 942 l 383 1083 l 542 1083 l 542 942 l 593 942 q 769 878 706 942 q 833 707 833 814 q 790 567 833 611 q 656 511 747 522 l 656 503 q 739 487 700 500 q 806 448 778 474 q 851 383 835 422 q 868 289 868 344 q 850 187 868 235 q 801 103 832 139 q 726 48 769 68 q 632 28 682 28 l 542 28 l 542 -125 m 397 567 l 397 774 l 306 774 l 306 567 l 397 567 m 529 567 l 543 567 q 606 588 583 567 q 628 649 628 608 l 628 692 q 606 753 628 732 q 543 774 583 774 l 529 774 l 529 567 m 397 196 l 397 406 l 306 406 l 306 196 l 397 196 m 529 196 l 576 196 q 640 217 617 196 q 663 279 663 239 l 663 322 q 640 384 663 363 q 576 406 617 406 l 529 406 l 529 196 z "},"₡":{"ha":857,"x_min":69,"x_max":817,"o":"m 449 13 q 419 17 433 14 q 390 22 404 19 l 376 -114 l 279 -114 l 297 54 q 131 217 193 107 q 69 486 69 326 q 155 793 69 675 q 389 946 240 911 l 403 1083 l 500 1083 l 488 958 l 504 958 q 526 958 515 958 q 547 957 536 958 l 560 1083 l 657 1083 l 642 938 q 742 881 701 918 q 817 800 782 844 l 675 697 q 621 757 653 735 l 561 183 q 624 221 594 196 q 672 282 653 246 l 815 176 q 774 124 799 150 q 715 75 749 97 q 638 36 681 53 q 544 14 596 19 l 532 -114 l 435 -114 l 449 13 m 469 799 l 406 188 q 467 172 436 174 l 531 794 q 506 798 521 797 q 481 799 492 799 l 469 799 m 281 404 q 291 324 281 361 q 321 260 301 288 l 371 761 q 306 682 331 732 q 281 565 281 632 l 281 404 z "},"₤":{"ha":808,"x_min":47,"x_max":789,"o":"m 769 0 l 92 0 l 92 182 q 163 237 135 201 q 203 315 192 272 l 47 315 l 47 440 l 192 440 q 174 488 185 464 q 154 535 164 511 l 47 535 l 47 660 l 117 660 q 115 681 115 671 q 114 701 114 690 q 138 818 114 765 q 208 908 163 871 q 318 966 254 946 q 461 986 382 986 q 653 944 574 986 q 789 818 733 901 l 636 717 q 557 788 597 767 q 467 810 517 810 q 363 772 399 810 q 326 668 326 733 l 326 660 l 590 660 l 590 535 l 361 535 q 383 488 372 511 q 400 440 393 465 l 590 440 l 590 315 l 407 315 q 365 232 396 265 q 306 183 335 199 l 306 171 l 769 171 l 769 0 z "},"₦":{"ha":1078,"x_min":24,"x_max":1054,"o":"m 529 317 l 331 317 l 331 0 l 146 0 l 146 317 l 24 317 l 24 442 l 146 442 l 146 536 l 24 536 l 24 661 l 146 661 l 146 969 l 388 969 l 543 661 l 749 661 l 749 969 l 931 969 l 931 661 l 1054 661 l 1054 536 l 931 536 l 931 442 l 1054 442 l 1054 317 l 931 317 l 931 0 l 688 0 l 529 317 m 469 436 l 335 714 l 331 714 l 331 436 l 469 436 m 744 256 l 749 256 l 749 542 l 604 542 l 744 256 z "},"₨":{"ha":1240,"x_min":107,"x_max":1196,"o":"m 107 0 l 107 969 l 435 969 q 649 894 569 969 q 728 685 728 819 q 701 548 728 610 q 625 444 674 486 l 717 271 q 794 174 753 204 q 881 143 835 143 q 945 160 922 143 q 968 200 968 176 q 956 247 968 225 q 913 296 944 268 l 886 319 q 801 417 831 369 q 772 529 772 465 q 790 619 772 579 q 842 688 808 660 q 921 730 875 715 q 1021 744 967 744 q 1111 735 1065 744 q 1196 703 1157 726 l 1129 568 q 1044 593 1090 593 q 990 580 1013 593 q 967 536 967 567 q 987 488 967 508 q 1038 439 1007 467 l 1064 415 q 1146 319 1119 364 q 1172 208 1172 274 q 1156 122 1172 163 q 1102 50 1139 81 q 1006 1 1065 19 q 863 -17 947 -17 q 670 25 749 -17 q 543 167 592 67 l 438 379 l 318 379 l 318 0 l 107 0 m 407 550 q 483 573 456 550 q 510 644 510 596 l 510 704 q 483 776 510 753 q 407 799 456 799 l 318 799 l 318 550 l 407 550 z "},"₩":{"ha":1421,"x_min":53,"x_max":1368,"o":"m 810 317 l 608 317 l 533 0 l 292 0 l 219 317 l 53 317 l 53 442 l 190 442 l 169 536 l 53 536 l 53 661 l 140 661 l 69 969 l 278 969 l 339 661 l 526 661 l 599 969 l 829 969 l 901 661 l 1089 661 l 1151 969 l 1351 969 l 1279 661 l 1368 661 l 1368 536 l 1250 536 l 1228 442 l 1368 442 l 1368 317 l 1199 317 l 1124 0 l 883 0 l 810 317 m 489 497 l 499 542 l 363 542 l 371 496 l 424 229 l 428 229 l 489 497 m 1004 229 l 1056 493 l 1065 542 l 929 542 l 939 501 l 1000 229 l 1004 229 m 636 436 l 782 436 l 769 490 l 711 740 l 707 740 l 649 492 l 636 436 z "},"₪":{"ha":1272,"x_min":107,"x_max":1165,"o":"m 397 701 l 585 701 l 585 171 l 885 171 q 956 201 933 171 q 978 276 978 231 l 978 969 l 1165 969 l 1165 275 q 1095 68 1165 136 q 913 0 1025 0 l 397 0 l 397 701 m 107 0 l 107 969 l 622 969 q 805 901 735 969 q 875 694 875 833 l 875 268 l 688 268 l 688 693 q 667 769 688 739 q 594 799 646 799 l 294 799 l 294 0 l 107 0 z "},"₫":{"ha":800,"x_min":50,"x_max":757,"o":"m 469 331 l 461 331 q 435 288 450 308 q 397 252 419 268 q 344 227 375 236 q 275 218 314 218 q 184 233 225 218 q 113 281 143 249 q 67 365 83 314 q 50 485 50 415 q 67 605 50 554 q 113 688 83 656 q 184 736 143 721 q 275 751 225 751 q 397 719 354 751 q 461 638 439 686 l 469 638 l 469 824 l 300 824 l 300 949 l 469 949 l 469 1028 l 675 1028 l 675 949 l 757 949 l 757 824 l 675 824 l 675 229 l 469 229 l 469 331 m 360 363 q 442 386 414 363 q 469 439 469 410 l 469 532 q 442 585 469 561 q 360 608 414 608 q 278 581 306 608 q 250 508 250 553 l 250 463 q 278 390 250 418 q 360 363 306 363 m 74 0 l 74 146 l 700 146 l 700 0 l 74 0 z "},"₭":{"ha":950,"x_min":8,"x_max":933,"o":"m 343 0 l 132 0 l 132 404 l 8 404 l 8 571 l 132 571 l 132 969 l 343 969 l 343 571 l 396 571 l 657 969 l 896 969 l 615 571 l 867 571 l 867 404 l 633 404 l 933 0 l 683 0 l 399 404 l 343 404 l 343 0 z "},"₮":{"ha":839,"x_min":51,"x_max":788,"o":"m 525 289 l 525 0 l 314 0 l 314 189 l 147 110 l 147 235 l 314 314 l 314 407 l 147 329 l 147 453 l 314 532 l 314 799 l 51 799 l 51 969 l 788 969 l 788 799 l 525 799 l 525 632 l 693 711 l 693 586 l 525 507 l 525 414 l 693 493 l 693 368 l 525 289 z "},"₱":{"ha":969,"x_min":22,"x_max":947,"o":"m 357 0 l 146 0 l 146 432 l 22 432 l 22 543 l 146 543 l 146 638 l 22 638 l 22 749 l 146 749 l 146 969 l 538 969 q 713 919 643 969 q 810 749 783 868 l 947 749 l 947 638 l 822 638 q 824 616 824 626 q 824 594 824 606 q 824 568 824 581 q 822 543 824 556 l 947 543 l 947 432 l 806 432 q 709 265 778 319 q 536 210 640 210 l 357 210 l 357 0 m 357 740 l 610 740 q 577 804 603 781 q 511 828 551 828 l 357 828 l 357 740 m 613 538 l 613 643 l 357 643 l 357 538 l 613 538 m 511 349 q 577 373 551 349 q 610 440 603 397 l 357 440 l 357 349 l 511 349 z "},"₲":{"ha":926,"x_min":69,"x_max":854,"o":"m 274 -114 l 301 44 q 134 201 199 90 q 69 483 69 311 q 97 679 69 593 q 176 826 125 765 q 300 919 228 886 q 461 957 372 953 l 482 1083 l 642 1083 l 617 939 q 838 746 764 894 l 675 671 q 637 735 661 707 q 575 781 613 764 l 533 538 l 854 538 l 854 347 q 816 192 854 256 q 719 88 778 128 q 592 29 661 47 q 463 11 524 11 l 456 11 l 433 -114 l 274 -114 m 281 413 q 297 296 281 343 q 344 219 314 249 l 446 796 q 324 720 368 782 q 281 558 281 658 l 281 413 m 506 378 l 469 171 l 479 171 q 550 181 517 171 q 608 211 583 190 q 649 264 633 232 q 664 340 664 296 l 664 378 l 506 378 z "},"₴":{"ha":894,"x_min":53,"x_max":842,"o":"m 465 -17 q 327 7 386 -17 q 228 71 268 31 q 169 164 189 111 q 149 276 149 217 q 149 297 149 288 q 151 317 150 307 l 53 317 l 53 442 l 203 442 l 382 536 l 53 536 l 53 661 l 551 661 q 558 706 558 682 q 527 792 558 765 q 439 818 496 818 q 344 798 389 818 q 267 742 299 778 l 164 871 q 284 954 208 922 q 447 986 360 986 q 574 965 518 986 q 667 908 629 944 q 726 825 706 872 q 746 726 746 778 q 744 694 746 711 q 739 661 743 678 l 842 661 l 842 536 l 676 536 l 504 442 l 842 442 l 842 317 l 340 317 q 336 282 336 300 q 373 181 336 214 q 474 147 410 147 q 567 169 522 147 q 661 246 611 192 l 767 117 q 642 21 718 58 q 465 -17 565 -17 z "},"₵":{"ha":843,"x_min":69,"x_max":803,"o":"m 276 -114 l 304 50 q 133 211 196 100 q 69 485 69 322 q 98 676 69 590 q 178 822 126 761 q 303 917 231 882 q 463 957 375 951 l 485 1083 l 644 1083 l 619 942 q 728 884 685 922 q 803 800 772 846 l 660 697 q 576 779 628 753 l 471 171 l 489 171 q 658 282 599 171 l 801 178 q 755 119 782 149 q 690 65 728 89 q 602 26 651 40 q 489 11 553 11 l 457 11 l 436 -114 l 276 -114 m 281 406 q 298 303 281 347 q 347 228 315 258 l 447 796 q 328 721 375 781 q 281 565 281 661 l 281 406 z "},"₸":{"ha":839,"x_min":51,"x_max":788,"o":"m 51 824 l 51 969 l 788 969 l 788 824 l 51 824 m 525 564 l 525 0 l 314 0 l 314 564 l 51 564 l 51 710 l 788 710 l 788 564 l 525 564 z "},"₹":{"ha":874,"x_min":86,"x_max":822,"o":"m 481 0 l 251 304 l 86 304 l 86 450 l 310 450 q 446 564 436 450 l 86 564 l 86 710 l 446 710 q 407 801 440 778 q 310 824 374 824 l 86 824 l 86 969 l 822 969 l 822 824 l 539 824 l 539 818 q 601 785 571 814 q 646 710 631 756 l 822 710 l 822 564 l 651 564 q 597 419 639 482 q 475 326 554 357 l 738 0 l 481 0 z "},"₺":{"ha":849,"x_min":24,"x_max":813,"o":"m 146 296 l 24 238 l 24 363 l 146 421 l 146 515 l 24 457 l 24 581 l 146 639 l 146 969 l 357 969 l 357 739 l 567 839 l 567 714 l 357 615 l 357 521 l 567 619 l 567 496 l 357 396 l 357 171 l 425 171 q 507 182 472 171 q 565 222 542 193 q 599 300 588 251 q 611 424 611 349 l 813 424 q 792 258 813 335 q 727 123 771 181 q 615 33 683 65 q 451 0 546 0 l 146 0 l 146 296 z "},"₽":{"ha":918,"x_min":22,"x_max":868,"o":"m 356 143 l 356 0 l 144 0 l 144 143 l 22 143 l 22 289 l 144 289 l 144 403 l 22 403 l 22 549 l 144 549 l 144 969 l 576 969 q 790 896 713 969 q 868 686 868 822 q 790 476 868 550 q 576 403 713 403 l 356 403 l 356 289 l 653 289 l 653 143 l 356 143 m 356 549 l 550 549 q 625 574 599 549 q 651 647 651 600 l 651 708 q 624 777 651 756 q 550 799 597 799 l 356 799 l 356 549 z "},"₿":{"ha":924,"x_min":107,"x_max":868,"o":"m 492 28 l 399 28 l 399 -114 l 246 -114 l 246 28 l 107 28 l 107 942 l 246 942 l 246 1083 l 399 1083 l 399 942 l 492 942 l 492 1083 l 644 1083 l 644 938 q 784 862 735 922 q 833 707 833 801 q 790 567 833 611 q 656 511 747 522 l 656 503 q 742 486 703 500 q 809 447 781 472 q 853 382 838 421 q 868 289 868 343 q 851 190 868 236 q 804 108 835 143 q 733 52 774 74 q 644 28 692 31 l 644 -114 l 492 -114 l 492 28 m 306 567 l 543 567 q 606 587 583 567 q 628 647 628 607 l 628 693 q 606 753 628 733 q 543 774 583 774 l 306 774 l 306 567 m 306 196 l 576 196 q 640 217 617 196 q 663 278 663 238 l 663 324 q 640 385 663 364 q 576 406 617 406 l 306 406 l 306 196 z "},"ﬁ":{"ha":899,"x_min":29,"x_max":819,"o":"m 132 569 l 29 569 l 29 729 l 132 729 l 132 815 q 188 974 132 921 q 350 1028 243 1028 l 483 1028 l 483 868 l 338 868 l 338 729 l 803 729 l 803 0 l 597 0 l 597 569 l 338 569 l 338 0 l 132 0 l 132 569 m 700 807 q 609 835 638 807 q 581 908 581 864 l 581 939 q 609 1012 581 983 q 700 1040 638 1040 q 791 1012 763 1040 q 819 939 819 983 l 819 908 q 791 835 819 864 q 700 807 763 807 z "},"ﬂ":{"ha":922,"x_min":29,"x_max":894,"o":"m 132 569 l 29 569 l 29 729 l 132 729 l 132 815 q 188 974 132 921 q 350 1028 243 1028 l 483 1028 l 483 868 l 338 868 l 338 729 l 483 729 l 483 569 l 338 569 l 338 0 l 132 0 l 132 569 m 801 0 q 647 51 696 0 q 597 200 597 103 l 597 1028 l 803 1028 l 803 160 l 894 160 l 894 0 l 801 0 z "},"á":{"ha":790,"x_min":47,"x_max":749,"o":"m 635 0 q 542 35 579 0 q 496 128 506 69 l 488 128 q 414 20 471 57 q 274 -17 357 -17 q 106 42 164 -17 q 47 196 47 100 q 131 367 47 311 q 360 424 215 424 l 475 424 l 475 469 q 447 553 475 522 q 354 585 419 585 q 257 558 293 585 q 197 499 221 532 l 75 607 q 187 709 119 672 q 369 746 254 746 q 603 678 525 746 q 681 479 681 610 l 681 160 l 749 160 l 749 0 l 635 0 m 350 126 q 438 149 401 126 q 475 221 475 171 l 475 307 l 375 307 q 254 225 254 307 l 254 204 q 279 145 254 164 q 350 126 304 126 m 396 804 l 274 864 l 411 1133 l 582 1049 l 396 804 z "},"ă":{"ha":790,"x_min":47,"x_max":749,"o":"m 635 0 q 542 35 579 0 q 496 128 506 69 l 488 128 q 414 20 471 57 q 274 -17 357 -17 q 106 42 164 -17 q 47 196 47 100 q 131 367 47 311 q 360 424 215 424 l 475 424 l 475 469 q 447 553 475 522 q 354 585 419 585 q 257 558 293 585 q 197 499 221 532 l 75 607 q 187 709 119 672 q 369 746 254 746 q 603 678 525 746 q 681 479 681 610 l 681 160 l 749 160 l 749 0 l 635 0 m 350 126 q 438 149 401 126 q 475 221 475 171 l 475 307 l 375 307 q 254 225 254 307 l 254 204 q 279 145 254 164 q 350 126 304 126 m 374 804 q 268 827 313 804 q 193 885 224 850 q 142 961 163 919 q 110 1040 122 1003 l 222 1099 l 250 1053 q 309 975 281 1003 q 374 947 338 947 q 439 975 410 947 q 499 1053 468 1003 l 526 1099 l 638 1040 q 604 961 625 1003 q 551 885 583 919 q 476 827 519 850 q 374 804 432 804 z "},"ǎ":{"ha":790,"x_min":47,"x_max":749,"o":"m 635 0 q 542 35 579 0 q 496 128 506 69 l 488 128 q 414 20 471 57 q 274 -17 357 -17 q 106 42 164 -17 q 47 196 47 100 q 131 367 47 311 q 360 424 215 424 l 475 424 l 475 469 q 447 553 475 522 q 354 585 419 585 q 257 558 293 585 q 197 499 221 532 l 75 607 q 187 709 119 672 q 369 746 254 746 q 603 678 525 746 q 681 479 681 610 l 681 160 l 749 160 l 749 0 l 635 0 m 350 126 q 438 149 401 126 q 475 221 475 171 l 475 307 l 375 307 q 254 225 254 307 l 254 204 q 279 145 254 164 q 350 126 304 126 m 288 815 l 104 1036 l 206 1117 l 374 957 l 542 1117 l 643 1036 l 460 815 l 288 815 z "},"â":{"ha":790,"x_min":47,"x_max":749,"o":"m 635 0 q 542 35 579 0 q 496 128 506 69 l 488 128 q 414 20 471 57 q 274 -17 357 -17 q 106 42 164 -17 q 47 196 47 100 q 131 367 47 311 q 360 424 215 424 l 475 424 l 475 469 q 447 553 475 522 q 354 585 419 585 q 257 558 293 585 q 197 499 221 532 l 75 607 q 187 709 119 672 q 369 746 254 746 q 603 678 525 746 q 681 479 681 610 l 681 160 l 749 160 l 749 0 l 635 0 m 350 126 q 438 149 401 126 q 475 221 475 171 l 475 307 l 375 307 q 254 225 254 307 l 254 204 q 279 145 254 164 q 350 126 304 126 m 460 1104 l 643 883 l 542 803 l 374 963 l 206 803 l 104 883 l 288 1104 l 460 1104 z "},"ä":{"ha":790,"x_min":47,"x_max":749,"o":"m 635 0 q 542 35 579 0 q 496 128 506 69 l 488 128 q 414 20 471 57 q 274 -17 357 -17 q 106 42 164 -17 q 47 196 47 100 q 131 367 47 311 q 360 424 215 424 l 475 424 l 475 469 q 447 553 475 522 q 354 585 419 585 q 257 558 293 585 q 197 499 221 532 l 75 607 q 187 709 119 672 q 369 746 254 746 q 603 678 525 746 q 681 479 681 610 l 681 160 l 749 160 l 749 0 l 635 0 m 350 126 q 438 149 401 126 q 475 221 475 171 l 475 307 l 375 307 q 254 225 254 307 l 254 204 q 279 145 254 164 q 350 126 304 126 m 221 833 q 134 859 158 833 q 110 921 110 885 l 110 956 q 134 1017 110 992 q 221 1043 158 1043 q 308 1017 283 1043 q 332 956 332 992 l 332 921 q 308 859 332 885 q 221 833 283 833 m 526 833 q 440 859 464 833 q 415 921 415 885 l 415 956 q 440 1017 415 992 q 526 1043 464 1043 q 613 1017 589 1043 q 638 956 638 992 l 638 921 q 613 859 638 885 q 526 833 589 833 z "},"ạ":{"ha":790,"x_min":47,"x_max":749,"o":"m 635 0 q 542 35 579 0 q 496 128 506 69 l 488 128 q 414 20 471 57 q 274 -17 357 -17 q 106 42 164 -17 q 47 196 47 100 q 131 367 47 311 q 360 424 215 424 l 475 424 l 475 469 q 447 553 475 522 q 354 585 419 585 q 257 558 293 585 q 197 499 221 532 l 75 607 q 187 709 119 672 q 369 746 254 746 q 603 678 525 746 q 681 479 681 610 l 681 160 l 749 160 l 749 0 l 635 0 m 350 126 q 438 149 401 126 q 475 221 475 171 l 475 307 l 375 307 q 254 225 254 307 l 254 204 q 279 145 254 164 q 350 126 304 126 m 374 -283 q 286 -258 311 -283 q 261 -196 261 -232 l 261 -160 q 286 -98 261 -124 q 374 -72 311 -72 q 461 -98 436 -72 q 486 -160 486 -124 l 486 -196 q 461 -258 486 -232 q 374 -283 436 -283 z "},"à":{"ha":790,"x_min":47,"x_max":749,"o":"m 635 0 q 542 35 579 0 q 496 128 506 69 l 488 128 q 414 20 471 57 q 274 -17 357 -17 q 106 42 164 -17 q 47 196 47 100 q 131 367 47 311 q 360 424 215 424 l 475 424 l 475 469 q 447 553 475 522 q 354 585 419 585 q 257 558 293 585 q 197 499 221 532 l 75 607 q 187 709 119 672 q 369 746 254 746 q 603 678 525 746 q 681 479 681 610 l 681 160 l 749 160 l 749 0 l 635 0 m 350 126 q 438 149 401 126 q 475 221 475 171 l 475 307 l 375 307 q 254 225 254 307 l 254 204 q 279 145 254 164 q 350 126 304 126 m 165 1049 l 336 1133 l 474 864 l 351 804 l 165 1049 z "},"ả":{"ha":790,"x_min":47,"x_max":749,"o":"m 635 0 q 542 35 579 0 q 496 128 506 69 l 488 128 q 414 20 471 57 q 274 -17 357 -17 q 106 42 164 -17 q 47 196 47 100 q 131 367 47 311 q 360 424 215 424 l 475 424 l 475 469 q 447 553 475 522 q 354 585 419 585 q 257 558 293 585 q 197 499 221 532 l 75 607 q 187 709 119 672 q 369 746 254 746 q 603 678 525 746 q 681 479 681 610 l 681 160 l 749 160 l 749 0 l 635 0 m 350 126 q 438 149 401 126 q 475 221 475 171 l 475 307 l 375 307 q 254 225 254 307 l 254 204 q 279 145 254 164 q 350 126 304 126 m 206 1114 l 404 1114 q 469 1106 443 1114 q 511 1083 496 1097 q 533 1051 526 1069 q 540 1013 540 1033 q 518 926 540 972 q 461 838 496 879 l 422 790 l 318 839 l 375 967 l 206 967 l 206 1114 z "},"ā":{"ha":790,"x_min":47,"x_max":749,"o":"m 635 0 q 542 35 579 0 q 496 128 506 69 l 488 128 q 414 20 471 57 q 274 -17 357 -17 q 106 42 164 -17 q 47 196 47 100 q 131 367 47 311 q 360 424 215 424 l 475 424 l 475 469 q 447 553 475 522 q 354 585 419 585 q 257 558 293 585 q 197 499 221 532 l 75 607 q 187 709 119 672 q 369 746 254 746 q 603 678 525 746 q 681 479 681 610 l 681 160 l 749 160 l 749 0 l 635 0 m 350 126 q 438 149 401 126 q 475 221 475 171 l 475 307 l 375 307 q 254 225 254 307 l 254 204 q 279 145 254 164 q 350 126 304 126 m 161 1010 l 586 1010 l 586 867 l 161 867 l 161 1010 z "},"ą":{"ha":790,"x_min":47,"x_max":793,"o":"m 749 0 q 666 -53 697 -32 q 618 -92 635 -75 q 596 -121 601 -108 q 590 -146 590 -133 q 606 -182 590 -172 q 643 -192 622 -192 q 686 -181 668 -192 q 719 -153 704 -169 l 793 -224 q 733 -276 775 -257 q 624 -294 690 -294 q 558 -288 589 -294 q 503 -269 526 -282 q 465 -233 479 -256 q 451 -176 451 -210 q 495 -80 451 -118 q 617 -6 539 -42 l 614 1 q 535 42 567 8 q 496 128 504 75 l 488 128 q 414 20 471 57 q 274 -17 357 -17 q 106 42 164 -17 q 47 196 47 100 q 131 367 47 311 q 360 424 215 424 l 475 424 l 475 469 q 447 553 475 522 q 354 585 419 585 q 257 558 293 585 q 197 499 221 532 l 75 607 q 187 709 119 672 q 369 746 254 746 q 603 678 525 746 q 681 479 681 610 l 681 161 l 749 161 l 749 0 m 375 307 q 254 225 254 307 l 254 204 q 279 145 254 164 q 350 126 304 126 q 438 149 401 126 q 475 221 475 171 l 475 307 l 375 307 z "},"å":{"ha":790,"x_min":47,"x_max":749,"o":"m 635 0 q 542 35 579 0 q 496 128 506 69 l 488 128 q 414 20 471 57 q 274 -17 357 -17 q 106 42 164 -17 q 47 196 47 100 q 131 367 47 311 q 360 424 215 424 l 475 424 l 475 469 q 447 553 475 522 q 354 585 419 585 q 257 558 293 585 q 197 499 221 532 l 75 607 q 187 709 119 672 q 369 746 254 746 q 603 678 525 746 q 681 479 681 610 l 681 160 l 749 160 l 749 0 l 635 0 m 350 126 q 438 149 401 126 q 475 221 475 171 l 475 307 l 375 307 q 254 225 254 307 l 254 204 q 279 145 254 164 q 350 126 304 126 m 374 775 q 293 790 331 775 q 228 831 256 804 q 184 894 200 857 q 168 974 168 931 q 184 1053 168 1017 q 228 1117 200 1090 q 293 1158 256 1143 q 374 1172 331 1172 q 454 1158 417 1172 q 519 1117 492 1143 q 563 1053 547 1090 q 579 974 579 1017 q 563 894 579 931 q 519 831 547 857 q 454 790 492 804 q 374 775 417 775 m 374 879 q 426 898 408 879 q 444 950 444 917 l 444 997 q 426 1049 444 1031 q 374 1068 408 1068 q 321 1049 339 1068 q 303 997 303 1031 l 303 950 q 321 898 303 917 q 374 879 339 879 z "},"ǻ":{"ha":790,"x_min":47,"x_max":749,"o":"m 635 0 q 542 35 579 0 q 496 128 506 69 l 488 128 q 414 20 471 57 q 274 -17 357 -17 q 106 42 164 -17 q 47 196 47 100 q 131 367 47 311 q 360 424 215 424 l 475 424 l 475 469 q 447 553 475 522 q 354 585 419 585 q 257 558 293 585 q 197 499 221 532 l 75 607 q 187 709 119 672 q 369 746 254 746 q 603 678 525 746 q 681 479 681 610 l 681 160 l 749 160 l 749 0 l 635 0 m 350 126 q 438 149 401 126 q 475 221 475 171 l 475 307 l 375 307 q 254 225 254 307 l 254 204 q 279 145 254 164 q 350 126 304 126 m 364 1132 l 290 1211 l 469 1374 l 572 1261 l 364 1132 m 374 783 q 291 794 329 783 q 224 827 253 806 q 179 879 196 849 q 163 950 163 910 q 179 1020 163 989 q 224 1073 196 1051 q 291 1106 253 1094 q 374 1117 329 1117 q 456 1106 418 1117 q 523 1073 494 1094 q 568 1020 551 1051 q 585 950 585 989 q 568 879 585 910 q 523 827 551 849 q 456 794 494 806 q 374 783 418 783 m 374 881 q 450 943 450 881 l 450 957 q 374 1019 450 1019 q 297 957 297 1019 l 297 943 q 374 881 297 881 z "},"ã":{"ha":790,"x_min":47,"x_max":749,"o":"m 635 0 q 542 35 579 0 q 496 128 506 69 l 488 128 q 414 20 471 57 q 274 -17 357 -17 q 106 42 164 -17 q 47 196 47 100 q 131 367 47 311 q 360 424 215 424 l 475 424 l 475 469 q 447 553 475 522 q 354 585 419 585 q 257 558 293 585 q 197 499 221 532 l 75 607 q 187 709 119 672 q 369 746 254 746 q 603 678 525 746 q 681 479 681 610 l 681 160 l 749 160 l 749 0 l 635 0 m 350 126 q 438 149 401 126 q 475 221 475 171 l 475 307 l 375 307 q 254 225 254 307 l 254 204 q 279 145 254 164 q 350 126 304 126 m 479 835 q 423 843 447 835 q 372 863 399 851 q 317 884 342 875 q 264 893 292 893 q 222 885 240 893 q 182 858 204 876 l 110 953 q 174 1016 135 990 q 268 1042 213 1042 q 324 1033 300 1042 q 375 1014 349 1025 q 431 992 406 1001 q 483 983 456 983 q 525 992 507 983 q 565 1018 543 1000 l 638 924 q 574 860 613 886 q 479 835 535 835 z "},"ắ":{"ha":790,"x_min":47,"x_max":749,"o":"m 635 0 q 542 35 579 0 q 496 128 506 69 l 488 128 q 414 20 471 57 q 274 -17 357 -17 q 106 42 164 -17 q 47 196 47 100 q 131 367 47 311 q 360 424 215 424 l 475 424 l 475 469 q 447 553 475 522 q 354 585 419 585 q 257 558 293 585 q 197 499 221 532 l 75 607 q 187 709 119 672 q 369 746 254 746 q 603 678 525 746 q 681 479 681 610 l 681 160 l 749 160 l 749 0 l 635 0 m 350 126 q 438 149 401 126 q 475 221 475 171 l 475 307 l 375 307 q 254 225 254 307 l 254 204 q 279 145 254 164 q 350 126 304 126 m 372 794 q 269 813 314 794 q 190 863 224 832 q 134 929 157 893 q 97 1001 111 965 l 201 1067 l 229 1025 q 303 953 265 971 q 372 935 340 935 q 444 953 408 935 q 515 1025 479 972 l 543 1067 l 647 1001 q 610 929 633 965 q 554 863 588 893 q 476 813 521 832 q 372 794 431 794 m 400 1018 l 290 1072 l 424 1342 l 581 1263 l 400 1018 z "},"ặ":{"ha":790,"x_min":47,"x_max":749,"o":"m 635 0 q 542 35 579 0 q 496 128 506 69 l 488 128 q 414 20 471 57 q 274 -17 357 -17 q 106 42 164 -17 q 47 196 47 100 q 131 367 47 311 q 360 424 215 424 l 475 424 l 475 469 q 447 553 475 522 q 354 585 419 585 q 257 558 293 585 q 197 499 221 532 l 75 607 q 187 709 119 672 q 369 746 254 746 q 603 678 525 746 q 681 479 681 610 l 681 160 l 749 160 l 749 0 l 635 0 m 350 126 q 438 149 401 126 q 475 221 475 171 l 475 307 l 375 307 q 254 225 254 307 l 254 204 q 279 145 254 164 q 350 126 304 126 m 374 804 q 268 827 313 804 q 193 885 224 850 q 142 961 163 919 q 110 1040 122 1003 l 222 1099 l 250 1053 q 309 975 281 1003 q 374 947 338 947 q 439 975 410 947 q 499 1053 468 1003 l 526 1099 l 638 1040 q 604 961 625 1003 q 551 885 583 919 q 476 827 519 850 q 374 804 432 804 m 374 -283 q 286 -258 311 -283 q 261 -196 261 -232 l 261 -160 q 286 -98 261 -124 q 374 -72 311 -72 q 461 -98 436 -72 q 486 -160 486 -124 l 486 -196 q 461 -258 486 -232 q 374 -283 436 -283 z "},"ằ":{"ha":790,"x_min":47,"x_max":749,"o":"m 635 0 q 542 35 579 0 q 496 128 506 69 l 488 128 q 414 20 471 57 q 274 -17 357 -17 q 106 42 164 -17 q 47 196 47 100 q 131 367 47 311 q 360 424 215 424 l 475 424 l 475 469 q 447 553 475 522 q 354 585 419 585 q 257 558 293 585 q 197 499 221 532 l 75 607 q 187 709 119 672 q 369 746 254 746 q 603 678 525 746 q 681 479 681 610 l 681 160 l 749 160 l 749 0 l 635 0 m 350 126 q 438 149 401 126 q 475 221 475 171 l 475 307 l 375 307 q 254 225 254 307 l 254 204 q 279 145 254 164 q 350 126 304 126 m 372 794 q 269 813 314 794 q 190 863 224 832 q 134 929 157 893 q 97 1001 111 965 l 201 1067 l 229 1025 q 303 953 265 971 q 372 935 340 935 q 444 953 408 935 q 515 1025 479 972 l 543 1067 l 647 1001 q 610 929 633 965 q 554 863 588 893 q 476 813 521 832 q 372 794 431 794 m 168 1263 l 322 1342 l 456 1075 l 344 1018 l 168 1263 z "},"ẳ":{"ha":790,"x_min":47,"x_max":749,"o":"m 635 0 q 542 35 579 0 q 496 128 506 69 l 488 128 q 414 20 471 57 q 274 -17 357 -17 q 106 42 164 -17 q 47 196 47 100 q 131 367 47 311 q 360 424 215 424 l 475 424 l 475 469 q 447 553 475 522 q 354 585 419 585 q 257 558 293 585 q 197 499 221 532 l 75 607 q 187 709 119 672 q 369 746 254 746 q 603 678 525 746 q 681 479 681 610 l 681 160 l 749 160 l 749 0 l 635 0 m 350 126 q 438 149 401 126 q 475 221 475 171 l 475 307 l 375 307 q 254 225 254 307 l 254 204 q 279 145 254 164 q 350 126 304 126 m 372 794 q 269 813 314 794 q 190 863 224 832 q 134 929 157 893 q 97 1001 111 965 l 201 1067 l 229 1025 q 303 953 265 971 q 372 935 340 935 q 444 953 408 935 q 515 1025 479 972 l 543 1067 l 647 1001 q 610 929 633 965 q 554 863 588 893 q 476 813 521 832 q 372 794 431 794 m 192 1322 l 381 1322 q 446 1314 419 1322 q 488 1292 472 1306 q 510 1260 503 1278 q 517 1222 517 1242 q 491 1135 517 1181 q 431 1046 465 1089 l 393 1000 l 301 1044 l 361 1182 l 192 1182 l 192 1322 z "},"ẵ":{"ha":790,"x_min":47,"x_max":749,"o":"m 635 0 q 542 35 579 0 q 496 128 506 69 l 488 128 q 414 20 471 57 q 274 -17 357 -17 q 106 42 164 -17 q 47 196 47 100 q 131 367 47 311 q 360 424 215 424 l 475 424 l 475 469 q 447 553 475 522 q 354 585 419 585 q 257 558 293 585 q 197 499 221 532 l 75 607 q 187 709 119 672 q 369 746 254 746 q 603 678 525 746 q 681 479 681 610 l 681 160 l 749 160 l 749 0 l 635 0 m 350 126 q 438 149 401 126 q 475 221 475 171 l 475 307 l 375 307 q 254 225 254 307 l 254 204 q 279 145 254 164 q 350 126 304 126 m 372 794 q 269 813 314 794 q 190 863 224 832 q 134 929 157 893 q 97 1001 111 965 l 201 1067 l 229 1025 q 303 953 265 971 q 372 935 340 935 q 444 953 408 935 q 515 1025 479 972 l 543 1067 l 647 1001 q 610 929 633 965 q 554 863 588 893 q 476 813 521 832 q 372 794 431 794 m 471 1094 q 418 1101 442 1094 q 369 1119 394 1108 q 316 1141 340 1132 q 265 1150 292 1150 q 224 1142 242 1150 q 183 1117 206 1135 l 114 1206 q 178 1268 139 1243 q 272 1293 217 1293 q 326 1285 303 1293 q 375 1265 350 1276 q 428 1246 404 1254 q 478 1238 451 1238 q 519 1246 501 1238 q 560 1272 538 1254 l 629 1183 q 565 1120 604 1146 q 471 1094 526 1094 z "},"ấ":{"ha":790,"x_min":47,"x_max":799,"o":"m 635 0 q 542 35 579 0 q 496 128 506 69 l 488 128 q 414 20 471 57 q 274 -17 357 -17 q 106 42 164 -17 q 47 196 47 100 q 131 367 47 311 q 360 424 215 424 l 475 424 l 475 469 q 447 553 475 522 q 354 585 419 585 q 257 558 293 585 q 197 499 221 532 l 75 607 q 187 709 119 672 q 369 746 254 746 q 603 678 525 746 q 681 479 681 610 l 681 160 l 749 160 l 749 0 l 635 0 m 350 126 q 438 149 401 126 q 475 221 475 171 l 475 307 l 375 307 q 254 225 254 307 l 254 204 q 279 145 254 164 q 350 126 304 126 m 613 1018 l 503 1072 l 640 1342 l 799 1263 l 613 1018 m 438 1085 l 639 881 l 544 792 l 372 936 l 200 792 l 106 881 l 307 1085 l 438 1085 z "},"ậ":{"ha":790,"x_min":47,"x_max":749,"o":"m 635 0 q 542 35 579 0 q 496 128 506 69 l 488 128 q 414 20 471 57 q 274 -17 357 -17 q 106 42 164 -17 q 47 196 47 100 q 131 367 47 311 q 360 424 215 424 l 475 424 l 475 469 q 447 553 475 522 q 354 585 419 585 q 257 558 293 585 q 197 499 221 532 l 75 607 q 187 709 119 672 q 369 746 254 746 q 603 678 525 746 q 681 479 681 610 l 681 160 l 749 160 l 749 0 l 635 0 m 350 126 q 438 149 401 126 q 475 221 475 171 l 475 307 l 375 307 q 254 225 254 307 l 254 204 q 279 145 254 164 q 350 126 304 126 m 460 1104 l 643 883 l 542 803 l 374 963 l 206 803 l 104 883 l 288 1104 l 460 1104 m 374 -283 q 286 -258 311 -283 q 261 -196 261 -232 l 261 -160 q 286 -98 261 -124 q 374 -72 311 -72 q 461 -98 436 -72 q 486 -160 486 -124 l 486 -196 q 461 -258 486 -232 q 374 -283 436 -283 z "},"ầ":{"ha":790,"x_min":-54,"x_max":749,"o":"m 635 0 q 542 35 579 0 q 496 128 506 69 l 488 128 q 414 20 471 57 q 274 -17 357 -17 q 106 42 164 -17 q 47 196 47 100 q 131 367 47 311 q 360 424 215 424 l 475 424 l 475 469 q 447 553 475 522 q 354 585 419 585 q 257 558 293 585 q 197 499 221 532 l 75 607 q 187 709 119 672 q 369 746 254 746 q 603 678 525 746 q 681 479 681 610 l 681 160 l 749 160 l 749 0 l 635 0 m 350 126 q 438 149 401 126 q 475 221 475 171 l 475 307 l 375 307 q 254 225 254 307 l 254 204 q 279 145 254 164 q 350 126 304 126 m -54 1263 l 104 1342 l 242 1072 l 132 1018 l -54 1263 m 438 1085 l 639 881 l 544 792 l 372 936 l 200 792 l 106 881 l 307 1085 l 438 1085 z "},"ẩ":{"ha":790,"x_min":47,"x_max":749,"o":"m 635 0 q 542 35 579 0 q 496 128 506 69 l 488 128 q 414 20 471 57 q 274 -17 357 -17 q 106 42 164 -17 q 47 196 47 100 q 131 367 47 311 q 360 424 215 424 l 475 424 l 475 469 q 447 553 475 522 q 354 585 419 585 q 257 558 293 585 q 197 499 221 532 l 75 607 q 187 709 119 672 q 369 746 254 746 q 603 678 525 746 q 681 479 681 610 l 681 160 l 749 160 l 749 0 l 635 0 m 350 126 q 438 149 401 126 q 475 221 475 171 l 475 307 l 375 307 q 254 225 254 307 l 254 204 q 279 145 254 164 q 350 126 304 126 m 425 1322 l 611 1322 q 676 1314 650 1322 q 717 1292 701 1306 q 740 1260 733 1278 q 747 1222 747 1242 q 721 1134 747 1181 q 660 1046 694 1088 l 622 1000 l 531 1047 l 590 1182 l 425 1182 l 425 1322 m 438 1085 l 639 881 l 544 792 l 372 936 l 200 792 l 106 881 l 307 1085 l 438 1085 z "},"ẫ":{"ha":790,"x_min":47,"x_max":749,"o":"m 635 0 q 542 35 579 0 q 496 128 506 69 l 488 128 q 414 20 471 57 q 274 -17 357 -17 q 106 42 164 -17 q 47 196 47 100 q 131 367 47 311 q 360 424 215 424 l 475 424 l 475 469 q 447 553 475 522 q 354 585 419 585 q 257 558 293 585 q 197 499 221 532 l 75 607 q 187 709 119 672 q 369 746 254 746 q 603 678 525 746 q 681 479 681 610 l 681 160 l 749 160 l 749 0 l 635 0 m 350 126 q 438 149 401 126 q 475 221 475 171 l 475 307 l 375 307 q 254 225 254 307 l 254 204 q 279 145 254 164 q 350 126 304 126 m 268 1308 q 324 1300 300 1308 q 375 1281 349 1292 q 431 1259 406 1268 q 483 1250 456 1250 q 525 1258 507 1250 q 565 1285 543 1267 l 635 1196 q 571 1133 610 1158 q 476 1107 532 1107 q 420 1115 444 1107 q 369 1135 396 1124 q 314 1156 339 1147 q 261 1165 289 1165 q 219 1157 238 1165 q 179 1131 201 1149 l 110 1219 q 174 1283 135 1257 q 268 1308 213 1308 m 439 1067 l 636 881 l 544 792 l 372 924 l 200 792 l 108 881 l 306 1067 l 439 1067 z "},"æ":{"ha":1200,"x_min":47,"x_max":1150,"o":"m 375 313 q 287 292 319 313 q 254 231 254 271 l 254 211 q 353 126 254 126 q 438 149 401 126 q 475 221 475 171 l 475 313 l 375 313 m 938 433 l 938 446 q 908 553 938 513 q 815 594 878 594 q 717 553 753 594 q 682 444 682 513 l 682 433 l 938 433 m 847 147 q 953 174 911 147 q 1026 232 996 200 l 1129 104 q 1002 15 1081 47 q 824 -17 924 -17 q 644 24 719 -17 q 540 126 569 65 l 532 126 q 501 71 521 97 q 449 25 481 44 q 375 -6 418 6 q 275 -17 332 -17 q 177 -1 219 -17 q 106 44 135 15 q 62 113 76 74 q 47 200 47 153 q 70 302 47 258 q 135 375 93 346 q 234 419 176 404 q 360 433 292 433 l 475 433 l 475 469 q 447 553 475 522 q 354 585 419 585 q 257 558 293 585 q 197 499 221 532 l 75 607 q 187 709 119 672 q 369 746 254 746 q 488 722 436 746 q 575 643 540 697 l 583 643 q 677 721 617 696 q 817 746 738 746 q 971 715 907 746 q 1074 633 1035 685 q 1132 515 1114 582 q 1150 374 1150 447 l 1150 313 l 681 313 l 681 301 q 724 189 681 231 q 847 147 768 147 z "},"ǽ":{"ha":1200,"x_min":47,"x_max":1150,"o":"m 375 313 q 287 292 319 313 q 254 231 254 271 l 254 211 q 353 126 254 126 q 438 149 401 126 q 475 221 475 171 l 475 313 l 375 313 m 938 433 l 938 446 q 908 553 938 513 q 815 594 878 594 q 717 553 753 594 q 682 444 682 513 l 682 433 l 938 433 m 847 147 q 953 174 911 147 q 1026 232 996 200 l 1129 104 q 1002 15 1081 47 q 824 -17 924 -17 q 644 24 719 -17 q 540 126 569 65 l 532 126 q 501 71 521 97 q 449 25 481 44 q 375 -6 418 6 q 275 -17 332 -17 q 177 -1 219 -17 q 106 44 135 15 q 62 113 76 74 q 47 200 47 153 q 70 302 47 258 q 135 375 93 346 q 234 419 176 404 q 360 433 292 433 l 475 433 l 475 469 q 447 553 475 522 q 354 585 419 585 q 257 558 293 585 q 197 499 221 532 l 75 607 q 187 709 119 672 q 369 746 254 746 q 488 722 436 746 q 575 643 540 697 l 583 643 q 677 721 617 696 q 817 746 738 746 q 971 715 907 746 q 1074 633 1035 685 q 1132 515 1114 582 q 1150 374 1150 447 l 1150 313 l 681 313 l 681 301 q 724 189 681 231 q 847 147 768 147 m 622 804 l 500 864 l 638 1133 l 808 1049 l 622 804 z "},"ć":{"ha":718,"x_min":50,"x_max":686,"o":"m 390 -17 q 244 10 308 -17 q 138 87 181 38 q 72 207 94 136 q 50 365 50 278 q 72 523 50 453 q 138 643 94 593 q 244 719 181 693 q 390 746 308 746 q 576 696 501 746 q 682 556 650 646 l 515 483 q 475 554 506 525 q 390 583 444 583 q 296 542 328 583 q 264 432 264 501 l 264 296 q 296 186 264 226 q 390 146 328 146 q 478 176 446 146 q 526 254 511 206 l 686 185 q 574 32 650 81 q 390 -17 499 -17 m 404 804 l 282 864 l 419 1133 l 590 1049 l 404 804 z "},"č":{"ha":718,"x_min":50,"x_max":686,"o":"m 390 -17 q 244 10 308 -17 q 138 87 181 38 q 72 207 94 136 q 50 365 50 278 q 72 523 50 453 q 138 643 94 593 q 244 719 181 693 q 390 746 308 746 q 576 696 501 746 q 682 556 650 646 l 515 483 q 475 554 506 525 q 390 583 444 583 q 296 542 328 583 q 264 432 264 501 l 264 296 q 296 186 264 226 q 390 146 328 146 q 478 176 446 146 q 526 254 511 206 l 686 185 q 574 32 650 81 q 390 -17 499 -17 m 296 815 l 113 1036 l 214 1117 l 382 957 l 550 1117 l 651 1036 l 468 815 l 296 815 z "},"ç":{"ha":718,"x_min":50,"x_max":686,"o":"m 390 746 q 576 696 501 746 q 682 556 650 646 l 515 483 q 475 554 506 525 q 390 583 444 583 q 296 542 328 583 q 264 432 264 501 l 264 296 q 296 186 264 226 q 390 146 328 146 q 478 176 446 146 q 526 254 511 206 l 686 185 q 578 35 650 83 q 404 -17 506 -14 l 392 -76 l 397 -82 q 431 -75 414 -78 q 464 -72 447 -72 q 535 -94 506 -72 q 565 -168 565 -117 q 550 -228 565 -204 q 509 -267 535 -251 q 450 -288 483 -282 q 382 -294 417 -294 q 269 -274 310 -294 q 210 -233 228 -254 l 274 -156 q 310 -184 288 -172 q 365 -196 333 -196 q 409 -187 392 -196 q 426 -161 426 -179 q 422 -144 426 -153 q 406 -128 418 -136 q 374 -115 394 -121 q 322 -106 354 -108 l 293 -103 l 313 -10 q 117 113 185 14 q 50 365 50 211 q 72 523 50 453 q 138 643 94 593 q 244 719 181 693 q 390 746 308 746 z "},"ĉ":{"ha":718,"x_min":50,"x_max":686,"o":"m 390 -17 q 244 10 308 -17 q 138 87 181 38 q 72 207 94 136 q 50 365 50 278 q 72 523 50 453 q 138 643 94 593 q 244 719 181 693 q 390 746 308 746 q 576 696 501 746 q 682 556 650 646 l 515 483 q 475 554 506 525 q 390 583 444 583 q 296 542 328 583 q 264 432 264 501 l 264 296 q 296 186 264 226 q 390 146 328 146 q 478 176 446 146 q 526 254 511 206 l 686 185 q 574 32 650 81 q 390 -17 499 -17 m 468 1104 l 651 883 l 550 803 l 382 963 l 214 803 l 113 883 l 296 1104 l 468 1104 z "},"ċ":{"ha":718,"x_min":50,"x_max":686,"o":"m 390 -17 q 244 10 308 -17 q 138 87 181 38 q 72 207 94 136 q 50 365 50 278 q 72 523 50 453 q 138 643 94 593 q 244 719 181 693 q 390 746 308 746 q 576 696 501 746 q 682 556 650 646 l 515 483 q 475 554 506 525 q 390 583 444 583 q 296 542 328 583 q 264 432 264 501 l 264 296 q 296 186 264 226 q 390 146 328 146 q 478 176 446 146 q 526 254 511 206 l 686 185 q 574 32 650 81 q 390 -17 499 -17 m 382 821 q 285 849 313 821 q 258 918 258 878 l 258 958 q 285 1027 258 999 q 382 1056 313 1056 q 478 1027 451 1056 q 506 958 506 999 l 506 918 q 478 849 506 878 q 382 821 451 821 z "},"ď":{"ha":947,"x_min":60,"x_max":1063,"o":"m 543 122 l 536 122 q 510 67 528 93 q 466 23 492 42 q 408 -6 440 4 q 340 -17 375 -17 q 131 81 201 -17 q 60 365 60 179 q 131 649 60 551 q 340 746 201 746 q 466 707 411 746 q 536 607 521 668 l 543 607 l 543 1028 l 749 1028 l 749 0 l 543 0 l 543 122 m 408 150 q 505 178 467 150 q 543 257 543 207 l 543 472 q 505 551 543 522 q 408 579 467 579 q 312 538 350 579 q 274 428 274 497 l 274 301 q 312 191 274 232 q 408 150 350 150 m 971 729 l 836 729 l 844 1028 l 1063 1028 l 971 729 z "},"đ":{"ha":849,"x_min":60,"x_max":833,"o":"m 543 122 l 536 122 q 510 67 528 93 q 466 23 492 42 q 408 -6 440 4 q 340 -17 375 -17 q 131 81 201 -17 q 60 365 60 179 q 131 649 60 551 q 340 746 201 746 q 466 707 411 746 q 536 607 521 668 l 543 607 l 543 819 l 347 819 l 347 958 l 543 958 l 543 1028 l 749 1028 l 749 958 l 833 958 l 833 819 l 749 819 l 749 0 l 543 0 l 543 122 m 408 150 q 505 178 467 150 q 543 257 543 207 l 543 472 q 505 551 543 522 q 408 579 467 579 q 312 538 350 579 q 274 428 274 497 l 274 301 q 312 191 274 232 q 408 150 350 150 z "},"ð":{"ha":838,"x_min":57,"x_max":771,"o":"m 665 963 l 564 901 q 717 667 664 797 q 771 386 771 538 q 745 204 771 281 q 673 79 719 128 q 562 7 626 31 q 418 -17 497 -17 q 266 9 333 -17 q 152 82 199 35 q 81 197 106 129 q 57 351 57 265 q 76 492 57 429 q 132 601 96 556 q 219 670 168 646 q 332 694 269 694 q 463 658 410 694 q 549 558 515 621 l 558 563 q 499 690 539 629 q 403 807 460 750 l 279 733 l 208 817 l 319 882 q 213 960 268 924 q 99 1028 157 996 l 413 1028 q 447 1003 431 1017 q 481 978 464 990 l 596 1046 l 665 963 m 414 136 q 519 178 481 136 q 558 300 558 221 l 558 375 q 519 497 558 454 q 414 539 481 539 q 308 497 347 539 q 269 375 269 454 l 269 300 q 308 178 269 221 q 414 136 347 136 z "},"é":{"ha":781,"x_min":50,"x_max":731,"o":"m 400 -17 q 251 10 317 -17 q 141 87 186 38 q 73 207 96 136 q 50 365 50 278 q 72 522 50 451 q 138 642 94 592 q 246 719 182 692 q 392 746 310 746 q 547 715 482 746 q 652 633 611 685 q 712 515 693 582 q 731 374 731 447 l 731 313 l 263 313 l 263 301 q 301 187 263 229 q 424 144 340 144 q 528 170 488 144 q 603 232 568 196 l 706 104 q 578 15 657 47 q 400 -17 500 -17 m 396 594 q 298 553 333 594 q 263 444 263 513 l 263 433 l 518 433 l 518 446 q 488 553 518 513 q 396 594 458 594 m 422 804 l 300 864 l 438 1133 l 608 1049 l 422 804 z "},"ĕ":{"ha":781,"x_min":50,"x_max":731,"o":"m 400 -17 q 251 10 317 -17 q 141 87 186 38 q 73 207 96 136 q 50 365 50 278 q 72 522 50 451 q 138 642 94 592 q 246 719 182 692 q 392 746 310 746 q 547 715 482 746 q 652 633 611 685 q 712 515 693 582 q 731 374 731 447 l 731 313 l 263 313 l 263 301 q 301 187 263 229 q 424 144 340 144 q 528 170 488 144 q 603 232 568 196 l 706 104 q 578 15 657 47 q 400 -17 500 -17 m 396 594 q 298 553 333 594 q 263 444 263 513 l 263 433 l 518 433 l 518 446 q 488 553 518 513 q 396 594 458 594 m 400 804 q 294 827 339 804 q 219 885 250 850 q 169 961 189 919 q 136 1040 149 1003 l 249 1099 l 276 1053 q 335 975 307 1003 q 400 947 364 947 q 465 975 436 947 q 525 1053 494 1003 l 553 1099 l 664 1040 q 631 961 651 1003 q 578 885 610 919 q 502 827 546 850 q 400 804 458 804 z "},"ě":{"ha":781,"x_min":50,"x_max":731,"o":"m 400 -17 q 251 10 317 -17 q 141 87 186 38 q 73 207 96 136 q 50 365 50 278 q 72 522 50 451 q 138 642 94 592 q 246 719 182 692 q 392 746 310 746 q 547 715 482 746 q 652 633 611 685 q 712 515 693 582 q 731 374 731 447 l 731 313 l 263 313 l 263 301 q 301 187 263 229 q 424 144 340 144 q 528 170 488 144 q 603 232 568 196 l 706 104 q 578 15 657 47 q 400 -17 500 -17 m 396 594 q 298 553 333 594 q 263 444 263 513 l 263 433 l 518 433 l 518 446 q 488 553 518 513 q 396 594 458 594 m 314 815 l 131 1036 l 232 1117 l 400 957 l 568 1117 l 669 1036 l 486 815 l 314 815 z "},"ê":{"ha":781,"x_min":50,"x_max":731,"o":"m 400 -17 q 251 10 317 -17 q 141 87 186 38 q 73 207 96 136 q 50 365 50 278 q 72 522 50 451 q 138 642 94 592 q 246 719 182 692 q 392 746 310 746 q 547 715 482 746 q 652 633 611 685 q 712 515 693 582 q 731 374 731 447 l 731 313 l 263 313 l 263 301 q 301 187 263 229 q 424 144 340 144 q 528 170 488 144 q 603 232 568 196 l 706 104 q 578 15 657 47 q 400 -17 500 -17 m 396 594 q 298 553 333 594 q 263 444 263 513 l 263 433 l 518 433 l 518 446 q 488 553 518 513 q 396 594 458 594 m 486 1104 l 669 883 l 568 803 l 400 963 l 232 803 l 131 883 l 314 1104 l 486 1104 z "},"ë":{"ha":781,"x_min":50,"x_max":731,"o":"m 400 -17 q 251 10 317 -17 q 141 87 186 38 q 73 207 96 136 q 50 365 50 278 q 72 522 50 451 q 138 642 94 592 q 246 719 182 692 q 392 746 310 746 q 547 715 482 746 q 652 633 611 685 q 712 515 693 582 q 731 374 731 447 l 731 313 l 263 313 l 263 301 q 301 187 263 229 q 424 144 340 144 q 528 170 488 144 q 603 232 568 196 l 706 104 q 578 15 657 47 q 400 -17 500 -17 m 396 594 q 298 553 333 594 q 263 444 263 513 l 263 433 l 518 433 l 518 446 q 488 553 518 513 q 396 594 458 594 m 247 833 q 160 859 185 833 q 136 921 136 885 l 136 956 q 160 1017 136 992 q 247 1043 185 1043 q 334 1017 310 1043 q 358 956 358 992 l 358 921 q 334 859 358 885 q 247 833 310 833 m 553 833 q 466 859 490 833 q 442 921 442 885 l 442 956 q 466 1017 442 992 q 553 1043 490 1043 q 640 1017 615 1043 q 664 956 664 992 l 664 921 q 640 859 664 885 q 553 833 615 833 z "},"ė":{"ha":781,"x_min":50,"x_max":731,"o":"m 400 -17 q 251 10 317 -17 q 141 87 186 38 q 73 207 96 136 q 50 365 50 278 q 72 522 50 451 q 138 642 94 592 q 246 719 182 692 q 392 746 310 746 q 547 715 482 746 q 652 633 611 685 q 712 515 693 582 q 731 374 731 447 l 731 313 l 263 313 l 263 301 q 301 187 263 229 q 424 144 340 144 q 528 170 488 144 q 603 232 568 196 l 706 104 q 578 15 657 47 q 400 -17 500 -17 m 396 594 q 298 553 333 594 q 263 444 263 513 l 263 433 l 518 433 l 518 446 q 488 553 518 513 q 396 594 458 594 m 400 821 q 303 849 331 821 q 276 918 276 878 l 276 958 q 303 1027 276 999 q 400 1056 331 1056 q 497 1027 469 1056 q 524 958 524 999 l 524 918 q 497 849 524 878 q 400 821 469 821 z "},"ẹ":{"ha":781,"x_min":50,"x_max":731,"o":"m 400 -17 q 251 10 317 -17 q 141 87 186 38 q 73 207 96 136 q 50 365 50 278 q 72 522 50 451 q 138 642 94 592 q 246 719 182 692 q 392 746 310 746 q 547 715 482 746 q 652 633 611 685 q 712 515 693 582 q 731 374 731 447 l 731 313 l 263 313 l 263 301 q 301 187 263 229 q 424 144 340 144 q 528 170 488 144 q 603 232 568 196 l 706 104 q 578 15 657 47 q 400 -17 500 -17 m 396 594 q 298 553 333 594 q 263 444 263 513 l 263 433 l 518 433 l 518 446 q 488 553 518 513 q 396 594 458 594 m 393 -283 q 306 -258 331 -283 q 281 -196 281 -232 l 281 -160 q 306 -98 281 -124 q 393 -72 331 -72 q 481 -98 456 -72 q 506 -160 506 -124 l 506 -196 q 481 -258 506 -232 q 393 -283 456 -283 z "},"è":{"ha":781,"x_min":50,"x_max":731,"o":"m 400 -17 q 251 10 317 -17 q 141 87 186 38 q 73 207 96 136 q 50 365 50 278 q 72 522 50 451 q 138 642 94 592 q 246 719 182 692 q 392 746 310 746 q 547 715 482 746 q 652 633 611 685 q 712 515 693 582 q 731 374 731 447 l 731 313 l 263 313 l 263 301 q 301 187 263 229 q 424 144 340 144 q 528 170 488 144 q 603 232 568 196 l 706 104 q 578 15 657 47 q 400 -17 500 -17 m 396 594 q 298 553 333 594 q 263 444 263 513 l 263 433 l 518 433 l 518 446 q 488 553 518 513 q 396 594 458 594 m 192 1049 l 363 1133 l 500 864 l 378 804 l 192 1049 z "},"ẻ":{"ha":781,"x_min":50,"x_max":731,"o":"m 400 -17 q 251 10 317 -17 q 141 87 186 38 q 73 207 96 136 q 50 365 50 278 q 72 522 50 451 q 138 642 94 592 q 246 719 182 692 q 392 746 310 746 q 547 715 482 746 q 652 633 611 685 q 712 515 693 582 q 731 374 731 447 l 731 313 l 263 313 l 263 301 q 301 187 263 229 q 424 144 340 144 q 528 170 488 144 q 603 232 568 196 l 706 104 q 578 15 657 47 q 400 -17 500 -17 m 396 594 q 298 553 333 594 q 263 444 263 513 l 263 433 l 518 433 l 518 446 q 488 553 518 513 q 396 594 458 594 m 232 1114 l 431 1114 q 496 1106 469 1114 q 538 1083 522 1097 q 560 1051 553 1069 q 567 1013 567 1033 q 544 926 567 972 q 488 838 522 879 l 449 790 l 344 839 l 401 967 l 232 967 l 232 1114 z "},"ē":{"ha":781,"x_min":50,"x_max":731,"o":"m 400 -17 q 251 10 317 -17 q 141 87 186 38 q 73 207 96 136 q 50 365 50 278 q 72 522 50 451 q 138 642 94 592 q 246 719 182 692 q 392 746 310 746 q 547 715 482 746 q 652 633 611 685 q 712 515 693 582 q 731 374 731 447 l 731 313 l 263 313 l 263 301 q 301 187 263 229 q 424 144 340 144 q 528 170 488 144 q 603 232 568 196 l 706 104 q 578 15 657 47 q 400 -17 500 -17 m 396 594 q 298 553 333 594 q 263 444 263 513 l 263 433 l 518 433 l 518 446 q 488 553 518 513 q 396 594 458 594 m 188 1010 l 613 1010 l 613 867 l 188 867 l 188 1010 z "},"ę":{"ha":781,"x_min":50,"x_max":731,"o":"m 467 -294 q 403 -288 433 -294 q 349 -269 372 -282 q 311 -233 325 -256 q 297 -178 297 -211 q 340 -84 297 -119 q 456 -17 383 -49 l 454 -11 q 420 -16 435 -15 q 393 -17 406 -17 q 247 10 311 -17 q 140 87 183 38 q 73 207 96 136 q 50 365 50 278 q 72 522 50 451 q 138 642 94 592 q 246 719 182 692 q 392 746 310 746 q 547 715 482 746 q 652 633 611 685 q 712 515 693 582 q 731 374 731 447 l 731 313 l 263 313 l 263 301 q 302 187 263 229 q 426 144 342 144 q 531 172 488 144 q 604 232 574 200 l 707 104 q 656 59 692 86 q 558 -14 621 32 q 466 -87 497 -58 q 435 -147 435 -117 q 451 -181 435 -171 q 488 -192 467 -192 q 529 -181 511 -192 q 563 -153 547 -169 l 635 -224 q 575 -276 617 -257 q 467 -294 533 -294 m 518 433 l 518 446 q 488 553 518 513 q 396 594 458 594 q 298 553 333 594 q 263 444 263 513 l 263 433 l 518 433 z "},"ẽ":{"ha":781,"x_min":50,"x_max":731,"o":"m 400 -17 q 251 10 317 -17 q 141 87 186 38 q 73 207 96 136 q 50 365 50 278 q 72 522 50 451 q 138 642 94 592 q 246 719 182 692 q 392 746 310 746 q 547 715 482 746 q 652 633 611 685 q 712 515 693 582 q 731 374 731 447 l 731 313 l 263 313 l 263 301 q 301 187 263 229 q 424 144 340 144 q 528 170 488 144 q 603 232 568 196 l 706 104 q 578 15 657 47 q 400 -17 500 -17 m 396 594 q 298 553 333 594 q 263 444 263 513 l 263 433 l 518 433 l 518 446 q 488 553 518 513 q 396 594 458 594 m 506 835 q 449 843 474 835 q 399 863 425 851 q 343 884 368 875 q 290 893 318 893 q 249 885 267 893 q 208 858 231 876 l 136 953 q 200 1016 161 990 q 294 1042 239 1042 q 351 1033 326 1042 q 401 1014 375 1025 q 457 992 432 1001 q 510 983 482 983 q 551 992 533 983 q 592 1018 569 1000 l 664 924 q 600 860 639 886 q 506 835 561 835 z "},"ế":{"ha":781,"x_min":50,"x_max":825,"o":"m 400 -17 q 251 10 317 -17 q 141 87 186 38 q 73 207 96 136 q 50 365 50 278 q 72 522 50 451 q 138 642 94 592 q 246 719 182 692 q 392 746 310 746 q 547 715 482 746 q 652 633 611 685 q 712 515 693 582 q 731 374 731 447 l 731 313 l 263 313 l 263 301 q 301 187 263 229 q 424 144 340 144 q 528 170 488 144 q 603 232 568 196 l 706 104 q 578 15 657 47 q 400 -17 500 -17 m 396 594 q 298 553 333 594 q 263 444 263 513 l 263 433 l 518 433 l 518 446 q 488 553 518 513 q 396 594 458 594 m 639 1018 l 529 1072 l 667 1342 l 825 1263 l 639 1018 m 464 1085 l 665 881 l 571 792 l 399 936 l 226 792 l 132 881 l 333 1085 l 464 1085 z "},"ệ":{"ha":781,"x_min":50,"x_max":731,"o":"m 400 -17 q 251 10 317 -17 q 141 87 186 38 q 73 207 96 136 q 50 365 50 278 q 72 522 50 451 q 138 642 94 592 q 246 719 182 692 q 392 746 310 746 q 547 715 482 746 q 652 633 611 685 q 712 515 693 582 q 731 374 731 447 l 731 313 l 263 313 l 263 301 q 301 187 263 229 q 424 144 340 144 q 528 170 488 144 q 603 232 568 196 l 706 104 q 578 15 657 47 q 400 -17 500 -17 m 396 594 q 298 553 333 594 q 263 444 263 513 l 263 433 l 518 433 l 518 446 q 488 553 518 513 q 396 594 458 594 m 486 1104 l 669 883 l 568 803 l 400 963 l 232 803 l 131 883 l 314 1104 l 486 1104 m 393 -283 q 306 -258 331 -283 q 281 -196 281 -232 l 281 -160 q 306 -98 281 -124 q 393 -72 331 -72 q 481 -98 456 -72 q 506 -160 506 -124 l 506 -196 q 481 -258 506 -232 q 393 -283 456 -283 z "},"ề":{"ha":781,"x_min":-28,"x_max":731,"o":"m 400 -17 q 251 10 317 -17 q 141 87 186 38 q 73 207 96 136 q 50 365 50 278 q 72 522 50 451 q 138 642 94 592 q 246 719 182 692 q 392 746 310 746 q 547 715 482 746 q 652 633 611 685 q 712 515 693 582 q 731 374 731 447 l 731 313 l 263 313 l 263 301 q 301 187 263 229 q 424 144 340 144 q 528 170 488 144 q 603 232 568 196 l 706 104 q 578 15 657 47 q 400 -17 500 -17 m 396 594 q 298 553 333 594 q 263 444 263 513 l 263 433 l 518 433 l 518 446 q 488 553 518 513 q 396 594 458 594 m -28 1263 l 131 1342 l 268 1072 l 158 1018 l -28 1263 m 464 1085 l 665 881 l 571 792 l 399 936 l 226 792 l 132 881 l 333 1085 l 464 1085 z "},"ể":{"ha":781,"x_min":50,"x_max":774,"o":"m 400 -17 q 251 10 317 -17 q 141 87 186 38 q 73 207 96 136 q 50 365 50 278 q 72 522 50 451 q 138 642 94 592 q 246 719 182 692 q 392 746 310 746 q 547 715 482 746 q 652 633 611 685 q 712 515 693 582 q 731 374 731 447 l 731 313 l 263 313 l 263 301 q 301 187 263 229 q 424 144 340 144 q 528 170 488 144 q 603 232 568 196 l 706 104 q 578 15 657 47 q 400 -17 500 -17 m 396 594 q 298 553 333 594 q 263 444 263 513 l 263 433 l 518 433 l 518 446 q 488 553 518 513 q 396 594 458 594 m 451 1322 l 638 1322 q 702 1314 676 1322 q 744 1292 728 1306 q 767 1260 760 1278 q 774 1222 774 1242 q 747 1134 774 1181 q 686 1046 721 1088 l 649 1000 l 557 1047 l 617 1182 l 451 1182 l 451 1322 m 464 1085 l 665 881 l 571 792 l 399 936 l 226 792 l 132 881 l 333 1085 l 464 1085 z "},"ễ":{"ha":781,"x_min":50,"x_max":731,"o":"m 400 -17 q 251 10 317 -17 q 141 87 186 38 q 73 207 96 136 q 50 365 50 278 q 72 522 50 451 q 138 642 94 592 q 246 719 182 692 q 392 746 310 746 q 547 715 482 746 q 652 633 611 685 q 712 515 693 582 q 731 374 731 447 l 731 313 l 263 313 l 263 301 q 301 187 263 229 q 424 144 340 144 q 528 170 488 144 q 603 232 568 196 l 706 104 q 578 15 657 47 q 400 -17 500 -17 m 396 594 q 298 553 333 594 q 263 444 263 513 l 263 433 l 518 433 l 518 446 q 488 553 518 513 q 396 594 458 594 m 294 1308 q 351 1300 326 1308 q 401 1281 375 1292 q 457 1259 432 1268 q 510 1250 482 1250 q 551 1258 533 1250 q 592 1285 569 1267 l 661 1196 q 597 1133 636 1158 q 503 1107 558 1107 q 447 1115 471 1107 q 396 1135 422 1124 q 340 1156 365 1147 q 288 1165 315 1165 q 246 1157 264 1165 q 206 1131 228 1149 l 136 1219 q 200 1283 161 1257 q 294 1308 239 1308 m 465 1067 l 663 881 l 571 792 l 399 924 l 226 792 l 135 881 l 332 1067 l 465 1067 z "},"ə":{"ha":781,"x_min":50,"x_max":731,"o":"m 518 417 l 518 428 q 481 542 518 500 q 364 585 443 585 q 303 576 329 585 q 256 556 276 568 q 219 527 235 543 q 189 497 203 511 l 86 625 q 211 714 135 682 q 388 746 288 746 q 533 719 469 746 q 641 642 597 692 q 708 522 685 593 q 731 364 731 451 q 708 208 731 278 q 642 88 686 138 q 535 10 599 38 q 389 -17 471 -17 q 234 14 299 -17 q 128 96 169 44 q 69 215 88 147 q 50 356 50 282 l 50 417 l 518 417 m 263 283 q 292 176 263 217 q 385 135 322 135 q 483 176 447 135 q 518 285 518 217 l 518 296 l 263 296 l 263 283 z "},"ğ":{"ha":781,"x_min":31,"x_max":771,"o":"m 771 -53 q 751 -156 771 -111 q 685 -231 731 -200 q 563 -278 639 -262 q 376 -294 488 -294 q 216 -283 282 -294 q 109 -249 150 -271 q 49 -197 68 -228 q 31 -125 31 -165 q 67 -29 31 -64 q 167 14 103 6 l 167 29 q 88 74 114 39 q 61 157 61 110 q 73 208 61 186 q 103 245 85 229 q 147 271 122 261 q 197 286 172 281 l 197 292 q 99 376 131 322 q 67 500 67 429 q 144 678 67 611 q 379 746 221 746 q 449 742 414 746 q 517 729 485 739 l 758 729 l 758 592 l 669 592 q 692 500 692 553 q 615 324 692 390 q 379 258 538 258 q 250 274 308 258 q 218 215 218 253 q 238 174 218 189 q 306 160 258 160 l 517 160 q 710 104 650 160 q 771 -53 771 49 m 379 393 q 470 419 440 393 q 500 493 500 444 l 500 510 q 470 584 500 558 q 379 610 440 610 q 288 584 318 610 q 258 510 258 558 l 258 493 q 288 419 258 444 q 379 393 318 393 m 578 -81 q 553 -32 578 -49 q 465 -15 528 -15 l 215 -15 q 195 -47 201 -29 q 189 -81 189 -64 q 224 -140 189 -121 q 342 -158 258 -158 l 425 -158 q 543 -140 508 -158 q 578 -81 578 -121 m 388 804 q 282 827 326 804 q 207 885 238 850 q 156 961 176 919 q 124 1040 136 1003 l 236 1099 l 264 1053 q 323 975 294 1003 q 388 947 351 947 q 453 975 424 947 q 513 1053 482 1003 l 540 1099 l 651 1040 q 618 961 639 1003 q 565 885 597 919 q 490 827 533 850 q 388 804 446 804 z "},"ĝ":{"ha":781,"x_min":31,"x_max":771,"o":"m 771 -53 q 751 -156 771 -111 q 685 -231 731 -200 q 563 -278 639 -262 q 376 -294 488 -294 q 216 -283 282 -294 q 109 -249 150 -271 q 49 -197 68 -228 q 31 -125 31 -165 q 67 -29 31 -64 q 167 14 103 6 l 167 29 q 88 74 114 39 q 61 157 61 110 q 73 208 61 186 q 103 245 85 229 q 147 271 122 261 q 197 286 172 281 l 197 292 q 99 376 131 322 q 67 500 67 429 q 144 678 67 611 q 379 746 221 746 q 449 742 414 746 q 517 729 485 739 l 758 729 l 758 592 l 669 592 q 692 500 692 553 q 615 324 692 390 q 379 258 538 258 q 250 274 308 258 q 218 215 218 253 q 238 174 218 189 q 306 160 258 160 l 517 160 q 710 104 650 160 q 771 -53 771 49 m 379 393 q 470 419 440 393 q 500 493 500 444 l 500 510 q 470 584 500 558 q 379 610 440 610 q 288 584 318 610 q 258 510 258 558 l 258 493 q 288 419 258 444 q 379 393 318 393 m 578 -81 q 553 -32 578 -49 q 465 -15 528 -15 l 215 -15 q 195 -47 201 -29 q 189 -81 189 -64 q 224 -140 189 -121 q 342 -158 258 -158 l 425 -158 q 543 -140 508 -158 q 578 -81 578 -121 m 474 1104 l 657 883 l 556 803 l 388 963 l 219 803 l 118 883 l 301 1104 l 474 1104 z "},"ģ":{"ha":781,"x_min":31,"x_max":771,"o":"m 771 -53 q 751 -156 771 -111 q 685 -231 731 -200 q 563 -278 639 -262 q 376 -294 488 -294 q 216 -283 282 -294 q 109 -249 150 -271 q 49 -197 68 -228 q 31 -125 31 -165 q 67 -29 31 -64 q 167 14 103 6 l 167 29 q 88 74 114 39 q 61 157 61 110 q 73 208 61 186 q 103 245 85 229 q 147 271 122 261 q 197 286 172 281 l 197 292 q 99 376 131 322 q 67 500 67 429 q 144 678 67 611 q 379 746 221 746 q 449 742 414 746 q 517 729 485 739 l 758 729 l 758 592 l 669 592 q 692 500 692 553 q 615 324 692 390 q 379 258 538 258 q 250 274 308 258 q 218 215 218 253 q 238 174 218 189 q 306 160 258 160 l 517 160 q 710 104 650 160 q 771 -53 771 49 m 379 393 q 470 419 440 393 q 500 493 500 444 l 500 510 q 470 584 500 558 q 379 610 440 610 q 288 584 318 610 q 258 510 258 558 l 258 493 q 288 419 258 444 q 379 393 318 393 m 578 -81 q 553 -32 578 -49 q 465 -15 528 -15 l 215 -15 q 195 -47 201 -29 q 189 -81 189 -64 q 224 -140 189 -121 q 342 -158 258 -158 l 425 -158 q 543 -140 508 -158 q 578 -81 578 -121 m 383 800 q 312 822 338 800 q 286 886 286 844 l 286 906 q 313 1029 286 969 q 379 1124 339 1089 l 497 1124 q 442 1060 461 1093 q 411 986 422 1028 q 466 958 451 983 q 481 901 481 932 l 481 886 q 455 822 481 844 q 383 800 429 800 z "},"ġ":{"ha":781,"x_min":31,"x_max":771,"o":"m 771 -53 q 751 -156 771 -111 q 685 -231 731 -200 q 563 -278 639 -262 q 376 -294 488 -294 q 216 -283 282 -294 q 109 -249 150 -271 q 49 -197 68 -228 q 31 -125 31 -165 q 67 -29 31 -64 q 167 14 103 6 l 167 29 q 88 74 114 39 q 61 157 61 110 q 73 208 61 186 q 103 245 85 229 q 147 271 122 261 q 197 286 172 281 l 197 292 q 99 376 131 322 q 67 500 67 429 q 144 678 67 611 q 379 746 221 746 q 449 742 414 746 q 517 729 485 739 l 758 729 l 758 592 l 669 592 q 692 500 692 553 q 615 324 692 390 q 379 258 538 258 q 250 274 308 258 q 218 215 218 253 q 238 174 218 189 q 306 160 258 160 l 517 160 q 710 104 650 160 q 771 -53 771 49 m 379 393 q 470 419 440 393 q 500 493 500 444 l 500 510 q 470 584 500 558 q 379 610 440 610 q 288 584 318 610 q 258 510 258 558 l 258 493 q 288 419 258 444 q 379 393 318 393 m 578 -81 q 553 -32 578 -49 q 465 -15 528 -15 l 215 -15 q 195 -47 201 -29 q 189 -81 189 -64 q 224 -140 189 -121 q 342 -158 258 -158 l 425 -158 q 543 -140 508 -158 q 578 -81 578 -121 m 382 821 q 285 849 313 821 q 258 918 258 878 l 258 958 q 285 1027 258 999 q 382 1056 313 1056 q 478 1027 451 1056 q 506 958 506 999 l 506 918 q 478 849 506 878 q 382 821 451 821 z "},"ħ":{"ha":828,"x_min":10,"x_max":740,"o":"m 96 0 l 96 819 l 10 819 l 10 958 l 96 958 l 96 1028 l 301 1028 l 301 958 l 496 958 l 496 819 l 301 819 l 301 606 l 310 606 q 378 704 329 663 q 513 746 426 746 q 683 671 625 746 q 740 457 740 596 l 740 0 l 535 0 l 535 440 q 513 545 535 511 q 433 579 490 579 q 385 573 408 579 q 342 553 361 567 q 313 519 324 539 q 301 472 301 499 l 301 0 l 96 0 z "},"ĥ":{"ha":828,"x_min":-69,"x_max":740,"o":"m 96 1028 l 301 1028 l 301 606 l 310 606 q 378 704 329 663 q 513 746 426 746 q 683 671 625 746 q 740 457 740 596 l 740 0 l 535 0 l 535 440 q 513 545 535 511 q 433 579 490 579 q 385 573 408 579 q 342 553 361 567 q 313 519 324 539 q 301 472 301 499 l 301 0 l 96 0 l 96 1028 m 286 1324 l 469 1103 l 368 1022 l 200 1182 l 32 1022 l -69 1103 l 114 1324 l 286 1324 z "},"ı":{"ha":397,"x_min":96,"x_max":301,"o":"m 96 0 l 96 729 l 301 729 l 301 0 l 96 0 z "},"í":{"ha":397,"x_min":96,"x_max":408,"o":"m 96 0 l 96 729 l 301 729 l 301 0 l 96 0 m 222 804 l 100 864 l 238 1133 l 408 1049 l 222 804 z "},"ĭ":{"ha":397,"x_min":-64,"x_max":464,"o":"m 96 0 l 96 729 l 301 729 l 301 0 l 96 0 m 200 804 q 94 827 139 804 q 19 885 50 850 q -31 961 -11 919 q -64 1040 -51 1003 l 49 1099 l 76 1053 q 135 975 107 1003 q 200 947 164 947 q 265 975 236 947 q 325 1053 294 1003 l 353 1099 l 464 1040 q 431 961 451 1003 q 378 885 410 919 q 302 827 346 850 q 200 804 258 804 z "},"ǐ":{"ha":397,"x_min":-69,"x_max":469,"o":"m 96 0 l 96 729 l 301 729 l 301 0 l 96 0 m 114 815 l -69 1036 l 32 1117 l 200 957 l 368 1117 l 469 1036 l 286 815 l 114 815 z "},"î":{"ha":397,"x_min":-69,"x_max":469,"o":"m 96 0 l 96 729 l 301 729 l 301 0 l 96 0 m 286 1104 l 469 883 l 368 803 l 200 963 l 32 803 l -69 883 l 114 1104 l 286 1104 z "},"ï":{"ha":397,"x_min":-64,"x_max":464,"o":"m 96 0 l 96 729 l 301 729 l 301 0 l 96 0 m 47 833 q -40 859 -15 833 q -64 921 -64 885 l -64 956 q -40 1017 -64 992 q 47 1043 -15 1043 q 134 1017 110 1043 q 158 956 158 992 l 158 921 q 134 859 158 885 q 47 833 110 833 m 353 833 q 266 859 290 833 q 242 921 242 885 l 242 956 q 266 1017 242 992 q 353 1043 290 1043 q 440 1017 415 1043 q 464 956 464 992 l 464 921 q 440 859 464 885 q 353 833 415 833 z "},"ị":{"ha":397,"x_min":79,"x_max":318,"o":"m 199 807 q 108 835 136 807 q 79 908 79 864 l 79 939 q 108 1012 79 983 q 199 1040 136 1040 q 290 1012 261 1040 q 318 939 318 983 l 318 908 q 290 835 318 864 q 199 807 261 807 m 96 729 l 301 729 l 301 0 l 96 0 l 96 729 m 199 -283 q 111 -258 136 -283 q 86 -196 86 -232 l 86 -160 q 111 -98 86 -124 q 199 -72 136 -72 q 286 -98 261 -72 q 311 -160 311 -124 l 311 -196 q 286 -258 311 -232 q 199 -283 261 -283 z "},"ì":{"ha":397,"x_min":-8,"x_max":301,"o":"m 96 0 l 96 729 l 301 729 l 301 0 l 96 0 m -8 1049 l 163 1133 l 300 864 l 178 804 l -8 1049 z "},"ỉ":{"ha":397,"x_min":32,"x_max":367,"o":"m 96 0 l 96 729 l 301 729 l 301 0 l 96 0 m 32 1114 l 231 1114 q 296 1106 269 1114 q 338 1083 322 1097 q 360 1051 353 1069 q 367 1013 367 1033 q 344 926 367 972 q 288 838 322 879 l 249 790 l 144 839 l 201 967 l 32 967 l 32 1114 z "},"ī":{"ha":397,"x_min":-12,"x_max":413,"o":"m 96 0 l 96 729 l 301 729 l 301 0 l 96 0 m -12 1010 l 413 1010 l 413 867 l -12 867 l -12 1010 z "},"į":{"ha":397,"x_min":4,"x_max":346,"o":"m 96 729 l 301 729 l 301 0 q 219 -53 250 -32 q 171 -92 188 -75 q 149 -121 154 -108 q 143 -146 143 -133 q 159 -182 143 -172 q 196 -192 175 -192 q 239 -181 221 -192 q 272 -153 257 -169 l 346 -224 q 285 -276 328 -257 q 176 -294 243 -294 q 110 -288 142 -294 q 56 -269 79 -282 q 18 -233 32 -256 q 4 -176 4 -210 q 48 -80 4 -118 q 169 -6 92 -42 l 168 0 l 96 0 l 96 729 m 199 807 q 108 835 136 807 q 79 908 79 864 l 79 939 q 108 1012 79 983 q 199 1040 136 1040 q 290 1012 261 1040 q 318 939 318 983 l 318 908 q 290 835 318 864 q 199 807 261 807 z "},"ĩ":{"ha":397,"x_min":-64,"x_max":464,"o":"m 96 0 l 96 729 l 301 729 l 301 0 l 96 0 m 306 835 q 249 843 274 835 q 199 863 225 851 q 143 884 168 875 q 90 893 118 893 q 49 885 67 893 q 8 858 31 876 l -64 953 q 0 1016 -39 990 q 94 1042 39 1042 q 151 1033 126 1042 q 201 1014 175 1025 q 257 992 232 1001 q 310 983 282 983 q 351 992 333 983 q 392 1018 369 1000 l 464 924 q 400 860 439 886 q 306 835 361 835 z "},"ĳ":{"ha":786,"x_min":79,"x_max":707,"o":"m 199 807 q 108 835 136 807 q 79 908 79 864 l 79 939 q 108 1012 79 983 q 199 1040 136 1040 q 290 1012 261 1040 q 318 939 318 983 l 318 908 q 290 835 318 864 q 199 807 261 807 m 96 729 l 301 729 l 301 0 l 96 0 l 96 729 m 485 729 l 690 729 l 690 -78 q 642 -226 690 -175 q 485 -278 593 -278 l 376 -278 l 376 -118 l 485 -118 l 485 729 m 588 807 q 497 835 525 807 q 468 908 468 864 l 468 939 q 497 1012 468 983 q 588 1040 525 1040 q 678 1012 650 1040 q 707 939 707 983 l 707 908 q 678 835 707 864 q 588 807 650 807 z "},"ȷ":{"ha":397,"x_min":-12,"x_max":301,"o":"m -12 -118 l 96 -118 l 96 729 l 301 729 l 301 -78 q 253 -226 301 -175 q 96 -278 204 -278 l -12 -278 l -12 -118 z "},"ĵ":{"ha":397,"x_min":-69,"x_max":469,"o":"m -12 -118 l 96 -118 l 96 729 l 301 729 l 301 -78 q 253 -226 301 -175 q 96 -278 204 -278 l -12 -278 l -12 -118 m 286 1104 l 469 883 l 368 803 l 200 963 l 32 803 l -69 883 l 114 1104 l 286 1104 z "},"ķ":{"ha":801,"x_min":96,"x_max":801,"o":"m 96 1028 l 301 1028 l 301 421 l 310 421 l 400 556 l 546 729 l 774 729 l 531 450 l 801 0 l 557 0 l 393 308 l 301 206 l 301 0 l 96 0 l 96 1028 m 449 -58 q 520 -81 494 -58 q 546 -144 546 -103 l 546 -164 q 519 -287 546 -228 q 453 -382 493 -347 l 335 -382 q 390 -319 371 -351 q 421 -244 410 -286 q 366 -216 381 -242 q 351 -160 351 -190 l 351 -144 q 377 -81 351 -103 q 449 -58 403 -58 z "},"ĸ":{"ha":801,"x_min":96,"x_max":801,"o":"m 392 304 l 301 206 l 301 0 l 96 0 l 96 729 l 301 729 l 301 421 l 310 421 l 406 550 l 563 729 l 793 729 l 535 444 l 801 0 l 561 0 l 392 304 z "},"ĺ":{"ha":421,"x_min":96,"x_max":408,"o":"m 300 0 q 145 51 194 0 q 96 200 96 103 l 96 1028 l 301 1028 l 301 160 l 393 160 l 393 0 l 300 0 m 222 1082 l 100 1142 l 238 1411 l 408 1326 l 222 1082 z "},"ľ":{"ha":500,"x_min":96,"x_max":615,"o":"m 300 0 q 145 51 194 0 q 96 200 96 103 l 96 1028 l 301 1028 l 301 160 l 393 160 l 393 0 l 300 0 m 524 729 l 389 729 l 397 1028 l 615 1028 l 524 729 z "},"ļ":{"ha":421,"x_min":96,"x_max":393,"o":"m 300 0 q 145 51 194 0 q 96 200 96 103 l 96 1028 l 301 1028 l 301 160 l 393 160 l 393 0 l 300 0 m 242 -58 q 313 -81 288 -58 q 339 -144 339 -103 l 339 -164 q 313 -287 339 -228 q 246 -382 286 -347 l 128 -382 q 183 -319 164 -351 q 214 -244 203 -286 q 159 -216 174 -242 q 144 -160 144 -190 l 144 -144 q 170 -81 144 -103 q 242 -58 196 -58 z "},"ŀ":{"ha":622,"x_min":96,"x_max":628,"o":"m 300 0 q 145 51 194 0 q 96 200 96 103 l 96 1028 l 301 1028 l 301 160 l 393 160 l 393 0 l 300 0 m 504 381 q 408 409 435 381 q 381 478 381 438 l 381 518 q 408 587 381 558 q 504 615 435 615 q 601 587 574 615 q 628 518 628 558 l 628 478 q 601 409 628 438 q 504 381 574 381 z "},"ł":{"ha":436,"x_min":-3,"x_max":454,"o":"m 401 0 l 308 0 q 153 51 203 0 q 104 200 104 103 l 104 410 l -3 375 l -3 526 l 104 561 l 104 1028 l 310 1028 l 310 628 l 454 675 l 454 524 l 310 476 l 310 160 l 401 160 l 401 0 z "},"ń":{"ha":828,"x_min":96,"x_max":740,"o":"m 96 0 l 96 729 l 301 729 l 301 606 l 310 606 q 378 704 329 663 q 513 746 426 746 q 683 671 625 746 q 740 457 740 596 l 740 0 l 535 0 l 535 440 q 513 545 535 511 q 433 579 490 579 q 385 573 408 579 q 342 553 361 567 q 313 519 324 539 q 301 472 301 499 l 301 0 l 96 0 m 439 804 l 317 864 l 454 1133 l 625 1049 l 439 804 z "},"ň":{"ha":828,"x_min":96,"x_max":740,"o":"m 96 0 l 96 729 l 301 729 l 301 606 l 310 606 q 378 704 329 663 q 513 746 426 746 q 683 671 625 746 q 740 457 740 596 l 740 0 l 535 0 l 535 440 q 513 545 535 511 q 433 579 490 579 q 385 573 408 579 q 342 553 361 567 q 313 519 324 539 q 301 472 301 499 l 301 0 l 96 0 m 331 815 l 147 1036 l 249 1117 l 417 957 l 585 1117 l 686 1036 l 503 815 l 331 815 z "},"ņ":{"ha":828,"x_min":96,"x_max":740,"o":"m 96 0 l 96 729 l 301 729 l 301 606 l 310 606 q 378 704 329 663 q 513 746 426 746 q 683 671 625 746 q 740 457 740 596 l 740 0 l 535 0 l 535 440 q 513 545 535 511 q 433 579 490 579 q 385 573 408 579 q 342 553 361 567 q 313 519 324 539 q 301 472 301 499 l 301 0 l 96 0 m 418 -58 q 490 -81 464 -58 q 515 -144 515 -103 l 515 -164 q 489 -287 515 -228 q 422 -382 463 -347 l 304 -382 q 360 -319 340 -351 q 390 -244 379 -286 q 335 -216 350 -242 q 321 -160 321 -190 l 321 -144 q 347 -81 321 -103 q 418 -58 372 -58 z "},"ñ":{"ha":828,"x_min":96,"x_max":740,"o":"m 96 0 l 96 729 l 301 729 l 301 606 l 310 606 q 378 704 329 663 q 513 746 426 746 q 683 671 625 746 q 740 457 740 596 l 740 0 l 535 0 l 535 440 q 513 545 535 511 q 433 579 490 579 q 385 573 408 579 q 342 553 361 567 q 313 519 324 539 q 301 472 301 499 l 301 0 l 96 0 m 522 835 q 466 843 490 835 q 415 863 442 851 q 360 884 385 875 q 307 893 335 893 q 265 885 283 893 q 225 858 247 876 l 153 953 q 217 1016 178 990 q 311 1042 256 1042 q 367 1033 343 1042 q 418 1014 392 1025 q 474 992 449 1001 q 526 983 499 983 q 568 992 550 983 q 608 1018 586 1000 l 681 924 q 617 860 656 886 q 522 835 578 835 z "},"ŉ":{"ha":1231,"x_min":50,"x_max":1143,"o":"m 211 1042 q 302 1013 274 1042 q 331 942 331 985 l 331 913 q 319 831 331 872 q 287 753 307 790 q 239 683 267 715 q 179 625 211 650 l 50 625 q 128 710 96 667 q 178 806 161 753 q 113 842 133 814 q 92 907 92 871 l 92 942 q 120 1013 92 985 q 211 1042 149 1042 m 499 0 l 499 729 l 704 729 l 704 606 l 713 606 q 781 704 732 663 q 915 746 829 746 q 1085 671 1028 746 q 1143 457 1143 596 l 1143 0 l 938 0 l 938 440 q 915 545 938 511 q 836 579 893 579 q 788 573 811 579 q 745 553 764 567 q 715 519 726 539 q 704 472 704 499 l 704 0 l 499 0 z "},"ŋ":{"ha":828,"x_min":96,"x_max":740,"o":"m 426 -118 l 535 -118 l 535 440 q 513 545 535 511 q 433 579 490 579 q 385 573 408 579 q 342 553 361 567 q 313 520 324 540 q 301 472 301 500 l 301 0 l 96 0 l 96 729 l 301 729 l 301 606 l 310 606 q 378 704 329 663 q 513 746 426 746 q 683 671 625 746 q 740 457 740 596 l 740 -78 q 692 -226 740 -175 q 536 -278 643 -278 l 426 -278 l 426 -118 z "},"ó":{"ha":783,"x_min":50,"x_max":733,"o":"m 392 -17 q 248 10 311 -17 q 141 86 185 36 q 74 207 97 136 q 50 365 50 278 q 74 524 50 453 q 141 644 97 594 q 248 719 185 693 q 392 746 311 746 q 535 719 472 746 q 642 644 599 693 q 710 524 686 594 q 733 365 733 453 q 710 207 733 278 q 642 86 686 136 q 535 10 599 36 q 392 -17 472 -17 m 392 146 q 486 183 453 146 q 519 290 519 221 l 519 439 q 486 546 519 508 q 392 583 453 583 q 297 546 331 583 q 264 439 264 508 l 264 290 q 297 183 264 221 q 392 146 331 146 m 414 804 l 292 864 l 429 1133 l 600 1049 l 414 804 z "},"ŏ":{"ha":783,"x_min":50,"x_max":733,"o":"m 392 -17 q 248 10 311 -17 q 141 86 185 36 q 74 207 97 136 q 50 365 50 278 q 74 524 50 453 q 141 644 97 594 q 248 719 185 693 q 392 746 311 746 q 535 719 472 746 q 642 644 599 693 q 710 524 686 594 q 733 365 733 453 q 710 207 733 278 q 642 86 686 136 q 535 10 599 36 q 392 -17 472 -17 m 392 146 q 486 183 453 146 q 519 290 519 221 l 519 439 q 486 546 519 508 q 392 583 453 583 q 297 546 331 583 q 264 439 264 508 l 264 290 q 297 183 264 221 q 392 146 331 146 m 392 804 q 286 827 331 804 q 211 885 242 850 q 160 961 181 919 q 128 1040 140 1003 l 240 1099 l 268 1053 q 327 975 299 1003 q 392 947 356 947 q 457 975 428 947 q 517 1053 486 1003 l 544 1099 l 656 1040 q 622 961 643 1003 q 569 885 601 919 q 494 827 538 850 q 392 804 450 804 z "},"ǒ":{"ha":783,"x_min":50,"x_max":733,"o":"m 392 -17 q 248 10 311 -17 q 141 86 185 36 q 74 207 97 136 q 50 365 50 278 q 74 524 50 453 q 141 644 97 594 q 248 719 185 693 q 392 746 311 746 q 535 719 472 746 q 642 644 599 693 q 710 524 686 594 q 733 365 733 453 q 710 207 733 278 q 642 86 686 136 q 535 10 599 36 q 392 -17 472 -17 m 392 146 q 486 183 453 146 q 519 290 519 221 l 519 439 q 486 546 519 508 q 392 583 453 583 q 297 546 331 583 q 264 439 264 508 l 264 290 q 297 183 264 221 q 392 146 331 146 m 306 815 l 122 1036 l 224 1117 l 392 957 l 560 1117 l 661 1036 l 478 815 l 306 815 z "},"ô":{"ha":783,"x_min":50,"x_max":733,"o":"m 392 -17 q 248 10 311 -17 q 141 86 185 36 q 74 207 97 136 q 50 365 50 278 q 74 524 50 453 q 141 644 97 594 q 248 719 185 693 q 392 746 311 746 q 535 719 472 746 q 642 644 599 693 q 710 524 686 594 q 733 365 733 453 q 710 207 733 278 q 642 86 686 136 q 535 10 599 36 q 392 -17 472 -17 m 392 146 q 486 183 453 146 q 519 290 519 221 l 519 439 q 486 546 519 508 q 392 583 453 583 q 297 546 331 583 q 264 439 264 508 l 264 290 q 297 183 264 221 q 392 146 331 146 m 478 1104 l 661 883 l 560 803 l 392 963 l 224 803 l 122 883 l 306 1104 l 478 1104 z "},"ö":{"ha":783,"x_min":50,"x_max":733,"o":"m 392 -17 q 248 10 311 -17 q 141 86 185 36 q 74 207 97 136 q 50 365 50 278 q 74 524 50 453 q 141 644 97 594 q 248 719 185 693 q 392 746 311 746 q 535 719 472 746 q 642 644 599 693 q 710 524 686 594 q 733 365 733 453 q 710 207 733 278 q 642 86 686 136 q 535 10 599 36 q 392 -17 472 -17 m 392 146 q 486 183 453 146 q 519 290 519 221 l 519 439 q 486 546 519 508 q 392 583 453 583 q 297 546 331 583 q 264 439 264 508 l 264 290 q 297 183 264 221 q 392 146 331 146 m 239 833 q 152 859 176 833 q 128 921 128 885 l 128 956 q 152 1017 128 992 q 239 1043 176 1043 q 326 1017 301 1043 q 350 956 350 992 l 350 921 q 326 859 350 885 q 239 833 301 833 m 544 833 q 458 859 482 833 q 433 921 433 885 l 433 956 q 458 1017 433 992 q 544 1043 482 1043 q 631 1017 607 1043 q 656 956 656 992 l 656 921 q 631 859 656 885 q 544 833 607 833 z "},"ọ":{"ha":783,"x_min":50,"x_max":733,"o":"m 392 -17 q 248 10 311 -17 q 141 86 185 36 q 74 207 97 136 q 50 365 50 278 q 74 524 50 453 q 141 644 97 594 q 248 719 185 693 q 392 746 311 746 q 535 719 472 746 q 642 644 599 693 q 710 524 686 594 q 733 365 733 453 q 710 207 733 278 q 642 86 686 136 q 535 10 599 36 q 392 -17 472 -17 m 392 146 q 486 183 453 146 q 519 290 519 221 l 519 439 q 486 546 519 508 q 392 583 453 583 q 297 546 331 583 q 264 439 264 508 l 264 290 q 297 183 264 221 q 392 146 331 146 m 390 -283 q 303 -258 328 -283 q 278 -196 278 -232 l 278 -160 q 303 -98 278 -124 q 390 -72 328 -72 q 478 -98 453 -72 q 503 -160 503 -124 l 503 -196 q 478 -258 503 -232 q 390 -283 453 -283 z "},"ò":{"ha":783,"x_min":50,"x_max":733,"o":"m 392 -17 q 248 10 311 -17 q 141 86 185 36 q 74 207 97 136 q 50 365 50 278 q 74 524 50 453 q 141 644 97 594 q 248 719 185 693 q 392 746 311 746 q 535 719 472 746 q 642 644 599 693 q 710 524 686 594 q 733 365 733 453 q 710 207 733 278 q 642 86 686 136 q 535 10 599 36 q 392 -17 472 -17 m 392 146 q 486 183 453 146 q 519 290 519 221 l 519 439 q 486 546 519 508 q 392 583 453 583 q 297 546 331 583 q 264 439 264 508 l 264 290 q 297 183 264 221 q 392 146 331 146 m 183 1049 l 354 1133 l 492 864 l 369 804 l 183 1049 z "},"ỏ":{"ha":783,"x_min":50,"x_max":733,"o":"m 392 -17 q 248 10 311 -17 q 141 86 185 36 q 74 207 97 136 q 50 365 50 278 q 74 524 50 453 q 141 644 97 594 q 248 719 185 693 q 392 746 311 746 q 535 719 472 746 q 642 644 599 693 q 710 524 686 594 q 733 365 733 453 q 710 207 733 278 q 642 86 686 136 q 535 10 599 36 q 392 -17 472 -17 m 392 146 q 486 183 453 146 q 519 290 519 221 l 519 439 q 486 546 519 508 q 392 583 453 583 q 297 546 331 583 q 264 439 264 508 l 264 290 q 297 183 264 221 q 392 146 331 146 m 224 1114 l 422 1114 q 488 1106 461 1114 q 529 1083 514 1097 q 551 1051 544 1069 q 558 1013 558 1033 q 536 926 558 972 q 479 838 514 879 l 440 790 l 336 839 l 393 967 l 224 967 l 224 1114 z "},"ő":{"ha":783,"x_min":50,"x_max":738,"o":"m 392 -17 q 248 10 311 -17 q 141 86 185 36 q 74 207 97 136 q 50 365 50 278 q 74 524 50 453 q 141 644 97 594 q 248 719 185 693 q 392 746 311 746 q 535 719 472 746 q 642 644 599 693 q 710 524 686 594 q 733 365 733 453 q 710 207 733 278 q 642 86 686 136 q 535 10 599 36 q 392 -17 472 -17 m 392 146 q 486 183 453 146 q 519 290 519 221 l 519 439 q 486 546 519 508 q 392 583 453 583 q 297 546 331 583 q 264 439 264 508 l 264 290 q 297 183 264 221 q 392 146 331 146 m 267 804 l 154 858 l 292 1128 l 453 1049 l 267 804 m 551 804 l 439 858 l 576 1128 l 738 1049 l 551 804 z "},"ō":{"ha":783,"x_min":50,"x_max":733,"o":"m 392 -17 q 248 10 311 -17 q 141 86 185 36 q 74 207 97 136 q 50 365 50 278 q 74 524 50 453 q 141 644 97 594 q 248 719 185 693 q 392 746 311 746 q 535 719 472 746 q 642 644 599 693 q 710 524 686 594 q 733 365 733 453 q 710 207 733 278 q 642 86 686 136 q 535 10 599 36 q 392 -17 472 -17 m 392 146 q 486 183 453 146 q 519 290 519 221 l 519 439 q 486 546 519 508 q 392 583 453 583 q 297 546 331 583 q 264 439 264 508 l 264 290 q 297 183 264 221 q 392 146 331 146 m 179 1010 l 604 1010 l 604 867 l 179 867 l 179 1010 z "},"ø":{"ha":794,"x_min":19,"x_max":775,"o":"m 19 14 l 113 129 q 56 365 56 224 q 79 524 56 453 q 147 644 103 594 q 253 719 190 693 q 397 746 317 746 q 581 699 501 746 l 664 799 l 775 715 l 681 599 q 739 364 739 507 q 715 206 739 276 q 648 85 692 135 q 541 10 604 36 q 397 -17 478 -17 q 298 -5 344 -17 q 214 29 251 7 l 131 -69 l 19 14 m 397 133 q 497 178 461 133 q 532 297 532 222 l 532 433 l 308 165 q 397 133 343 133 m 263 297 l 485 564 q 397 596 450 596 q 298 551 333 596 q 263 432 263 507 l 263 297 z "},"ǿ":{"ha":794,"x_min":19,"x_max":775,"o":"m 19 14 l 113 129 q 56 365 56 224 q 79 524 56 453 q 147 644 103 594 q 253 719 190 693 q 397 746 317 746 q 581 699 501 746 l 664 799 l 775 715 l 681 599 q 739 364 739 507 q 715 206 739 276 q 648 85 692 135 q 541 10 604 36 q 397 -17 478 -17 q 298 -5 344 -17 q 214 29 251 7 l 131 -69 l 19 14 m 397 133 q 497 178 461 133 q 532 297 532 222 l 532 433 l 308 165 q 397 133 343 133 m 263 297 l 485 564 q 397 596 450 596 q 298 551 333 596 q 263 432 263 507 l 263 297 m 419 804 l 297 864 l 435 1133 l 606 1049 l 419 804 z "},"õ":{"ha":783,"x_min":50,"x_max":733,"o":"m 392 -17 q 248 10 311 -17 q 141 86 185 36 q 74 207 97 136 q 50 365 50 278 q 74 524 50 453 q 141 644 97 594 q 248 719 185 693 q 392 746 311 746 q 535 719 472 746 q 642 644 599 693 q 710 524 686 594 q 733 365 733 453 q 710 207 733 278 q 642 86 686 136 q 535 10 599 36 q 392 -17 472 -17 m 392 146 q 486 183 453 146 q 519 290 519 221 l 519 439 q 486 546 519 508 q 392 583 453 583 q 297 546 331 583 q 264 439 264 508 l 264 290 q 297 183 264 221 q 392 146 331 146 m 497 835 q 441 843 465 835 q 390 863 417 851 q 335 884 360 875 q 282 893 310 893 q 240 885 258 893 q 200 858 222 876 l 128 953 q 192 1016 153 990 q 286 1042 231 1042 q 342 1033 318 1042 q 393 1014 367 1025 q 449 992 424 1001 q 501 983 474 983 q 543 992 525 983 q 583 1018 561 1000 l 656 924 q 592 860 631 886 q 497 835 553 835 z "},"ơ":{"ha":783,"x_min":50,"x_max":765,"o":"m 765 876 l 765 746 q 744 649 765 681 q 671 610 722 617 q 719 501 704 558 q 733 369 733 443 q 710 210 733 282 q 642 88 686 139 q 535 10 599 38 q 392 -17 472 -17 q 248 10 311 -17 q 141 88 185 38 q 74 210 97 139 q 50 369 50 282 q 140 646 50 546 q 392 746 231 746 q 510 729 456 746 l 593 729 l 593 876 l 765 876 m 392 146 q 486 183 453 146 q 519 290 519 221 l 519 439 q 486 546 519 508 q 392 583 453 583 q 297 546 331 583 q 264 439 264 508 l 264 290 q 297 183 264 221 q 392 146 331 146 z "},"ớ":{"ha":783,"x_min":50,"x_max":765,"o":"m 765 876 l 765 746 q 744 649 765 681 q 671 610 722 617 q 719 501 704 558 q 733 369 733 443 q 710 210 733 282 q 642 88 686 139 q 535 10 599 38 q 392 -17 472 -17 q 248 10 311 -17 q 141 88 185 38 q 74 210 97 139 q 50 369 50 282 q 140 646 50 546 q 392 746 231 746 q 510 729 456 746 l 593 729 l 593 876 l 765 876 m 392 146 q 486 183 453 146 q 519 290 519 221 l 519 439 q 486 546 519 508 q 392 583 453 583 q 297 546 331 583 q 264 439 264 508 l 264 290 q 297 183 264 221 q 392 146 331 146 m 414 804 l 292 864 l 429 1133 l 600 1049 l 414 804 z "},"ợ":{"ha":783,"x_min":50,"x_max":765,"o":"m 765 876 l 765 746 q 744 649 765 681 q 671 610 722 617 q 719 501 704 558 q 733 369 733 443 q 710 210 733 282 q 642 88 686 139 q 535 10 599 38 q 392 -17 472 -17 q 248 10 311 -17 q 141 88 185 38 q 74 210 97 139 q 50 369 50 282 q 140 646 50 546 q 392 746 231 746 q 510 729 456 746 l 593 729 l 593 876 l 765 876 m 392 146 q 486 183 453 146 q 519 290 519 221 l 519 439 q 486 546 519 508 q 392 583 453 583 q 297 546 331 583 q 264 439 264 508 l 264 290 q 297 183 264 221 q 392 146 331 146 m 390 -283 q 303 -258 328 -283 q 278 -196 278 -232 l 278 -160 q 303 -98 278 -124 q 390 -72 328 -72 q 478 -98 453 -72 q 503 -160 503 -124 l 503 -196 q 478 -258 503 -232 q 390 -283 453 -283 z "},"ờ":{"ha":783,"x_min":50,"x_max":765,"o":"m 765 876 l 765 746 q 744 649 765 681 q 671 610 722 617 q 719 501 704 558 q 733 369 733 443 q 710 210 733 282 q 642 88 686 139 q 535 10 599 38 q 392 -17 472 -17 q 248 10 311 -17 q 141 88 185 38 q 74 210 97 139 q 50 369 50 282 q 140 646 50 546 q 392 746 231 746 q 510 729 456 746 l 593 729 l 593 876 l 765 876 m 392 146 q 486 183 453 146 q 519 290 519 221 l 519 439 q 486 546 519 508 q 392 583 453 583 q 297 546 331 583 q 264 439 264 508 l 264 290 q 297 183 264 221 q 392 146 331 146 m 183 1049 l 354 1133 l 492 864 l 369 804 l 183 1049 z "},"ở":{"ha":783,"x_min":50,"x_max":765,"o":"m 765 876 l 765 746 q 744 649 765 681 q 671 610 722 617 q 719 501 704 558 q 733 369 733 443 q 710 210 733 282 q 642 88 686 139 q 535 10 599 38 q 392 -17 472 -17 q 248 10 311 -17 q 141 88 185 38 q 74 210 97 139 q 50 369 50 282 q 140 646 50 546 q 392 746 231 746 q 510 729 456 746 l 593 729 l 593 876 l 765 876 m 392 146 q 486 183 453 146 q 519 290 519 221 l 519 439 q 486 546 519 508 q 392 583 453 583 q 297 546 331 583 q 264 439 264 508 l 264 290 q 297 183 264 221 q 392 146 331 146 m 224 1114 l 422 1114 q 488 1106 461 1114 q 529 1083 514 1097 q 551 1051 544 1069 q 558 1013 558 1033 q 536 926 558 972 q 479 838 514 879 l 440 790 l 336 839 l 393 967 l 224 967 l 224 1114 z "},"ỡ":{"ha":783,"x_min":50,"x_max":765,"o":"m 765 876 l 765 746 q 744 649 765 681 q 671 610 722 617 q 719 501 704 558 q 733 369 733 443 q 710 210 733 282 q 642 88 686 139 q 535 10 599 38 q 392 -17 472 -17 q 248 10 311 -17 q 141 88 185 38 q 74 210 97 139 q 50 369 50 282 q 140 646 50 546 q 392 746 231 746 q 510 729 456 746 l 593 729 l 593 876 l 765 876 m 392 146 q 486 183 453 146 q 519 290 519 221 l 519 439 q 486 546 519 508 q 392 583 453 583 q 297 546 331 583 q 264 439 264 508 l 264 290 q 297 183 264 221 q 392 146 331 146 m 483 835 q 435 843 456 835 q 390 863 414 851 q 342 884 364 875 q 297 893 321 893 q 229 864 263 893 l 158 950 q 216 1015 182 989 q 300 1042 250 1042 q 349 1033 328 1042 q 393 1014 369 1025 q 441 992 419 1001 q 486 983 463 983 q 554 1013 521 983 l 625 926 q 567 861 601 888 q 483 835 533 835 z "},"ố":{"ha":783,"x_min":50,"x_max":817,"o":"m 392 -17 q 248 10 311 -17 q 141 86 185 36 q 74 207 97 136 q 50 365 50 278 q 74 524 50 453 q 141 644 97 594 q 248 719 185 693 q 392 746 311 746 q 535 719 472 746 q 642 644 599 693 q 710 524 686 594 q 733 365 733 453 q 710 207 733 278 q 642 86 686 136 q 535 10 599 36 q 392 -17 472 -17 m 392 146 q 486 183 453 146 q 519 290 519 221 l 519 439 q 486 546 519 508 q 392 583 453 583 q 297 546 331 583 q 264 439 264 508 l 264 290 q 297 183 264 221 q 392 146 331 146 m 631 1018 l 521 1072 l 658 1342 l 817 1263 l 631 1018 m 456 1085 l 657 881 l 563 792 l 390 936 l 218 792 l 124 881 l 325 1085 l 456 1085 z "},"ộ":{"ha":783,"x_min":50,"x_max":733,"o":"m 392 -17 q 248 10 311 -17 q 141 86 185 36 q 74 207 97 136 q 50 365 50 278 q 74 524 50 453 q 141 644 97 594 q 248 719 185 693 q 392 746 311 746 q 535 719 472 746 q 642 644 599 693 q 710 524 686 594 q 733 365 733 453 q 710 207 733 278 q 642 86 686 136 q 535 10 599 36 q 392 -17 472 -17 m 392 146 q 486 183 453 146 q 519 290 519 221 l 519 439 q 486 546 519 508 q 392 583 453 583 q 297 546 331 583 q 264 439 264 508 l 264 290 q 297 183 264 221 q 392 146 331 146 m 478 1104 l 661 883 l 560 803 l 392 963 l 224 803 l 122 883 l 306 1104 l 478 1104 m 390 -283 q 303 -258 328 -283 q 278 -196 278 -232 l 278 -160 q 303 -98 278 -124 q 390 -72 328 -72 q 478 -98 453 -72 q 503 -160 503 -124 l 503 -196 q 478 -258 503 -232 q 390 -283 453 -283 z "},"ồ":{"ha":783,"x_min":-36,"x_max":733,"o":"m 392 -17 q 248 10 311 -17 q 141 86 185 36 q 74 207 97 136 q 50 365 50 278 q 74 524 50 453 q 141 644 97 594 q 248 719 185 693 q 392 746 311 746 q 535 719 472 746 q 642 644 599 693 q 710 524 686 594 q 733 365 733 453 q 710 207 733 278 q 642 86 686 136 q 535 10 599 36 q 392 -17 472 -17 m 392 146 q 486 183 453 146 q 519 290 519 221 l 519 439 q 486 546 519 508 q 392 583 453 583 q 297 546 331 583 q 264 439 264 508 l 264 290 q 297 183 264 221 q 392 146 331 146 m -36 1263 l 122 1342 l 260 1072 l 150 1018 l -36 1263 m 456 1085 l 657 881 l 563 792 l 390 936 l 218 792 l 124 881 l 325 1085 l 456 1085 z "},"ổ":{"ha":783,"x_min":50,"x_max":765,"o":"m 392 -17 q 248 10 311 -17 q 141 86 185 36 q 74 207 97 136 q 50 365 50 278 q 74 524 50 453 q 141 644 97 594 q 248 719 185 693 q 392 746 311 746 q 535 719 472 746 q 642 644 599 693 q 710 524 686 594 q 733 365 733 453 q 710 207 733 278 q 642 86 686 136 q 535 10 599 36 q 392 -17 472 -17 m 392 146 q 486 183 453 146 q 519 290 519 221 l 519 439 q 486 546 519 508 q 392 583 453 583 q 297 546 331 583 q 264 439 264 508 l 264 290 q 297 183 264 221 q 392 146 331 146 m 443 1322 l 629 1322 q 694 1314 668 1322 q 735 1292 719 1306 q 758 1260 751 1278 q 765 1222 765 1242 q 739 1134 765 1181 q 678 1046 713 1088 l 640 1000 l 549 1047 l 608 1182 l 443 1182 l 443 1322 m 456 1085 l 657 881 l 563 792 l 390 936 l 218 792 l 124 881 l 325 1085 l 456 1085 z "},"ỗ":{"ha":783,"x_min":50,"x_max":733,"o":"m 392 -17 q 248 10 311 -17 q 141 86 185 36 q 74 207 97 136 q 50 365 50 278 q 74 524 50 453 q 141 644 97 594 q 248 719 185 693 q 392 746 311 746 q 535 719 472 746 q 642 644 599 693 q 710 524 686 594 q 733 365 733 453 q 710 207 733 278 q 642 86 686 136 q 535 10 599 36 q 392 -17 472 -17 m 392 146 q 486 183 453 146 q 519 290 519 221 l 519 439 q 486 546 519 508 q 392 583 453 583 q 297 546 331 583 q 264 439 264 508 l 264 290 q 297 183 264 221 q 392 146 331 146 m 286 1308 q 342 1300 318 1308 q 393 1281 367 1292 q 449 1259 424 1268 q 501 1250 474 1250 q 543 1258 525 1250 q 583 1285 561 1267 l 653 1196 q 589 1133 628 1158 q 494 1107 550 1107 q 438 1115 463 1107 q 388 1135 414 1124 q 332 1156 357 1147 q 279 1165 307 1165 q 238 1157 256 1165 q 197 1131 219 1149 l 128 1219 q 192 1283 153 1257 q 286 1308 231 1308 m 457 1067 l 654 881 l 563 792 l 390 924 l 218 792 l 126 881 l 324 1067 l 457 1067 z "},"œ":{"ha":1251,"x_min":50,"x_max":1201,"o":"m 392 146 q 486 183 453 146 q 519 290 519 221 l 519 439 q 486 546 519 508 q 392 583 453 583 q 297 546 331 583 q 264 439 264 508 l 264 290 q 297 183 264 221 q 392 146 331 146 m 988 433 l 988 446 q 958 553 988 513 q 865 594 928 594 q 767 553 803 594 q 732 444 732 513 l 732 433 l 988 433 m 875 -17 q 717 12 782 -17 q 631 86 653 40 l 622 86 q 537 10 594 38 q 392 -17 479 -17 q 248 10 311 -17 q 141 88 185 38 q 74 210 97 139 q 50 369 50 282 q 140 646 50 546 q 392 746 231 746 q 530 722 471 746 q 622 643 589 697 l 631 643 q 719 719 658 692 q 868 746 781 746 q 1011 719 949 746 q 1116 644 1074 693 q 1180 527 1158 596 q 1201 374 1201 458 l 1201 313 l 732 313 l 732 301 q 773 187 732 229 q 899 144 814 144 q 1003 170 963 144 q 1078 232 1043 196 l 1181 104 q 1053 15 1132 47 q 875 -17 975 -17 z "},"ŕ":{"ha":561,"x_min":96,"x_max":531,"o":"m 96 0 l 96 729 l 301 729 l 301 571 l 308 571 q 328 630 314 601 q 365 681 342 658 q 419 716 388 703 q 494 729 451 729 l 531 729 l 531 538 l 479 538 q 345 514 389 538 q 301 426 301 490 l 301 0 l 96 0 m 335 804 l 213 864 l 350 1133 l 521 1049 l 335 804 z "},"ř":{"ha":561,"x_min":43,"x_max":582,"o":"m 96 0 l 96 729 l 301 729 l 301 571 l 308 571 q 328 630 314 601 q 365 681 342 658 q 419 716 388 703 q 494 729 451 729 l 531 729 l 531 538 l 479 538 q 345 514 389 538 q 301 426 301 490 l 301 0 l 96 0 m 226 815 l 43 1036 l 144 1117 l 313 957 l 481 1117 l 582 1036 l 399 815 l 226 815 z "},"ŗ":{"ha":561,"x_min":83,"x_max":531,"o":"m 96 0 l 96 729 l 301 729 l 301 571 l 308 571 q 328 630 314 601 q 365 681 342 658 q 419 716 388 703 q 494 729 451 729 l 531 729 l 531 538 l 479 538 q 345 514 389 538 q 301 426 301 490 l 301 0 l 96 0 m 197 -58 q 269 -81 243 -58 q 294 -144 294 -103 l 294 -164 q 268 -287 294 -228 q 201 -382 242 -347 l 83 -382 q 139 -319 119 -351 q 169 -244 158 -286 q 115 -216 129 -242 q 100 -160 100 -190 l 100 -144 q 126 -81 100 -103 q 197 -58 151 -58 z "},"ś":{"ha":700,"x_min":36,"x_max":656,"o":"m 343 -17 q 165 17 238 -17 q 36 114 93 51 l 157 236 q 243 168 196 193 q 350 143 290 143 q 435 162 411 143 q 458 213 458 181 q 385 274 458 264 l 306 283 q 60 508 60 314 q 80 605 60 561 q 137 680 100 649 q 226 728 174 711 q 343 746 278 746 q 444 738 400 746 q 522 716 488 731 q 584 680 556 701 q 640 632 613 658 l 522 511 q 444 566 488 546 q 354 586 400 586 q 279 569 301 586 q 257 525 257 553 q 273 480 257 496 q 333 457 289 464 l 415 446 q 656 226 656 414 q 633 129 656 174 q 570 52 611 85 q 472 1 529 19 q 343 -17 414 -17 m 371 804 l 249 864 l 386 1133 l 557 1049 l 371 804 z "},"š":{"ha":700,"x_min":36,"x_max":656,"o":"m 343 -17 q 165 17 238 -17 q 36 114 93 51 l 157 236 q 243 168 196 193 q 350 143 290 143 q 435 162 411 143 q 458 213 458 181 q 385 274 458 264 l 306 283 q 60 508 60 314 q 80 605 60 561 q 137 680 100 649 q 226 728 174 711 q 343 746 278 746 q 444 738 400 746 q 522 716 488 731 q 584 680 556 701 q 640 632 613 658 l 522 511 q 444 566 488 546 q 354 586 400 586 q 279 569 301 586 q 257 525 257 553 q 273 480 257 496 q 333 457 289 464 l 415 446 q 656 226 656 414 q 633 129 656 174 q 570 52 611 85 q 472 1 529 19 q 343 -17 414 -17 m 263 815 l 79 1036 l 181 1117 l 349 957 l 517 1117 l 618 1036 l 435 815 l 263 815 z "},"ş":{"ha":700,"x_min":36,"x_max":656,"o":"m 364 -294 q 251 -274 292 -294 q 192 -233 210 -254 l 256 -156 q 292 -184 269 -172 q 347 -196 315 -196 q 391 -187 374 -196 q 408 -161 408 -179 q 404 -144 408 -153 q 388 -128 400 -136 q 356 -115 376 -121 q 304 -106 336 -108 l 275 -103 l 293 -14 q 147 26 208 -7 q 36 114 85 58 l 157 236 q 243 168 196 193 q 350 143 290 143 q 435 162 411 143 q 458 213 458 181 q 385 274 458 264 l 306 283 q 60 508 60 314 q 80 605 60 561 q 137 680 100 649 q 226 728 174 711 q 343 746 278 746 q 444 738 400 746 q 522 716 488 731 q 584 680 556 701 q 640 632 613 658 l 522 511 q 444 566 488 546 q 354 586 400 586 q 279 569 301 586 q 257 525 257 553 q 273 480 257 496 q 333 457 289 464 l 415 446 q 656 226 656 414 q 637 136 656 178 q 583 63 618 94 q 497 10 547 31 q 386 -15 447 -10 l 374 -76 l 379 -82 q 413 -75 396 -78 q 446 -72 429 -72 q 517 -94 488 -72 q 547 -168 547 -117 q 532 -228 547 -204 q 491 -267 517 -251 q 432 -288 465 -282 q 364 -294 399 -294 z "},"ŝ":{"ha":700,"x_min":36,"x_max":656,"o":"m 343 -17 q 165 17 238 -17 q 36 114 93 51 l 157 236 q 243 168 196 193 q 350 143 290 143 q 435 162 411 143 q 458 213 458 181 q 385 274 458 264 l 306 283 q 60 508 60 314 q 80 605 60 561 q 137 680 100 649 q 226 728 174 711 q 343 746 278 746 q 444 738 400 746 q 522 716 488 731 q 584 680 556 701 q 640 632 613 658 l 522 511 q 444 566 488 546 q 354 586 400 586 q 279 569 301 586 q 257 525 257 553 q 273 480 257 496 q 333 457 289 464 l 415 446 q 656 226 656 414 q 633 129 656 174 q 570 52 611 85 q 472 1 529 19 q 343 -17 414 -17 m 435 1104 l 618 883 l 517 803 l 349 963 l 181 803 l 79 883 l 263 1104 l 435 1104 z "},"ș":{"ha":700,"x_min":36,"x_max":656,"o":"m 343 -17 q 165 17 238 -17 q 36 114 93 51 l 157 236 q 243 168 196 193 q 350 143 290 143 q 435 162 411 143 q 458 213 458 181 q 385 274 458 264 l 306 283 q 60 508 60 314 q 80 605 60 561 q 137 680 100 649 q 226 728 174 711 q 343 746 278 746 q 444 738 400 746 q 522 716 488 731 q 584 680 556 701 q 640 632 613 658 l 522 511 q 444 566 488 546 q 354 586 400 586 q 279 569 301 586 q 257 525 257 553 q 273 480 257 496 q 333 457 289 464 l 415 446 q 656 226 656 414 q 633 129 656 174 q 570 52 611 85 q 472 1 529 19 q 343 -17 414 -17 m 344 -58 q 416 -81 390 -58 q 442 -144 442 -103 l 442 -164 q 415 -287 442 -228 q 349 -382 389 -347 l 231 -382 q 286 -319 267 -351 q 317 -244 306 -286 q 262 -216 276 -242 q 247 -160 247 -190 l 247 -144 q 273 -81 247 -103 q 344 -58 299 -58 z "},"ſ":{"ha":433,"x_min":29,"x_max":483,"o":"m 132 569 l 29 569 l 29 729 l 132 729 l 132 815 q 188 974 132 921 q 350 1028 243 1028 l 483 1028 l 483 868 l 338 868 l 338 0 l 132 0 l 132 569 z "},"ß":{"ha":961,"x_min":29,"x_max":926,"o":"m 926 240 q 906 133 926 181 q 851 53 886 86 q 766 1 815 19 q 657 -17 717 -17 q 504 8 569 -17 q 399 88 439 33 l 515 207 q 581 153 547 169 q 654 136 614 136 q 715 156 692 136 q 738 215 738 176 q 716 270 738 251 q 646 304 694 289 l 603 318 q 489 388 531 342 q 447 519 447 435 q 499 658 447 603 q 643 735 550 714 l 643 738 q 605 855 643 818 q 490 892 567 892 q 376 855 414 892 q 338 738 338 818 l 338 0 l 132 0 l 132 569 l 29 569 l 29 729 l 132 729 l 132 735 q 158 865 132 807 q 230 963 183 922 q 342 1024 276 1003 q 485 1044 407 1044 q 626 1024 563 1044 q 736 964 690 1003 q 807 867 782 925 q 832 738 832 810 l 832 603 l 754 603 q 663 588 689 603 q 636 538 636 574 q 657 490 636 504 q 722 460 678 475 l 765 446 q 883 374 840 422 q 926 240 926 326 z "},"ŧ":{"ha":543,"x_min":38,"x_max":490,"o":"m 479 0 l 357 0 q 195 54 250 0 q 140 213 140 108 l 140 307 l 51 307 l 51 446 l 140 446 l 140 569 l 38 569 l 38 729 l 89 729 q 146 749 131 729 q 161 807 161 769 l 161 926 l 346 926 l 346 729 l 490 729 l 490 569 l 346 569 l 346 446 l 464 446 l 464 307 l 346 307 l 346 160 l 479 160 l 479 0 z "},"ť":{"ha":539,"x_min":32,"x_max":654,"o":"m 351 0 q 190 54 244 0 q 135 213 135 108 l 135 569 l 32 569 l 32 729 l 83 729 q 140 749 125 729 q 156 807 156 769 l 156 926 l 340 926 l 340 729 l 485 729 l 485 569 l 340 569 l 340 160 l 474 160 l 474 0 l 351 0 m 563 800 l 428 800 l 436 1099 l 654 1099 l 563 800 z "},"ț":{"ha":532,"x_min":32,"x_max":485,"o":"m 351 0 q 190 54 244 0 q 135 213 135 108 l 135 569 l 32 569 l 32 729 l 83 729 q 140 749 125 729 q 156 807 156 769 l 156 926 l 340 926 l 340 729 l 485 729 l 485 569 l 340 569 l 340 160 l 474 160 l 474 0 l 351 0 m 317 -58 q 388 -81 363 -58 q 414 -144 414 -103 l 414 -164 q 388 -287 414 -228 q 321 -382 361 -347 l 203 -382 q 258 -319 239 -351 q 289 -244 278 -286 q 234 -216 249 -242 q 219 -160 219 -190 l 219 -144 q 245 -81 219 -103 q 317 -58 271 -58 z "},"ţ":{"ha":532,"x_min":32,"x_max":521,"o":"m 338 -294 q 224 -274 265 -294 q 165 -233 183 -254 l 229 -156 q 266 -184 243 -172 q 321 -196 289 -196 q 365 -187 347 -196 q 382 -161 382 -179 q 378 -144 382 -153 q 362 -128 374 -136 q 330 -115 350 -121 q 278 -106 310 -108 l 249 -103 l 272 10 q 135 213 135 46 l 135 569 l 32 569 l 32 729 l 83 729 q 140 749 125 729 q 156 807 156 769 l 156 926 l 340 926 l 340 729 l 485 729 l 485 569 l 340 569 l 340 160 l 474 160 l 474 0 l 363 0 l 347 -76 l 353 -82 q 386 -75 369 -78 q 419 -72 403 -72 q 491 -94 461 -72 q 521 -168 521 -117 q 506 -228 521 -204 q 465 -267 490 -251 q 406 -288 439 -282 q 338 -294 372 -294 z "},"þ":{"ha":844,"x_min":96,"x_max":785,"o":"m 96 1028 l 301 1028 l 301 607 l 308 607 q 378 707 324 668 q 504 746 433 746 q 714 649 643 746 q 785 365 785 551 q 714 81 785 179 q 504 -17 643 -17 q 436 -6 468 -17 q 378 23 404 4 q 335 67 353 42 q 308 122 317 93 l 301 122 l 301 -278 l 96 -278 l 96 1028 m 436 150 q 533 191 494 150 q 571 301 571 232 l 571 428 q 533 538 571 497 q 436 579 494 579 q 340 551 378 579 q 301 472 301 522 l 301 257 q 340 178 301 207 q 436 150 378 150 z "},"ú":{"ha":828,"x_min":88,"x_max":732,"o":"m 526 122 l 519 122 q 494 69 510 94 q 453 25 478 44 q 394 -6 428 6 q 315 -17 360 -17 q 145 58 203 -17 q 88 271 88 132 l 88 729 l 293 729 l 293 289 q 317 186 293 222 q 397 150 340 150 q 444 157 421 150 q 486 177 468 164 q 515 210 504 190 q 526 256 526 229 l 526 729 l 732 729 l 732 0 l 526 0 l 526 122 m 433 804 l 311 864 l 449 1133 l 619 1049 l 433 804 z "},"ŭ":{"ha":828,"x_min":88,"x_max":732,"o":"m 526 122 l 519 122 q 494 69 510 94 q 453 25 478 44 q 394 -6 428 6 q 315 -17 360 -17 q 145 58 203 -17 q 88 271 88 132 l 88 729 l 293 729 l 293 289 q 317 186 293 222 q 397 150 340 150 q 444 157 421 150 q 486 177 468 164 q 515 210 504 190 q 526 256 526 229 l 526 729 l 732 729 l 732 0 l 526 0 l 526 122 m 411 804 q 306 827 350 804 q 231 885 261 850 q 180 961 200 919 q 147 1040 160 1003 l 260 1099 l 288 1053 q 347 975 318 1003 q 411 947 375 947 q 476 975 447 947 q 536 1053 506 1003 l 564 1099 l 675 1040 q 642 961 663 1003 q 589 885 621 919 q 513 827 557 850 q 411 804 469 804 z "},"ǔ":{"ha":828,"x_min":88,"x_max":732,"o":"m 526 122 l 519 122 q 494 69 510 94 q 453 25 478 44 q 394 -6 428 6 q 315 -17 360 -17 q 145 58 203 -17 q 88 271 88 132 l 88 729 l 293 729 l 293 289 q 317 186 293 222 q 397 150 340 150 q 444 157 421 150 q 486 177 468 164 q 515 210 504 190 q 526 256 526 229 l 526 729 l 732 729 l 732 0 l 526 0 l 526 122 m 325 815 l 142 1036 l 243 1117 l 411 957 l 579 1117 l 681 1036 l 497 815 l 325 815 z "},"û":{"ha":828,"x_min":88,"x_max":732,"o":"m 526 122 l 519 122 q 494 69 510 94 q 453 25 478 44 q 394 -6 428 6 q 315 -17 360 -17 q 145 58 203 -17 q 88 271 88 132 l 88 729 l 293 729 l 293 289 q 317 186 293 222 q 397 150 340 150 q 444 157 421 150 q 486 177 468 164 q 515 210 504 190 q 526 256 526 229 l 526 729 l 732 729 l 732 0 l 526 0 l 526 122 m 497 1104 l 681 883 l 579 803 l 411 963 l 243 803 l 142 883 l 325 1104 l 497 1104 z "},"ü":{"ha":828,"x_min":88,"x_max":732,"o":"m 526 122 l 519 122 q 494 69 510 94 q 453 25 478 44 q 394 -6 428 6 q 315 -17 360 -17 q 145 58 203 -17 q 88 271 88 132 l 88 729 l 293 729 l 293 289 q 317 186 293 222 q 397 150 340 150 q 444 157 421 150 q 486 177 468 164 q 515 210 504 190 q 526 256 526 229 l 526 729 l 732 729 l 732 0 l 526 0 l 526 122 m 258 833 q 172 859 196 833 q 147 921 147 885 l 147 956 q 172 1017 147 992 q 258 1043 196 1043 q 345 1017 321 1043 q 369 956 369 992 l 369 921 q 345 859 369 885 q 258 833 321 833 m 564 833 q 477 859 501 833 q 453 921 453 885 l 453 956 q 477 1017 453 992 q 564 1043 501 1043 q 651 1017 626 1043 q 675 956 675 992 l 675 921 q 651 859 675 885 q 564 833 626 833 z "},"ụ":{"ha":828,"x_min":88,"x_max":732,"o":"m 526 122 l 519 122 q 494 69 510 94 q 453 25 478 44 q 394 -6 428 6 q 315 -17 360 -17 q 145 58 203 -17 q 88 271 88 132 l 88 729 l 293 729 l 293 289 q 317 186 293 222 q 397 150 340 150 q 444 157 421 150 q 486 177 468 164 q 515 210 504 190 q 526 256 526 229 l 526 729 l 732 729 l 732 0 l 526 0 l 526 122 m 410 -283 q 322 -258 347 -283 q 297 -196 297 -232 l 297 -160 q 322 -98 297 -124 q 410 -72 347 -72 q 497 -98 472 -72 q 522 -160 522 -124 l 522 -196 q 497 -258 522 -232 q 410 -283 472 -283 z "},"ù":{"ha":828,"x_min":88,"x_max":732,"o":"m 526 122 l 519 122 q 494 69 510 94 q 453 25 478 44 q 394 -6 428 6 q 315 -17 360 -17 q 145 58 203 -17 q 88 271 88 132 l 88 729 l 293 729 l 293 289 q 317 186 293 222 q 397 150 340 150 q 444 157 421 150 q 486 177 468 164 q 515 210 504 190 q 526 256 526 229 l 526 729 l 732 729 l 732 0 l 526 0 l 526 122 m 203 1049 l 374 1133 l 511 864 l 389 804 l 203 1049 z "},"ủ":{"ha":828,"x_min":88,"x_max":732,"o":"m 526 122 l 519 122 q 494 69 510 94 q 453 25 478 44 q 394 -6 428 6 q 315 -17 360 -17 q 145 58 203 -17 q 88 271 88 132 l 88 729 l 293 729 l 293 289 q 317 186 293 222 q 397 150 340 150 q 444 157 421 150 q 486 177 468 164 q 515 210 504 190 q 526 256 526 229 l 526 729 l 732 729 l 732 0 l 526 0 l 526 122 m 243 1114 l 442 1114 q 507 1106 481 1114 q 549 1083 533 1097 q 571 1051 564 1069 q 578 1013 578 1033 q 556 926 578 972 q 499 838 533 879 l 460 790 l 356 839 l 413 967 l 243 967 l 243 1114 z "},"ű":{"ha":828,"x_min":88,"x_max":757,"o":"m 526 122 l 519 122 q 494 69 510 94 q 453 25 478 44 q 394 -6 428 6 q 315 -17 360 -17 q 145 58 203 -17 q 88 271 88 132 l 88 729 l 293 729 l 293 289 q 317 186 293 222 q 397 150 340 150 q 444 157 421 150 q 486 177 468 164 q 515 210 504 190 q 526 256 526 229 l 526 729 l 732 729 l 732 0 l 526 0 l 526 122 m 286 804 l 174 858 l 311 1128 l 472 1049 l 286 804 m 571 804 l 458 858 l 596 1128 l 757 1049 l 571 804 z "},"ū":{"ha":828,"x_min":88,"x_max":732,"o":"m 526 122 l 519 122 q 494 69 510 94 q 453 25 478 44 q 394 -6 428 6 q 315 -17 360 -17 q 145 58 203 -17 q 88 271 88 132 l 88 729 l 293 729 l 293 289 q 317 186 293 222 q 397 150 340 150 q 444 157 421 150 q 486 177 468 164 q 515 210 504 190 q 526 256 526 229 l 526 729 l 732 729 l 732 0 l 526 0 l 526 122 m 199 1010 l 624 1010 l 624 867 l 199 867 l 199 1010 z "},"ų":{"ha":828,"x_min":88,"x_max":776,"o":"m 731 0 q 649 -53 679 -32 q 601 -92 618 -75 q 579 -121 585 -108 q 574 -146 574 -133 q 590 -182 574 -172 q 626 -192 606 -192 q 669 -181 651 -192 q 703 -153 688 -169 l 776 -224 q 716 -276 758 -257 q 607 -294 674 -294 q 541 -288 572 -294 q 486 -269 510 -282 q 449 -233 463 -256 q 435 -176 435 -210 q 478 -80 435 -118 q 600 -6 522 -42 l 599 0 l 526 0 l 526 122 l 519 122 q 494 69 510 94 q 453 25 478 44 q 394 -6 428 6 q 315 -17 360 -17 q 145 58 203 -17 q 88 271 88 132 l 88 729 l 293 729 l 293 289 q 317 186 293 222 q 397 150 340 150 q 444 157 421 150 q 486 177 468 164 q 515 210 504 190 q 526 256 526 229 l 526 729 l 731 729 l 731 0 z "},"ů":{"ha":828,"x_min":88,"x_max":732,"o":"m 526 122 l 519 122 q 494 69 510 94 q 453 25 478 44 q 394 -6 428 6 q 315 -17 360 -17 q 145 58 203 -17 q 88 271 88 132 l 88 729 l 293 729 l 293 289 q 317 186 293 222 q 397 150 340 150 q 444 157 421 150 q 486 177 468 164 q 515 210 504 190 q 526 256 526 229 l 526 729 l 732 729 l 732 0 l 526 0 l 526 122 m 411 775 q 331 790 368 775 q 265 831 293 804 q 222 894 238 857 q 206 974 206 931 q 222 1053 206 1017 q 265 1117 238 1090 q 331 1158 293 1143 q 411 1172 368 1172 q 492 1158 454 1172 q 557 1117 529 1143 q 601 1053 585 1090 q 617 974 617 1017 q 601 894 617 931 q 557 831 585 857 q 492 790 529 804 q 411 775 454 775 m 411 879 q 464 898 446 879 q 482 950 482 917 l 482 997 q 464 1049 482 1031 q 411 1068 446 1068 q 358 1049 376 1068 q 340 997 340 1031 l 340 950 q 358 898 340 917 q 411 879 376 879 z "},"ũ":{"ha":828,"x_min":88,"x_max":732,"o":"m 526 122 l 519 122 q 494 69 510 94 q 453 25 478 44 q 394 -6 428 6 q 315 -17 360 -17 q 145 58 203 -17 q 88 271 88 132 l 88 729 l 293 729 l 293 289 q 317 186 293 222 q 397 150 340 150 q 444 157 421 150 q 486 177 468 164 q 515 210 504 190 q 526 256 526 229 l 526 729 l 732 729 l 732 0 l 526 0 l 526 122 m 517 835 q 460 843 485 835 q 410 863 436 851 q 354 884 379 875 q 301 893 329 893 q 260 885 278 893 q 219 858 242 876 l 147 953 q 211 1016 172 990 q 306 1042 250 1042 q 362 1033 338 1042 q 413 1014 386 1025 q 468 992 443 1001 q 521 983 493 983 q 563 992 544 983 q 603 1018 581 1000 l 675 924 q 611 860 650 886 q 517 835 572 835 z "},"ư":{"ha":828,"x_min":88,"x_max":819,"o":"m 819 746 q 801 652 819 686 q 731 610 782 618 l 731 0 l 526 0 l 526 122 l 519 122 q 494 69 510 94 q 453 25 478 44 q 394 -6 428 6 q 315 -17 360 -17 q 145 58 203 -17 q 88 271 88 132 l 88 729 l 293 729 l 293 289 q 317 186 293 222 q 397 150 340 150 q 444 157 421 150 q 486 177 468 164 q 515 210 504 190 q 526 256 526 229 l 526 729 l 647 729 l 647 876 l 819 876 l 819 746 z "},"ứ":{"ha":828,"x_min":88,"x_max":819,"o":"m 819 746 q 801 652 819 686 q 731 610 782 618 l 731 0 l 526 0 l 526 122 l 519 122 q 494 69 510 94 q 453 25 478 44 q 394 -6 428 6 q 315 -17 360 -17 q 145 58 203 -17 q 88 271 88 132 l 88 729 l 293 729 l 293 289 q 317 186 293 222 q 397 150 340 150 q 444 157 421 150 q 486 177 468 164 q 515 210 504 190 q 526 256 526 229 l 526 729 l 647 729 l 647 876 l 819 876 l 819 746 m 432 804 l 310 864 l 447 1133 l 618 1049 l 432 804 z "},"ự":{"ha":828,"x_min":88,"x_max":819,"o":"m 819 746 q 801 652 819 686 q 731 610 782 618 l 731 0 l 526 0 l 526 122 l 519 122 q 494 69 510 94 q 453 25 478 44 q 394 -6 428 6 q 315 -17 360 -17 q 145 58 203 -17 q 88 271 88 132 l 88 729 l 293 729 l 293 289 q 317 186 293 222 q 397 150 340 150 q 444 157 421 150 q 486 177 468 164 q 515 210 504 190 q 526 256 526 229 l 526 729 l 647 729 l 647 876 l 819 876 l 819 746 m 408 -283 q 321 -258 346 -283 q 296 -196 296 -232 l 296 -160 q 321 -98 296 -124 q 408 -72 346 -72 q 496 -98 471 -72 q 521 -160 521 -124 l 521 -196 q 496 -258 521 -232 q 408 -283 471 -283 z "},"ừ":{"ha":828,"x_min":88,"x_max":819,"o":"m 819 746 q 801 652 819 686 q 731 610 782 618 l 731 0 l 526 0 l 526 122 l 519 122 q 494 69 510 94 q 453 25 478 44 q 394 -6 428 6 q 315 -17 360 -17 q 145 58 203 -17 q 88 271 88 132 l 88 729 l 293 729 l 293 289 q 317 186 293 222 q 397 150 340 150 q 444 157 421 150 q 486 177 468 164 q 515 210 504 190 q 526 256 526 229 l 526 729 l 647 729 l 647 876 l 819 876 l 819 746 m 201 1049 l 372 1133 l 510 864 l 388 804 l 201 1049 z "},"ử":{"ha":828,"x_min":88,"x_max":819,"o":"m 819 746 q 801 652 819 686 q 731 610 782 618 l 731 0 l 526 0 l 526 122 l 519 122 q 494 69 510 94 q 453 25 478 44 q 394 -6 428 6 q 315 -17 360 -17 q 145 58 203 -17 q 88 271 88 132 l 88 729 l 293 729 l 293 289 q 317 186 293 222 q 397 150 340 150 q 444 157 421 150 q 486 177 468 164 q 515 210 504 190 q 526 256 526 229 l 526 729 l 647 729 l 647 876 l 819 876 l 819 746 m 242 1114 l 440 1114 q 506 1106 479 1114 q 547 1083 532 1097 q 569 1051 563 1069 q 576 1013 576 1033 q 554 926 576 972 q 497 838 532 879 l 458 790 l 354 839 l 411 967 l 242 967 l 242 1114 z "},"ữ":{"ha":828,"x_min":88,"x_max":819,"o":"m 819 746 q 801 652 819 686 q 731 610 782 618 l 731 0 l 526 0 l 526 122 l 519 122 q 494 69 510 94 q 453 25 478 44 q 394 -6 428 6 q 315 -17 360 -17 q 145 58 203 -17 q 88 271 88 132 l 88 729 l 293 729 l 293 289 q 317 186 293 222 q 397 150 340 150 q 444 157 421 150 q 486 177 468 164 q 515 210 504 190 q 526 256 526 229 l 526 729 l 647 729 l 647 876 l 819 876 l 819 746 m 499 835 q 450 843 471 835 q 406 863 429 851 q 358 884 379 875 q 313 893 336 893 q 244 864 278 893 l 174 950 q 231 1015 197 989 q 315 1042 265 1042 q 364 1033 343 1042 q 408 1014 385 1025 q 456 992 435 1001 q 501 983 478 983 q 569 1013 536 983 l 640 926 q 583 861 617 888 q 499 835 549 835 z "},"ǖ":{"ha":828,"x_min":88,"x_max":732,"o":"m 526 122 l 519 122 q 494 69 510 94 q 453 25 478 44 q 394 -6 428 6 q 315 -17 360 -17 q 145 58 203 -17 q 88 271 88 132 l 88 729 l 293 729 l 293 289 q 317 186 293 222 q 397 150 340 150 q 444 157 421 150 q 486 177 468 164 q 515 210 504 190 q 526 256 526 229 l 526 729 l 732 729 l 732 0 l 526 0 l 526 122 m 197 1235 l 622 1235 l 622 1092 l 197 1092 l 197 1235 m 257 815 q 170 841 194 815 q 146 903 146 867 l 146 938 q 170 999 146 974 q 257 1025 194 1025 q 344 999 319 1025 q 368 938 368 974 l 368 903 q 344 841 368 867 q 257 815 319 815 m 563 815 q 476 841 500 815 q 451 903 451 867 l 451 938 q 476 999 451 974 q 563 1025 500 1025 q 649 999 625 1025 q 674 938 674 974 l 674 903 q 649 841 674 867 q 563 815 625 815 z "},"ǘ":{"ha":828,"x_min":88,"x_max":732,"o":"m 526 122 l 519 122 q 494 69 510 94 q 453 25 478 44 q 394 -6 428 6 q 315 -17 360 -17 q 145 58 203 -17 q 88 271 88 132 l 88 729 l 293 729 l 293 289 q 317 186 293 222 q 397 150 340 150 q 444 157 421 150 q 486 177 468 164 q 515 210 504 190 q 526 256 526 229 l 526 729 l 732 729 l 732 0 l 526 0 l 526 122 m 424 1018 l 314 1072 l 451 1342 l 610 1263 l 424 1018 m 257 815 q 170 841 194 815 q 146 903 146 867 l 146 938 q 170 999 146 974 q 257 1025 194 1025 q 344 999 319 1025 q 368 938 368 974 l 368 903 q 344 841 368 867 q 257 815 319 815 m 563 815 q 476 841 500 815 q 451 903 451 867 l 451 938 q 476 999 451 974 q 563 1025 500 1025 q 649 999 625 1025 q 674 938 674 974 l 674 903 q 649 841 674 867 q 563 815 625 815 z "},"ǜ":{"ha":828,"x_min":88,"x_max":732,"o":"m 526 122 l 519 122 q 494 69 510 94 q 453 25 478 44 q 394 -6 428 6 q 315 -17 360 -17 q 145 58 203 -17 q 88 271 88 132 l 88 729 l 293 729 l 293 289 q 317 186 293 222 q 397 150 340 150 q 444 157 421 150 q 486 177 468 164 q 515 210 504 190 q 526 256 526 229 l 526 729 l 732 729 l 732 0 l 526 0 l 526 122 m 210 1263 l 368 1342 l 506 1072 l 396 1018 l 210 1263 m 257 815 q 170 841 194 815 q 146 903 146 867 l 146 938 q 170 999 146 974 q 257 1025 194 1025 q 344 999 319 1025 q 368 938 368 974 l 368 903 q 344 841 368 867 q 257 815 319 815 m 563 815 q 476 841 500 815 q 451 903 451 867 l 451 938 q 476 999 451 974 q 563 1025 500 1025 q 649 999 625 1025 q 674 938 674 974 l 674 903 q 649 841 674 867 q 563 815 625 815 z "},"ǚ":{"ha":828,"x_min":88,"x_max":732,"o":"m 526 122 l 519 122 q 494 69 510 94 q 453 25 478 44 q 394 -6 428 6 q 315 -17 360 -17 q 145 58 203 -17 q 88 271 88 132 l 88 729 l 293 729 l 293 289 q 317 186 293 222 q 397 150 340 150 q 444 157 421 150 q 486 177 468 164 q 515 210 504 190 q 526 256 526 229 l 526 729 l 732 729 l 732 0 l 526 0 l 526 122 m 344 1051 l 143 1256 l 238 1344 l 410 1200 l 582 1344 l 676 1256 l 475 1051 l 344 1051 m 257 815 q 170 841 194 815 q 146 903 146 867 l 146 938 q 170 999 146 974 q 257 1025 194 1025 q 344 999 319 1025 q 368 938 368 974 l 368 903 q 344 841 368 867 q 257 815 319 815 m 563 815 q 476 841 500 815 q 451 903 451 867 l 451 938 q 476 999 451 974 q 563 1025 500 1025 q 649 999 625 1025 q 674 938 674 974 l 674 903 q 649 841 674 867 q 563 815 625 815 z "},"ẃ":{"ha":1168,"x_min":26,"x_max":1142,"o":"m 26 729 l 225 729 l 296 435 l 346 213 l 351 213 l 410 435 l 493 729 l 681 729 l 765 435 l 825 213 l 831 213 l 881 435 l 951 729 l 1142 729 l 940 0 l 725 0 l 636 308 l 585 497 l 581 497 l 531 308 l 442 0 l 231 0 l 26 729 m 607 804 l 485 864 l 622 1133 l 793 1049 l 607 804 z "},"ŵ":{"ha":1168,"x_min":26,"x_max":1142,"o":"m 26 729 l 225 729 l 296 435 l 346 213 l 351 213 l 410 435 l 493 729 l 681 729 l 765 435 l 825 213 l 831 213 l 881 435 l 951 729 l 1142 729 l 940 0 l 725 0 l 636 308 l 585 497 l 581 497 l 531 308 l 442 0 l 231 0 l 26 729 m 671 1104 l 854 883 l 753 803 l 585 963 l 417 803 l 315 883 l 499 1104 l 671 1104 z "},"ẅ":{"ha":1168,"x_min":26,"x_max":1142,"o":"m 26 729 l 225 729 l 296 435 l 346 213 l 351 213 l 410 435 l 493 729 l 681 729 l 765 435 l 825 213 l 831 213 l 881 435 l 951 729 l 1142 729 l 940 0 l 725 0 l 636 308 l 585 497 l 581 497 l 531 308 l 442 0 l 231 0 l 26 729 m 432 833 q 345 859 369 833 q 321 921 321 885 l 321 956 q 345 1017 321 992 q 432 1043 369 1043 q 519 1017 494 1043 q 543 956 543 992 l 543 921 q 519 859 543 885 q 432 833 494 833 m 738 833 q 651 859 675 833 q 626 921 626 885 l 626 956 q 651 1017 626 992 q 738 1043 675 1043 q 824 1017 800 1043 q 849 956 849 992 l 849 921 q 824 859 849 885 q 738 833 800 833 z "},"ẁ":{"ha":1168,"x_min":26,"x_max":1142,"o":"m 26 729 l 225 729 l 296 435 l 346 213 l 351 213 l 410 435 l 493 729 l 681 729 l 765 435 l 825 213 l 831 213 l 881 435 l 951 729 l 1142 729 l 940 0 l 725 0 l 636 308 l 585 497 l 581 497 l 531 308 l 442 0 l 231 0 l 26 729 m 376 1049 l 547 1133 l 685 864 l 563 804 l 376 1049 z "},"ý":{"ha":742,"x_min":8,"x_max":733,"o":"m 542 729 l 733 729 l 453 -112 q 374 -237 425 -197 q 229 -278 324 -278 l 101 -278 l 101 -118 l 239 -118 l 264 -37 l 8 729 l 213 729 l 319 389 l 372 178 l 381 178 l 435 389 l 542 729 m 400 804 l 278 864 l 415 1133 l 586 1049 l 400 804 z "},"ŷ":{"ha":742,"x_min":8,"x_max":733,"o":"m 542 729 l 733 729 l 453 -112 q 374 -237 425 -197 q 229 -278 324 -278 l 101 -278 l 101 -118 l 239 -118 l 264 -37 l 8 729 l 213 729 l 319 389 l 372 178 l 381 178 l 435 389 l 542 729 m 464 1104 l 647 883 l 546 803 l 378 963 l 210 803 l 108 883 l 292 1104 l 464 1104 z "},"ÿ":{"ha":742,"x_min":8,"x_max":733,"o":"m 542 729 l 733 729 l 453 -112 q 374 -237 425 -197 q 229 -278 324 -278 l 101 -278 l 101 -118 l 239 -118 l 264 -37 l 8 729 l 213 729 l 319 389 l 372 178 l 381 178 l 435 389 l 542 729 m 225 833 q 138 859 163 833 q 114 921 114 885 l 114 956 q 138 1017 114 992 q 225 1043 163 1043 q 312 1017 288 1043 q 336 956 336 992 l 336 921 q 312 859 336 885 q 225 833 288 833 m 531 833 q 444 859 468 833 q 419 921 419 885 l 419 956 q 444 1017 419 992 q 531 1043 468 1043 q 617 1017 593 1043 q 642 956 642 992 l 642 921 q 617 859 642 885 q 531 833 593 833 z "},"ỵ":{"ha":742,"x_min":8,"x_max":733,"o":"m 542 729 l 733 729 l 453 -112 q 374 -237 425 -197 q 229 -278 324 -278 l 101 -278 l 101 -118 l 239 -118 l 264 -37 l 8 729 l 213 729 l 319 389 l 372 178 l 381 178 l 435 389 l 542 729 m 600 -283 q 513 -258 538 -283 q 488 -196 488 -232 l 488 -160 q 513 -98 488 -124 q 600 -72 538 -72 q 688 -98 663 -72 q 713 -160 713 -124 l 713 -196 q 688 -258 713 -232 q 600 -283 663 -283 z "},"ỳ":{"ha":742,"x_min":8,"x_max":733,"o":"m 542 729 l 733 729 l 453 -112 q 374 -237 425 -197 q 229 -278 324 -278 l 101 -278 l 101 -118 l 239 -118 l 264 -37 l 8 729 l 213 729 l 319 389 l 372 178 l 381 178 l 435 389 l 542 729 m 169 1049 l 340 1133 l 478 864 l 356 804 l 169 1049 z "},"ỷ":{"ha":742,"x_min":8,"x_max":733,"o":"m 542 729 l 733 729 l 453 -112 q 374 -237 425 -197 q 229 -278 324 -278 l 101 -278 l 101 -118 l 239 -118 l 264 -37 l 8 729 l 213 729 l 319 389 l 372 178 l 381 178 l 435 389 l 542 729 m 210 1114 l 408 1114 q 474 1106 447 1114 q 515 1083 500 1097 q 538 1051 531 1069 q 544 1013 544 1033 q 522 926 544 972 q 465 838 500 879 l 426 790 l 322 839 l 379 967 l 210 967 l 210 1114 z "},"ỹ":{"ha":742,"x_min":8,"x_max":733,"o":"m 542 729 l 733 729 l 453 -112 q 374 -237 425 -197 q 229 -278 324 -278 l 101 -278 l 101 -118 l 239 -118 l 264 -37 l 8 729 l 213 729 l 319 389 l 372 178 l 381 178 l 435 389 l 542 729 m 483 835 q 427 843 451 835 q 376 863 403 851 q 321 884 346 875 q 268 893 296 893 q 226 885 244 893 q 186 858 208 876 l 114 953 q 178 1016 139 990 q 272 1042 217 1042 q 328 1033 304 1042 q 379 1014 353 1025 q 435 992 410 1001 q 488 983 460 983 q 529 992 511 983 q 569 1018 547 1000 l 642 924 q 578 860 617 886 q 483 835 539 835 z "},"ź":{"ha":719,"x_min":54,"x_max":665,"o":"m 54 0 l 54 163 l 417 569 l 67 569 l 67 729 l 656 729 l 656 568 l 292 160 l 665 160 l 665 0 l 54 0 m 383 804 l 261 864 l 399 1133 l 569 1049 l 383 804 z "},"ž":{"ha":719,"x_min":54,"x_max":665,"o":"m 54 0 l 54 163 l 417 569 l 67 569 l 67 729 l 656 729 l 656 568 l 292 160 l 665 160 l 665 0 l 54 0 m 275 815 l 92 1036 l 193 1117 l 361 957 l 529 1117 l 631 1036 l 447 815 l 275 815 z "},"ż":{"ha":719,"x_min":54,"x_max":665,"o":"m 54 0 l 54 163 l 417 569 l 67 569 l 67 729 l 656 729 l 656 568 l 292 160 l 665 160 l 665 0 l 54 0 m 361 821 q 265 849 292 821 q 238 918 238 878 l 238 958 q 265 1027 238 999 q 361 1056 292 1056 q 458 1027 431 1056 q 485 958 485 999 l 485 918 q 458 849 485 878 q 361 821 431 821 z "},"Á":{"ha":951,"x_min":28,"x_max":924,"o":"m 704 0 l 635 231 l 311 231 l 242 0 l 28 0 l 347 969 l 608 969 l 924 0 l 704 0 m 475 778 l 468 778 l 361 410 l 583 410 l 475 778 m 493 1028 l 371 1088 l 508 1357 l 679 1272 l 493 1028 z "},"Ă":{"ha":951,"x_min":28,"x_max":924,"o":"m 704 0 l 635 231 l 311 231 l 242 0 l 28 0 l 347 969 l 608 969 l 924 0 l 704 0 m 475 778 l 468 778 l 361 410 l 583 410 l 475 778 m 471 1028 q 365 1051 410 1028 q 290 1108 321 1074 q 239 1185 258 1143 q 207 1264 219 1226 l 319 1322 l 346 1278 q 404 1199 376 1226 q 471 1171 432 1171 q 538 1199 510 1171 q 597 1278 567 1226 l 624 1322 l 735 1264 q 701 1185 722 1226 q 649 1108 681 1143 q 574 1051 618 1074 q 471 1028 529 1028 z "},"Ǎ":{"ha":951,"x_min":28,"x_max":924,"o":"m 704 0 l 635 231 l 311 231 l 242 0 l 28 0 l 347 969 l 608 969 l 924 0 l 704 0 m 475 778 l 468 778 l 361 410 l 583 410 l 475 778 m 385 1039 l 201 1260 l 303 1340 l 471 1181 l 639 1340 l 740 1260 l 557 1039 l 385 1039 z "},"Â":{"ha":951,"x_min":28,"x_max":924,"o":"m 704 0 l 635 231 l 311 231 l 242 0 l 28 0 l 347 969 l 608 969 l 924 0 l 704 0 m 475 778 l 468 778 l 361 410 l 583 410 l 475 778 m 557 1328 l 740 1107 l 639 1026 l 471 1186 l 303 1026 l 201 1107 l 385 1328 l 557 1328 z "},"Ä":{"ha":951,"x_min":28,"x_max":924,"o":"m 704 0 l 635 231 l 311 231 l 242 0 l 28 0 l 347 969 l 608 969 l 924 0 l 704 0 m 475 778 l 468 778 l 361 410 l 583 410 l 475 778 m 318 1057 q 231 1083 256 1057 q 207 1144 207 1108 l 207 1179 q 231 1241 207 1215 q 318 1267 256 1267 q 405 1241 381 1267 q 429 1179 429 1215 l 429 1144 q 405 1083 429 1108 q 318 1057 381 1057 m 624 1057 q 537 1083 561 1057 q 513 1144 513 1108 l 513 1179 q 537 1241 513 1215 q 624 1267 561 1267 q 710 1241 686 1267 q 735 1179 735 1215 l 735 1144 q 710 1083 735 1108 q 624 1057 686 1057 z "},"Ạ":{"ha":951,"x_min":28,"x_max":924,"o":"m 704 0 l 635 231 l 311 231 l 242 0 l 28 0 l 347 969 l 608 969 l 924 0 l 704 0 m 475 778 l 468 778 l 361 410 l 583 410 l 475 778 m 471 -283 q 383 -258 408 -283 q 358 -196 358 -232 l 358 -160 q 383 -98 358 -124 q 471 -72 408 -72 q 558 -98 533 -72 q 583 -160 583 -124 l 583 -196 q 558 -258 583 -232 q 471 -283 533 -283 z "},"À":{"ha":951,"x_min":28,"x_max":924,"o":"m 704 0 l 635 231 l 311 231 l 242 0 l 28 0 l 347 969 l 608 969 l 924 0 l 704 0 m 475 778 l 468 778 l 361 410 l 583 410 l 475 778 m 263 1272 l 433 1357 l 571 1088 l 449 1028 l 263 1272 z "},"Ả":{"ha":951,"x_min":28,"x_max":924,"o":"m 704 0 l 635 231 l 311 231 l 242 0 l 28 0 l 347 969 l 608 969 l 924 0 l 704 0 m 475 778 l 468 778 l 361 410 l 583 410 l 475 778 m 304 1338 l 503 1338 q 568 1329 542 1338 q 610 1307 594 1321 q 632 1275 625 1293 q 639 1236 639 1257 q 617 1149 639 1196 q 560 1061 594 1103 l 521 1014 l 417 1063 l 474 1190 l 304 1190 l 304 1338 z "},"Ā":{"ha":951,"x_min":28,"x_max":924,"o":"m 704 0 l 635 231 l 311 231 l 242 0 l 28 0 l 347 969 l 608 969 l 924 0 l 704 0 m 475 778 l 468 778 l 361 410 l 583 410 l 475 778 m 258 1233 l 683 1233 l 683 1090 l 258 1090 l 258 1233 z "},"Ą":{"ha":951,"x_min":28,"x_max":968,"o":"m 347 969 l 608 969 l 924 0 q 841 -53 872 -32 q 793 -92 810 -75 q 771 -121 776 -108 q 765 -146 765 -133 q 781 -182 765 -172 q 818 -192 797 -192 q 861 -181 843 -192 q 894 -153 879 -169 l 968 -224 q 908 -276 950 -257 q 799 -294 865 -294 q 733 -288 764 -294 q 678 -269 701 -282 q 640 -233 654 -256 q 626 -176 626 -210 q 670 -80 626 -118 q 792 -6 714 -42 l 790 0 l 704 0 l 635 231 l 311 231 l 242 0 l 28 0 l 347 969 m 475 778 l 468 778 l 361 410 l 583 410 l 475 778 z "},"Å":{"ha":951,"x_min":28,"x_max":924,"o":"m 704 0 l 635 231 l 311 231 l 242 0 l 28 0 l 347 969 l 608 969 l 924 0 l 704 0 m 475 778 l 468 778 l 361 410 l 583 410 l 475 778 m 471 999 q 390 1013 428 999 q 325 1054 353 1028 q 281 1117 297 1081 q 265 1197 265 1154 q 281 1277 265 1240 q 325 1340 297 1314 q 390 1381 353 1367 q 471 1396 428 1396 q 551 1381 514 1396 q 617 1340 589 1367 q 660 1277 644 1314 q 676 1197 676 1240 q 660 1117 676 1154 q 617 1054 644 1081 q 551 1013 589 1028 q 471 999 514 999 m 471 1103 q 524 1122 506 1103 q 542 1174 542 1142 l 542 1221 q 524 1272 542 1253 q 471 1292 506 1292 q 418 1272 436 1292 q 400 1221 400 1253 l 400 1174 q 418 1122 400 1142 q 471 1103 436 1103 z "},"Ǻ":{"ha":951,"x_min":28,"x_max":924,"o":"m 704 0 l 635 231 l 311 231 l 242 0 l 28 0 l 347 969 l 608 969 l 924 0 l 704 0 m 475 778 l 468 778 l 361 410 l 583 410 l 475 778 m 461 1356 l 388 1435 l 567 1597 l 669 1485 l 461 1356 m 471 1007 q 388 1018 426 1007 q 322 1051 350 1029 q 276 1103 293 1072 q 260 1174 260 1133 q 276 1244 260 1213 q 322 1297 293 1275 q 388 1329 350 1318 q 471 1340 426 1340 q 553 1329 515 1340 q 620 1297 592 1318 q 665 1244 649 1275 q 682 1174 682 1213 q 665 1103 682 1133 q 620 1051 649 1072 q 553 1018 592 1029 q 471 1007 515 1007 m 471 1104 q 528 1119 508 1104 q 547 1167 547 1133 l 547 1181 q 528 1228 547 1214 q 471 1243 508 1243 q 414 1228 433 1243 q 394 1181 394 1214 l 394 1167 q 414 1119 394 1133 q 471 1104 433 1104 z "},"Ã":{"ha":951,"x_min":28,"x_max":924,"o":"m 704 0 l 635 231 l 311 231 l 242 0 l 28 0 l 347 969 l 608 969 l 924 0 l 704 0 m 475 778 l 468 778 l 361 410 l 583 410 l 475 778 m 576 1058 q 520 1067 544 1058 q 469 1086 496 1075 q 414 1108 439 1099 q 361 1117 389 1117 q 319 1108 338 1117 q 279 1082 301 1100 l 207 1176 q 271 1240 232 1214 q 365 1265 310 1265 q 422 1257 397 1265 q 472 1238 446 1249 q 528 1216 503 1225 q 581 1207 553 1207 q 622 1215 604 1207 q 663 1242 640 1224 l 735 1147 q 671 1084 710 1110 q 576 1058 632 1058 z "},"Ắ":{"ha":951,"x_min":28,"x_max":924,"o":"m 704 0 l 635 231 l 311 231 l 242 0 l 28 0 l 347 969 l 608 969 l 924 0 l 704 0 m 475 778 l 468 778 l 361 410 l 583 410 l 475 778 m 471 1018 q 367 1037 413 1018 q 289 1086 322 1056 q 233 1153 256 1117 q 196 1225 210 1189 l 300 1290 l 328 1249 q 401 1176 364 1194 q 471 1158 439 1158 q 542 1177 507 1158 q 614 1249 578 1196 l 642 1290 l 746 1225 q 709 1153 732 1189 q 653 1086 686 1117 q 574 1037 619 1056 q 471 1018 529 1018 m 499 1242 l 389 1296 l 522 1565 l 679 1486 l 499 1242 z "},"Ặ":{"ha":951,"x_min":28,"x_max":924,"o":"m 704 0 l 635 231 l 311 231 l 242 0 l 28 0 l 347 969 l 608 969 l 924 0 l 704 0 m 475 778 l 468 778 l 361 410 l 583 410 l 475 778 m 471 1028 q 365 1051 410 1028 q 290 1108 321 1074 q 239 1185 258 1143 q 207 1264 219 1226 l 319 1322 l 346 1278 q 404 1199 376 1226 q 471 1171 432 1171 q 538 1199 510 1171 q 597 1278 567 1226 l 624 1322 l 735 1264 q 701 1185 722 1226 q 649 1108 681 1143 q 574 1051 618 1074 q 471 1028 529 1028 m 471 -283 q 383 -258 408 -283 q 358 -196 358 -232 l 358 -160 q 383 -98 358 -124 q 471 -72 408 -72 q 558 -98 533 -72 q 583 -160 583 -124 l 583 -196 q 558 -258 583 -232 q 471 -283 533 -283 z "},"Ằ":{"ha":951,"x_min":28,"x_max":924,"o":"m 704 0 l 635 231 l 311 231 l 242 0 l 28 0 l 347 969 l 608 969 l 924 0 l 704 0 m 475 778 l 468 778 l 361 410 l 583 410 l 475 778 m 471 1018 q 367 1037 413 1018 q 289 1086 322 1056 q 233 1153 256 1117 q 196 1225 210 1189 l 300 1290 l 328 1249 q 401 1176 364 1194 q 471 1158 439 1158 q 542 1177 507 1158 q 614 1249 578 1196 l 642 1290 l 746 1225 q 709 1153 732 1189 q 653 1086 686 1117 q 574 1037 619 1056 q 471 1018 529 1018 m 267 1486 l 421 1565 l 554 1299 l 443 1242 l 267 1486 z "},"Ẳ":{"ha":951,"x_min":28,"x_max":924,"o":"m 704 0 l 635 231 l 311 231 l 242 0 l 28 0 l 347 969 l 608 969 l 924 0 l 704 0 m 475 778 l 468 778 l 361 410 l 583 410 l 475 778 m 290 1546 l 479 1546 q 544 1538 518 1546 q 586 1515 571 1529 q 608 1483 601 1501 q 615 1446 615 1465 q 590 1358 615 1404 q 529 1269 564 1313 l 492 1224 l 400 1268 l 460 1406 l 290 1406 l 290 1546 m 471 1018 q 367 1037 413 1018 q 289 1086 322 1056 q 233 1153 256 1117 q 196 1225 210 1189 l 300 1290 l 328 1249 q 401 1176 364 1194 q 471 1158 439 1158 q 542 1177 507 1158 q 614 1249 578 1196 l 642 1290 l 746 1225 q 709 1153 732 1189 q 653 1086 686 1117 q 574 1037 619 1056 q 471 1018 529 1018 z "},"Ẵ":{"ha":951,"x_min":28,"x_max":924,"o":"m 704 0 l 635 231 l 311 231 l 242 0 l 28 0 l 347 969 l 608 969 l 924 0 l 704 0 m 475 778 l 468 778 l 361 410 l 583 410 l 475 778 m 569 1317 q 517 1324 540 1317 q 468 1342 493 1331 q 415 1363 439 1354 q 364 1372 390 1372 q 322 1365 340 1372 q 282 1339 304 1357 l 213 1428 q 276 1490 238 1465 q 371 1515 315 1515 q 425 1507 401 1515 q 474 1488 449 1499 q 526 1468 503 1476 q 576 1460 550 1460 q 618 1468 600 1460 q 658 1494 636 1476 l 728 1406 q 664 1342 703 1368 q 569 1317 625 1317 m 471 1018 q 367 1037 413 1018 q 289 1086 322 1056 q 233 1153 256 1117 q 196 1225 210 1189 l 300 1290 l 328 1249 q 401 1176 364 1194 q 471 1158 439 1158 q 542 1177 507 1158 q 614 1249 578 1196 l 642 1290 l 746 1225 q 709 1153 732 1189 q 653 1086 686 1117 q 574 1037 619 1056 q 471 1018 529 1018 z "},"Ấ":{"ha":951,"x_min":28,"x_max":924,"o":"m 704 0 l 635 231 l 311 231 l 242 0 l 28 0 l 347 969 l 608 969 l 924 0 l 704 0 m 475 778 l 468 778 l 361 410 l 583 410 l 475 778 m 711 1242 l 601 1296 l 739 1565 l 897 1486 l 711 1242 m 536 1308 l 738 1104 l 643 1015 l 471 1160 l 299 1015 l 204 1104 l 406 1308 l 536 1308 z "},"Ậ":{"ha":951,"x_min":28,"x_max":924,"o":"m 704 0 l 635 231 l 311 231 l 242 0 l 28 0 l 347 969 l 608 969 l 924 0 l 704 0 m 475 778 l 468 778 l 361 410 l 583 410 l 475 778 m 557 1328 l 740 1107 l 639 1026 l 471 1186 l 303 1026 l 201 1107 l 385 1328 l 557 1328 m 471 -283 q 383 -258 408 -283 q 358 -196 358 -232 l 358 -160 q 383 -98 358 -124 q 471 -72 408 -72 q 558 -98 533 -72 q 583 -160 583 -124 l 583 -196 q 558 -258 583 -232 q 471 -283 533 -283 z "},"Ầ":{"ha":951,"x_min":28,"x_max":924,"o":"m 704 0 l 635 231 l 311 231 l 242 0 l 28 0 l 347 969 l 608 969 l 924 0 l 704 0 m 475 778 l 468 778 l 361 410 l 583 410 l 475 778 m 44 1486 l 203 1565 l 340 1296 l 231 1242 l 44 1486 m 536 1308 l 738 1104 l 643 1015 l 471 1160 l 299 1015 l 204 1104 l 406 1308 l 536 1308 z "},"Ẩ":{"ha":951,"x_min":28,"x_max":924,"o":"m 704 0 l 635 231 l 311 231 l 242 0 l 28 0 l 347 969 l 608 969 l 924 0 l 704 0 m 475 778 l 468 778 l 361 410 l 583 410 l 475 778 m 524 1546 l 710 1546 q 774 1538 749 1546 q 816 1515 800 1529 q 839 1483 832 1501 q 846 1446 846 1465 q 819 1358 846 1404 q 758 1269 793 1311 l 721 1224 l 629 1271 l 689 1406 l 524 1406 l 524 1546 m 536 1308 l 738 1104 l 643 1015 l 471 1160 l 299 1015 l 204 1104 l 406 1308 l 536 1308 z "},"Ẫ":{"ha":951,"x_min":28,"x_max":924,"o":"m 704 0 l 635 231 l 311 231 l 242 0 l 28 0 l 347 969 l 608 969 l 924 0 l 704 0 m 475 778 l 468 778 l 361 410 l 583 410 l 475 778 m 367 1532 q 423 1524 399 1532 q 474 1504 447 1515 q 529 1483 504 1492 q 582 1474 554 1474 q 624 1482 606 1474 q 664 1508 642 1490 l 733 1419 q 669 1356 708 1382 q 575 1331 631 1331 q 519 1339 543 1331 q 468 1358 494 1347 q 413 1380 438 1371 q 360 1389 388 1389 q 318 1381 336 1389 q 278 1354 300 1372 l 208 1443 q 272 1506 233 1481 q 367 1532 311 1532 m 538 1290 l 735 1104 l 643 1015 l 471 1147 l 299 1015 l 207 1104 l 404 1290 l 538 1290 z "},"Æ":{"ha":1344,"x_min":-1,"x_max":1268,"o":"m 608 231 l 318 231 l 210 0 l -1 0 l 472 969 l 1268 969 l 1268 782 l 818 782 l 818 583 l 1204 583 l 1204 397 l 818 397 l 818 188 l 1268 188 l 1268 0 l 608 0 l 608 231 m 576 782 l 403 410 l 608 410 l 608 782 l 576 782 z "},"Ǽ":{"ha":1344,"x_min":-1,"x_max":1268,"o":"m 608 231 l 318 231 l 210 0 l -1 0 l 472 969 l 1268 969 l 1268 782 l 818 782 l 818 583 l 1204 583 l 1204 397 l 818 397 l 818 188 l 1268 188 l 1268 0 l 608 0 l 608 231 m 576 782 l 403 410 l 608 410 l 608 782 l 576 782 m 918 1028 l 796 1088 l 933 1357 l 1104 1272 l 918 1028 z "},"Ć":{"ha":904,"x_min":69,"x_max":864,"o":"m 499 -17 q 321 15 400 -17 q 186 108 242 46 q 100 262 131 169 q 69 478 69 354 q 100 695 69 600 q 186 855 131 790 q 321 953 242 919 q 499 986 400 986 q 721 931 633 986 q 861 758 808 876 l 679 664 q 619 762 660 725 q 499 799 578 799 q 349 738 406 799 q 293 563 293 678 l 293 407 q 349 231 293 292 q 499 171 406 171 q 623 213 576 171 q 692 315 669 256 l 864 215 q 722 44 810 104 q 499 -17 633 -17 m 515 1028 l 393 1088 l 531 1357 l 701 1272 l 515 1028 z "},"Č":{"ha":904,"x_min":69,"x_max":864,"o":"m 499 -17 q 321 15 400 -17 q 186 108 242 46 q 100 262 131 169 q 69 478 69 354 q 100 695 69 600 q 186 855 131 790 q 321 953 242 919 q 499 986 400 986 q 721 931 633 986 q 861 758 808 876 l 679 664 q 619 762 660 725 q 499 799 578 799 q 349 738 406 799 q 293 563 293 678 l 293 407 q 349 231 293 292 q 499 171 406 171 q 623 213 576 171 q 692 315 669 256 l 864 215 q 722 44 810 104 q 499 -17 633 -17 m 407 1039 l 224 1260 l 325 1340 l 493 1181 l 661 1340 l 763 1260 l 579 1039 l 407 1039 z "},"Ç":{"ha":904,"x_min":69,"x_max":864,"o":"m 499 799 q 349 738 406 799 q 293 563 293 678 l 293 407 q 349 231 293 292 q 499 171 406 171 q 623 213 576 171 q 692 315 669 256 l 864 215 q 722 44 810 104 q 506 -17 635 -17 l 493 -76 l 499 -82 q 532 -75 515 -78 q 565 -72 549 -72 q 637 -94 607 -72 q 667 -168 667 -117 q 651 -228 667 -204 q 610 -267 636 -251 q 551 -288 585 -282 q 483 -294 518 -294 q 370 -274 411 -294 q 311 -233 329 -254 l 375 -156 q 412 -184 389 -172 q 467 -196 435 -196 q 510 -187 493 -196 q 528 -161 528 -179 q 524 -144 528 -153 q 508 -128 519 -136 q 476 -115 496 -121 q 424 -106 456 -108 l 394 -103 l 414 -10 q 162 137 254 14 q 69 478 69 260 q 100 695 69 600 q 186 855 131 790 q 321 953 242 919 q 499 986 400 986 q 721 931 633 986 q 861 758 808 876 l 679 664 q 619 762 660 725 q 499 799 578 799 z "},"Ĉ":{"ha":904,"x_min":69,"x_max":864,"o":"m 499 -17 q 321 15 400 -17 q 186 108 242 46 q 100 262 131 169 q 69 478 69 354 q 100 695 69 600 q 186 855 131 790 q 321 953 242 919 q 499 986 400 986 q 721 931 633 986 q 861 758 808 876 l 679 664 q 619 762 660 725 q 499 799 578 799 q 349 738 406 799 q 293 563 293 678 l 293 407 q 349 231 293 292 q 499 171 406 171 q 623 213 576 171 q 692 315 669 256 l 864 215 q 722 44 810 104 q 499 -17 633 -17 m 579 1328 l 763 1107 l 661 1026 l 493 1186 l 325 1026 l 224 1107 l 407 1328 l 579 1328 z "},"Ċ":{"ha":904,"x_min":69,"x_max":864,"o":"m 499 -17 q 321 15 400 -17 q 186 108 242 46 q 100 262 131 169 q 69 478 69 354 q 100 695 69 600 q 186 855 131 790 q 321 953 242 919 q 499 986 400 986 q 721 931 633 986 q 861 758 808 876 l 679 664 q 619 762 660 725 q 499 799 578 799 q 349 738 406 799 q 293 563 293 678 l 293 407 q 349 231 293 292 q 499 171 406 171 q 623 213 576 171 q 692 315 669 256 l 864 215 q 722 44 810 104 q 499 -17 633 -17 m 493 1044 q 397 1073 424 1044 q 369 1142 369 1101 l 369 1182 q 397 1251 369 1222 q 493 1279 424 1279 q 590 1251 563 1279 q 617 1182 617 1222 l 617 1142 q 590 1073 617 1101 q 493 1044 563 1044 z "},"Ď":{"ha":968,"x_min":107,"x_max":899,"o":"m 107 969 l 472 969 q 647 939 568 969 q 782 848 726 908 q 868 697 838 788 q 899 485 899 606 q 868 273 899 364 q 782 122 838 182 q 647 31 726 61 q 472 0 568 0 l 107 0 l 107 969 m 472 188 q 621 240 567 188 q 675 410 675 293 l 675 560 q 621 729 675 676 q 472 782 567 782 l 318 782 l 318 188 l 472 188 m 363 1039 l 179 1260 l 281 1340 l 449 1181 l 617 1340 l 718 1260 l 535 1039 l 363 1039 z "},"Đ":{"ha":975,"x_min":10,"x_max":906,"o":"m 114 413 l 10 413 l 10 571 l 114 571 l 114 969 l 479 969 q 654 939 575 969 q 789 848 733 908 q 875 697 844 788 q 906 485 906 606 q 875 273 906 364 q 789 122 844 182 q 654 31 733 61 q 479 0 575 0 l 114 0 l 114 413 m 479 188 q 628 240 574 188 q 682 410 682 293 l 682 560 q 628 729 682 676 q 479 782 574 782 l 325 782 l 325 571 l 490 571 l 490 413 l 325 413 l 325 188 l 479 188 z "},"Ð":{"ha":975,"x_min":10,"x_max":906,"o":"m 114 413 l 10 413 l 10 571 l 114 571 l 114 969 l 479 969 q 654 939 575 969 q 789 848 733 908 q 875 697 844 788 q 906 485 906 606 q 875 273 906 364 q 789 122 844 182 q 654 31 733 61 q 479 0 575 0 l 114 0 l 114 413 m 479 188 q 628 240 574 188 q 682 410 682 293 l 682 560 q 628 729 682 676 q 479 782 574 782 l 325 782 l 325 571 l 490 571 l 490 413 l 325 413 l 325 188 l 479 188 z "},"É":{"ha":843,"x_min":107,"x_max":767,"o":"m 107 0 l 107 969 l 767 969 l 767 782 l 318 782 l 318 583 l 703 583 l 703 397 l 318 397 l 318 188 l 767 188 l 767 0 l 107 0 m 460 1028 l 338 1088 l 475 1357 l 646 1272 l 460 1028 z "},"Ĕ":{"ha":843,"x_min":107,"x_max":767,"o":"m 107 0 l 107 969 l 767 969 l 767 782 l 318 782 l 318 583 l 703 583 l 703 397 l 318 397 l 318 188 l 767 188 l 767 0 l 107 0 m 438 1028 q 332 1051 376 1028 q 256 1108 288 1074 q 206 1185 225 1143 q 174 1264 186 1226 l 286 1322 l 313 1278 q 371 1199 343 1226 q 438 1171 399 1171 q 505 1199 476 1171 q 564 1278 533 1226 l 590 1322 l 701 1264 q 668 1185 689 1226 q 616 1108 647 1143 q 540 1051 585 1074 q 438 1028 496 1028 z "},"Ě":{"ha":843,"x_min":107,"x_max":767,"o":"m 107 0 l 107 969 l 767 969 l 767 782 l 318 782 l 318 583 l 703 583 l 703 397 l 318 397 l 318 188 l 767 188 l 767 0 l 107 0 m 351 1039 l 168 1260 l 269 1340 l 438 1181 l 606 1340 l 707 1260 l 524 1039 l 351 1039 z "},"Ê":{"ha":843,"x_min":107,"x_max":767,"o":"m 107 0 l 107 969 l 767 969 l 767 782 l 318 782 l 318 583 l 703 583 l 703 397 l 318 397 l 318 188 l 767 188 l 767 0 l 107 0 m 524 1328 l 707 1107 l 606 1026 l 438 1186 l 269 1026 l 168 1107 l 351 1328 l 524 1328 z "},"Ë":{"ha":843,"x_min":107,"x_max":767,"o":"m 107 0 l 107 969 l 767 969 l 767 782 l 318 782 l 318 583 l 703 583 l 703 397 l 318 397 l 318 188 l 767 188 l 767 0 l 107 0 m 285 1057 q 198 1083 222 1057 q 174 1144 174 1108 l 174 1179 q 198 1241 174 1215 q 285 1267 222 1267 q 372 1241 347 1267 q 396 1179 396 1215 l 396 1144 q 372 1083 396 1108 q 285 1057 347 1057 m 590 1057 q 503 1083 528 1057 q 479 1144 479 1108 l 479 1179 q 503 1241 479 1215 q 590 1267 528 1267 q 677 1241 653 1267 q 701 1179 701 1215 l 701 1144 q 677 1083 701 1108 q 590 1057 653 1057 z "},"Ė":{"ha":843,"x_min":107,"x_max":767,"o":"m 107 0 l 107 969 l 767 969 l 767 782 l 318 782 l 318 583 l 703 583 l 703 397 l 318 397 l 318 188 l 767 188 l 767 0 l 107 0 m 438 1044 q 341 1073 368 1044 q 314 1142 314 1101 l 314 1182 q 341 1251 314 1222 q 438 1279 368 1279 q 534 1251 507 1279 q 561 1182 561 1222 l 561 1142 q 534 1073 561 1101 q 438 1044 507 1044 z "},"Ẹ":{"ha":843,"x_min":107,"x_max":767,"o":"m 107 0 l 107 969 l 767 969 l 767 782 l 318 782 l 318 583 l 703 583 l 703 397 l 318 397 l 318 188 l 767 188 l 767 0 l 107 0 m 438 -283 q 350 -258 375 -283 q 325 -196 325 -232 l 325 -160 q 350 -98 325 -124 q 438 -72 375 -72 q 525 -98 500 -72 q 550 -160 550 -124 l 550 -196 q 525 -258 550 -232 q 438 -283 500 -283 z "},"È":{"ha":843,"x_min":107,"x_max":767,"o":"m 107 0 l 107 969 l 767 969 l 767 782 l 318 782 l 318 583 l 703 583 l 703 397 l 318 397 l 318 188 l 767 188 l 767 0 l 107 0 m 229 1272 l 400 1357 l 538 1088 l 415 1028 l 229 1272 z "},"Ẻ":{"ha":843,"x_min":107,"x_max":767,"o":"m 107 0 l 107 969 l 767 969 l 767 782 l 318 782 l 318 583 l 703 583 l 703 397 l 318 397 l 318 188 l 767 188 l 767 0 l 107 0 m 271 1338 l 469 1338 q 535 1329 508 1338 q 576 1307 561 1321 q 599 1275 592 1293 q 606 1236 606 1257 q 583 1149 606 1196 q 526 1061 561 1103 l 488 1014 l 383 1063 l 440 1190 l 271 1190 l 271 1338 z "},"Ē":{"ha":843,"x_min":107,"x_max":767,"o":"m 107 0 l 107 969 l 767 969 l 767 782 l 318 782 l 318 583 l 703 583 l 703 397 l 318 397 l 318 188 l 767 188 l 767 0 l 107 0 m 225 1233 l 650 1233 l 650 1090 l 225 1090 l 225 1233 z "},"Ę":{"ha":843,"x_min":107,"x_max":813,"o":"m 107 969 l 767 969 l 767 782 l 318 782 l 318 583 l 703 583 l 703 397 l 318 397 l 318 188 l 767 188 l 767 0 q 685 -53 715 -32 q 638 -92 654 -75 q 615 -121 621 -108 q 610 -146 610 -133 q 626 -182 610 -172 q 663 -192 642 -192 q 706 -181 688 -192 q 739 -153 724 -169 l 813 -224 q 752 -276 794 -257 q 643 -294 710 -294 q 577 -288 608 -294 q 522 -269 546 -282 q 485 -233 499 -256 q 471 -176 471 -210 q 515 -80 471 -118 q 636 -6 558 -42 l 635 0 l 107 0 l 107 969 z "},"Ẽ":{"ha":843,"x_min":107,"x_max":767,"o":"m 107 0 l 107 969 l 767 969 l 767 782 l 318 782 l 318 583 l 703 583 l 703 397 l 318 397 l 318 188 l 767 188 l 767 0 l 107 0 m 543 1058 q 487 1067 511 1058 q 436 1086 463 1075 q 381 1108 406 1099 q 328 1117 356 1117 q 286 1108 304 1117 q 246 1082 268 1100 l 174 1176 q 238 1240 199 1214 q 332 1265 276 1265 q 388 1257 364 1265 q 439 1238 413 1249 q 494 1216 469 1225 q 547 1207 519 1207 q 589 1215 571 1207 q 629 1242 607 1224 l 701 1147 q 638 1084 676 1110 q 543 1058 599 1058 z "},"Ế":{"ha":843,"x_min":107,"x_max":864,"o":"m 107 0 l 107 969 l 767 969 l 767 782 l 318 782 l 318 583 l 703 583 l 703 397 l 318 397 l 318 188 l 767 188 l 767 0 l 107 0 m 678 1242 l 568 1296 l 706 1565 l 864 1486 l 678 1242 m 503 1308 l 704 1104 l 610 1015 l 438 1160 l 265 1015 l 171 1104 l 372 1308 l 503 1308 z "},"Ệ":{"ha":843,"x_min":107,"x_max":767,"o":"m 107 0 l 107 969 l 767 969 l 767 782 l 318 782 l 318 583 l 703 583 l 703 397 l 318 397 l 318 188 l 767 188 l 767 0 l 107 0 m 524 1328 l 707 1107 l 606 1026 l 438 1186 l 269 1026 l 168 1107 l 351 1328 l 524 1328 m 438 -283 q 350 -258 375 -283 q 325 -196 325 -232 l 325 -160 q 350 -98 325 -124 q 438 -72 375 -72 q 525 -98 500 -72 q 550 -160 550 -124 l 550 -196 q 525 -258 550 -232 q 438 -283 500 -283 z "},"Ề":{"ha":843,"x_min":11,"x_max":767,"o":"m 107 0 l 107 969 l 767 969 l 767 782 l 318 782 l 318 583 l 703 583 l 703 397 l 318 397 l 318 188 l 767 188 l 767 0 l 107 0 m 11 1486 l 169 1565 l 307 1296 l 197 1242 l 11 1486 m 503 1308 l 704 1104 l 610 1015 l 438 1160 l 265 1015 l 171 1104 l 372 1308 l 503 1308 z "},"Ể":{"ha":843,"x_min":107,"x_max":813,"o":"m 107 0 l 107 969 l 767 969 l 767 782 l 318 782 l 318 583 l 703 583 l 703 397 l 318 397 l 318 188 l 767 188 l 767 0 l 107 0 m 490 1546 l 676 1546 q 741 1538 715 1546 q 783 1515 767 1529 q 806 1483 799 1501 q 813 1446 813 1465 q 786 1358 813 1404 q 725 1269 760 1311 l 688 1224 l 596 1271 l 656 1406 l 490 1406 l 490 1546 m 503 1308 l 704 1104 l 610 1015 l 438 1160 l 265 1015 l 171 1104 l 372 1308 l 503 1308 z "},"Ễ":{"ha":843,"x_min":107,"x_max":767,"o":"m 107 0 l 107 969 l 767 969 l 767 782 l 318 782 l 318 583 l 703 583 l 703 397 l 318 397 l 318 188 l 767 188 l 767 0 l 107 0 m 333 1532 q 390 1524 365 1532 q 440 1504 414 1515 q 496 1483 471 1492 q 549 1474 521 1474 q 590 1482 572 1474 q 631 1508 608 1490 l 700 1419 q 636 1356 675 1382 q 542 1331 597 1331 q 485 1339 510 1331 q 435 1358 461 1347 q 379 1380 404 1371 q 326 1389 354 1389 q 285 1381 303 1389 q 244 1354 267 1372 l 175 1443 q 239 1506 200 1481 q 333 1532 278 1532 m 504 1290 l 701 1104 l 610 1015 l 438 1147 l 265 1015 l 174 1104 l 371 1290 l 504 1290 z "},"Ə":{"ha":992,"x_min":69,"x_max":922,"o":"m 69 554 l 699 554 l 699 558 q 644 736 699 674 q 496 799 590 799 q 415 788 449 799 q 358 758 382 778 q 318 709 333 738 q 293 644 303 681 l 103 713 q 154 819 121 769 q 236 906 188 869 q 349 965 285 943 q 496 986 414 986 q 672 954 593 986 q 806 858 750 922 q 892 701 861 794 q 922 485 922 607 q 892 268 922 361 q 806 111 861 175 q 672 15 750 47 q 496 -17 593 -17 q 320 15 399 -17 q 186 111 242 47 q 100 268 131 175 q 69 485 69 361 l 69 554 m 496 171 q 637 225 583 171 q 697 381 690 279 l 294 381 q 355 225 301 279 q 496 171 408 171 z "},"Ğ":{"ha":999,"x_min":69,"x_max":900,"o":"m 722 154 l 715 154 q 640 32 704 81 q 467 -17 576 -17 q 311 15 383 -17 q 185 110 239 47 q 100 265 131 172 q 69 481 69 358 q 101 697 69 603 q 191 856 133 792 q 329 953 249 919 q 508 986 410 986 q 733 930 639 986 q 882 761 828 874 l 710 663 q 640 759 688 719 q 508 799 593 799 q 351 742 410 799 q 293 563 293 685 l 293 407 q 351 228 293 286 q 508 171 410 171 q 582 180 547 171 q 643 208 617 189 q 684 253 669 226 q 699 315 699 279 l 699 364 l 518 364 l 518 540 l 900 540 l 900 0 l 722 0 l 722 154 m 497 1028 q 392 1051 436 1028 q 316 1108 347 1074 q 265 1185 285 1143 q 233 1264 246 1226 l 346 1322 l 372 1278 q 431 1199 403 1226 q 497 1171 458 1171 q 565 1199 536 1171 q 624 1278 593 1226 l 650 1322 l 761 1264 q 728 1185 749 1226 q 676 1108 707 1143 q 600 1051 644 1074 q 497 1028 556 1028 z "},"Ĝ":{"ha":999,"x_min":69,"x_max":900,"o":"m 722 154 l 715 154 q 640 32 704 81 q 467 -17 576 -17 q 311 15 383 -17 q 185 110 239 47 q 100 265 131 172 q 69 481 69 358 q 101 697 69 603 q 191 856 133 792 q 329 953 249 919 q 508 986 410 986 q 733 930 639 986 q 882 761 828 874 l 710 663 q 640 759 688 719 q 508 799 593 799 q 351 742 410 799 q 293 563 293 685 l 293 407 q 351 228 293 286 q 508 171 410 171 q 582 180 547 171 q 643 208 617 189 q 684 253 669 226 q 699 315 699 279 l 699 364 l 518 364 l 518 540 l 900 540 l 900 0 l 722 0 l 722 154 m 583 1328 l 767 1107 l 665 1026 l 497 1186 l 329 1026 l 228 1107 l 411 1328 l 583 1328 z "},"Ģ":{"ha":999,"x_min":69,"x_max":900,"o":"m 722 154 l 715 154 q 640 32 704 81 q 467 -17 576 -17 q 311 15 383 -17 q 185 110 239 47 q 100 265 131 172 q 69 481 69 358 q 101 697 69 603 q 191 856 133 792 q 329 953 249 919 q 508 986 410 986 q 733 930 639 986 q 882 761 828 874 l 710 663 q 640 759 688 719 q 508 799 593 799 q 351 742 410 799 q 293 563 293 685 l 293 407 q 351 228 293 286 q 508 171 410 171 q 582 180 547 171 q 643 208 617 189 q 684 253 669 226 q 699 315 699 279 l 699 364 l 518 364 l 518 540 l 900 540 l 900 0 l 722 0 l 722 154 m 483 -58 q 555 -81 529 -58 q 581 -144 581 -103 l 581 -164 q 554 -287 581 -228 q 488 -382 528 -347 l 369 -382 q 425 -319 406 -351 q 456 -244 444 -286 q 401 -216 415 -242 q 386 -160 386 -190 l 386 -144 q 412 -81 386 -103 q 483 -58 438 -58 z "},"Ġ":{"ha":999,"x_min":69,"x_max":900,"o":"m 722 154 l 715 154 q 640 32 704 81 q 467 -17 576 -17 q 311 15 383 -17 q 185 110 239 47 q 100 265 131 172 q 69 481 69 358 q 101 697 69 603 q 191 856 133 792 q 329 953 249 919 q 508 986 410 986 q 733 930 639 986 q 882 761 828 874 l 710 663 q 640 759 688 719 q 508 799 593 799 q 351 742 410 799 q 293 563 293 685 l 293 407 q 351 228 293 286 q 508 171 410 171 q 582 180 547 171 q 643 208 617 189 q 684 253 669 226 q 699 315 699 279 l 699 364 l 518 364 l 518 540 l 900 540 l 900 0 l 722 0 l 722 154 m 497 1044 q 401 1073 428 1044 q 374 1142 374 1101 l 374 1182 q 401 1251 374 1222 q 497 1279 428 1279 q 594 1251 567 1279 q 621 1182 621 1222 l 621 1142 q 594 1073 621 1101 q 497 1044 567 1044 z "},"Ħ":{"ha":1019,"x_min":11,"x_max":1008,"o":"m 694 397 l 325 397 l 325 0 l 114 0 l 114 703 l 11 703 l 11 861 l 114 861 l 114 969 l 325 969 l 325 861 l 694 861 l 694 969 l 906 969 l 906 861 l 1008 861 l 1008 703 l 906 703 l 906 0 l 694 0 l 694 397 m 694 583 l 694 703 l 325 703 l 325 583 l 694 583 z "},"Ĥ":{"ha":1006,"x_min":107,"x_max":899,"o":"m 688 397 l 318 397 l 318 0 l 107 0 l 107 969 l 318 969 l 318 583 l 688 583 l 688 969 l 899 969 l 899 0 l 688 0 l 688 397 m 589 1328 l 772 1107 l 671 1026 l 503 1186 l 335 1026 l 233 1107 l 417 1328 l 589 1328 z "},"Í":{"ha":600,"x_min":69,"x_max":531,"o":"m 69 0 l 69 168 l 194 168 l 194 801 l 69 801 l 69 969 l 531 969 l 531 801 l 406 801 l 406 168 l 531 168 l 531 0 l 69 0 m 324 1028 l 201 1088 l 339 1357 l 510 1272 l 324 1028 z "},"Ĭ":{"ha":600,"x_min":38,"x_max":565,"o":"m 69 0 l 69 168 l 194 168 l 194 801 l 69 801 l 69 969 l 531 969 l 531 801 l 406 801 l 406 168 l 531 168 l 531 0 l 69 0 m 301 1028 q 196 1051 240 1028 q 120 1108 151 1074 q 69 1185 89 1143 q 38 1264 50 1226 l 150 1322 l 176 1278 q 235 1199 207 1226 q 301 1171 263 1171 q 369 1199 340 1171 q 428 1278 397 1226 l 454 1322 l 565 1264 q 532 1185 553 1226 q 480 1108 511 1143 q 404 1051 449 1074 q 301 1028 360 1028 z "},"Ǐ":{"ha":600,"x_min":32,"x_max":571,"o":"m 69 0 l 69 168 l 194 168 l 194 801 l 69 801 l 69 969 l 531 969 l 531 801 l 406 801 l 406 168 l 531 168 l 531 0 l 69 0 m 215 1039 l 32 1260 l 133 1340 l 301 1181 l 469 1340 l 571 1260 l 388 1039 l 215 1039 z "},"Î":{"ha":600,"x_min":32,"x_max":571,"o":"m 69 0 l 69 168 l 194 168 l 194 801 l 69 801 l 69 969 l 531 969 l 531 801 l 406 801 l 406 168 l 531 168 l 531 0 l 69 0 m 388 1328 l 571 1107 l 469 1026 l 301 1186 l 133 1026 l 32 1107 l 215 1328 l 388 1328 z "},"Ï":{"ha":600,"x_min":38,"x_max":565,"o":"m 69 0 l 69 168 l 194 168 l 194 801 l 69 801 l 69 969 l 531 969 l 531 801 l 406 801 l 406 168 l 531 168 l 531 0 l 69 0 m 149 1057 q 62 1083 86 1057 q 38 1144 38 1108 l 38 1179 q 62 1241 38 1215 q 149 1267 86 1267 q 235 1241 211 1267 q 260 1179 260 1215 l 260 1144 q 235 1083 260 1108 q 149 1057 211 1057 m 454 1057 q 367 1083 392 1057 q 343 1144 343 1108 l 343 1179 q 367 1241 343 1215 q 454 1267 392 1267 q 541 1241 517 1267 q 565 1179 565 1215 l 565 1144 q 541 1083 565 1108 q 454 1057 517 1057 z "},"İ":{"ha":600,"x_min":69,"x_max":531,"o":"m 69 0 l 69 168 l 194 168 l 194 801 l 69 801 l 69 969 l 531 969 l 531 801 l 406 801 l 406 168 l 531 168 l 531 0 l 69 0 m 301 1044 q 205 1073 232 1044 q 178 1142 178 1101 l 178 1182 q 205 1251 178 1222 q 301 1279 232 1279 q 398 1251 371 1279 q 425 1182 425 1222 l 425 1142 q 398 1073 425 1101 q 301 1044 371 1044 z "},"Ị":{"ha":600,"x_min":69,"x_max":531,"o":"m 69 0 l 69 168 l 194 168 l 194 801 l 69 801 l 69 969 l 531 969 l 531 801 l 406 801 l 406 168 l 531 168 l 531 0 l 69 0 m 300 -283 q 213 -258 238 -283 q 188 -196 188 -232 l 188 -160 q 213 -98 188 -124 q 300 -72 238 -72 q 388 -98 363 -72 q 413 -160 413 -124 l 413 -196 q 388 -258 413 -232 q 300 -283 363 -283 z "},"Ì":{"ha":600,"x_min":69,"x_max":531,"o":"m 69 0 l 69 168 l 194 168 l 194 801 l 69 801 l 69 969 l 531 969 l 531 801 l 406 801 l 406 168 l 531 168 l 531 0 l 69 0 m 93 1272 l 264 1357 l 401 1088 l 279 1028 l 93 1272 z "},"Ỉ":{"ha":600,"x_min":69,"x_max":531,"o":"m 69 0 l 69 168 l 194 168 l 194 801 l 69 801 l 69 969 l 531 969 l 531 801 l 406 801 l 406 168 l 531 168 l 531 0 l 69 0 m 133 1338 l 332 1338 q 397 1329 371 1338 q 439 1307 424 1321 q 461 1275 454 1293 q 468 1236 468 1257 q 446 1149 468 1196 q 389 1061 424 1103 l 350 1014 l 246 1063 l 303 1190 l 133 1190 l 133 1338 z "},"Ī":{"ha":600,"x_min":69,"x_max":531,"o":"m 69 0 l 69 168 l 194 168 l 194 801 l 69 801 l 69 969 l 531 969 l 531 801 l 406 801 l 406 168 l 531 168 l 531 0 l 69 0 m 89 1233 l 514 1233 l 514 1090 l 89 1090 l 89 1233 z "},"Į":{"ha":600,"x_min":69,"x_max":576,"o":"m 69 168 l 194 168 l 194 801 l 69 801 l 69 969 l 532 969 l 532 801 l 406 801 l 406 168 l 532 168 l 532 0 q 449 -53 481 -32 q 401 -92 418 -75 q 379 -121 385 -108 q 374 -146 374 -133 q 390 -182 374 -172 q 426 -192 406 -192 q 469 -181 451 -192 q 503 -153 488 -169 l 576 -224 q 516 -276 558 -257 q 407 -294 474 -294 q 341 -288 372 -294 q 286 -269 310 -282 q 249 -233 263 -256 q 235 -176 235 -210 q 278 -80 235 -118 q 400 -6 322 -42 l 399 0 l 69 0 l 69 168 z "},"Ĩ":{"ha":600,"x_min":38,"x_max":565,"o":"m 69 0 l 69 168 l 194 168 l 194 801 l 69 801 l 69 969 l 531 969 l 531 801 l 406 801 l 406 168 l 531 168 l 531 0 l 69 0 m 407 1058 q 351 1067 375 1058 q 300 1086 326 1075 q 244 1108 269 1099 q 192 1117 219 1117 q 150 1108 168 1117 q 110 1082 132 1100 l 38 1176 q 101 1240 63 1214 q 196 1265 140 1265 q 252 1257 228 1265 q 303 1238 276 1249 q 358 1216 333 1225 q 411 1207 383 1207 q 453 1215 435 1207 q 493 1242 471 1224 l 565 1147 q 501 1084 540 1110 q 407 1058 463 1058 z "},"Ĳ":{"ha":911,"x_min":101,"x_max":810,"o":"m 810 969 l 810 292 q 785 164 810 221 q 713 67 760 107 q 602 6 667 28 q 458 -15 538 -15 q 218 60 304 -15 q 111 257 132 135 l 308 296 q 358 201 319 233 q 457 169 397 169 q 509 177 483 169 q 555 201 535 185 q 587 242 575 217 q 599 304 599 268 l 599 800 l 476 800 l 476 969 l 810 969 m 101 969 l 313 969 l 313 429 l 101 429 l 101 969 z "},"Ĵ":{"ha":776,"x_min":35,"x_max":690,"o":"m 675 969 l 675 281 q 653 159 675 214 q 590 66 632 104 q 490 6 549 28 q 356 -15 431 -15 q 228 4 283 -15 q 134 60 174 24 q 69 146 94 96 q 35 257 44 196 l 232 296 q 353 169 256 169 q 431 199 399 169 q 464 290 464 228 l 464 800 l 169 800 l 169 969 l 675 969 m 507 1328 l 690 1107 l 589 1026 l 421 1186 l 253 1026 l 151 1107 l 335 1328 l 507 1328 z "},"Ķ":{"ha":967,"x_min":107,"x_max":950,"o":"m 444 422 l 318 269 l 318 0 l 107 0 l 107 969 l 318 969 l 318 508 l 326 508 l 464 696 l 682 969 l 921 969 l 594 571 l 950 0 l 701 0 l 444 422 m 506 -58 q 577 -81 551 -58 q 603 -144 603 -103 l 603 -164 q 576 -287 603 -228 q 510 -382 550 -347 l 392 -382 q 447 -319 428 -351 q 478 -244 467 -286 q 423 -216 438 -242 q 408 -160 408 -190 l 408 -144 q 434 -81 408 -103 q 506 -58 460 -58 z "},"Ĺ":{"ha":736,"x_min":107,"x_max":688,"o":"m 107 0 l 107 969 l 318 969 l 318 188 l 688 188 l 688 0 l 107 0 m 236 1028 l 114 1088 l 251 1357 l 422 1272 l 236 1028 z "},"Ľ":{"ha":736,"x_min":107,"x_max":688,"o":"m 107 0 l 107 969 l 318 969 l 318 188 l 688 188 l 688 0 l 107 0 m 553 729 l 418 729 l 426 1028 l 644 1028 l 553 729 z "},"Ļ":{"ha":736,"x_min":107,"x_max":688,"o":"m 107 0 l 107 969 l 318 969 l 318 188 l 688 188 l 688 0 l 107 0 m 396 -58 q 467 -81 442 -58 q 493 -144 493 -103 l 493 -164 q 467 -287 493 -228 q 400 -382 440 -347 l 282 -382 q 338 -319 318 -351 q 368 -244 357 -286 q 313 -216 328 -242 q 299 -160 299 -190 l 299 -144 q 324 -81 299 -103 q 396 -58 350 -58 z "},"Ŀ":{"ha":736,"x_min":107,"x_max":699,"o":"m 107 0 l 107 969 l 318 969 l 318 188 l 688 188 l 688 0 l 107 0 m 575 447 q 478 476 506 447 q 451 544 451 504 l 451 585 q 478 653 451 625 q 575 682 506 682 q 672 653 644 682 q 699 585 699 625 l 699 544 q 672 476 699 504 q 575 447 644 447 z "},"Ł":{"ha":750,"x_min":-10,"x_max":694,"o":"m 694 0 l 114 0 l 114 338 l -10 297 l -10 454 l 114 494 l 114 969 l 325 969 l 325 561 l 544 632 l 544 475 l 325 404 l 325 188 l 694 188 l 694 0 z "},"Ń":{"ha":1006,"x_min":107,"x_max":899,"o":"m 403 458 l 310 653 l 306 653 l 306 0 l 107 0 l 107 969 l 338 969 l 603 511 l 696 317 l 700 317 l 700 969 l 899 969 l 899 0 l 668 0 l 403 458 m 524 1028 l 401 1088 l 539 1357 l 710 1272 l 524 1028 z "},"Ň":{"ha":1006,"x_min":107,"x_max":899,"o":"m 403 458 l 310 653 l 306 653 l 306 0 l 107 0 l 107 969 l 338 969 l 603 511 l 696 317 l 700 317 l 700 969 l 899 969 l 899 0 l 668 0 l 403 458 m 415 1039 l 232 1260 l 333 1340 l 501 1181 l 669 1340 l 771 1260 l 588 1039 l 415 1039 z "},"Ņ":{"ha":1006,"x_min":107,"x_max":899,"o":"m 403 458 l 310 653 l 306 653 l 306 0 l 107 0 l 107 969 l 338 969 l 603 511 l 696 317 l 700 317 l 700 969 l 899 969 l 899 0 l 668 0 l 403 458 m 500 -58 q 572 -81 546 -58 q 597 -144 597 -103 l 597 -164 q 571 -287 597 -228 q 504 -382 544 -347 l 386 -382 q 442 -319 422 -351 q 472 -244 461 -286 q 417 -216 432 -242 q 403 -160 403 -190 l 403 -144 q 428 -81 403 -103 q 500 -58 454 -58 z "},"Ñ":{"ha":1006,"x_min":107,"x_max":899,"o":"m 403 458 l 310 653 l 306 653 l 306 0 l 107 0 l 107 969 l 338 969 l 603 511 l 696 317 l 700 317 l 700 969 l 899 969 l 899 0 l 668 0 l 403 458 m 607 1058 q 551 1067 575 1058 q 500 1086 526 1075 q 444 1108 469 1099 q 392 1117 419 1117 q 350 1108 368 1117 q 310 1082 332 1100 l 238 1176 q 301 1240 263 1214 q 396 1265 340 1265 q 452 1257 428 1265 q 503 1238 476 1249 q 558 1216 533 1225 q 611 1207 583 1207 q 653 1215 635 1207 q 693 1242 671 1224 l 765 1147 q 701 1084 740 1110 q 607 1058 663 1058 z "},"Ŋ":{"ha":1006,"x_min":107,"x_max":899,"o":"m 107 0 l 107 969 l 338 969 l 603 511 l 696 317 l 700 317 l 700 969 l 899 969 l 899 -78 q 849 -226 899 -175 q 693 -278 800 -278 l 583 -278 l 583 -118 l 700 -118 l 700 0 l 668 0 l 403 458 l 310 653 l 306 653 l 306 0 l 107 0 z "},"Ó":{"ha":992,"x_min":69,"x_max":922,"o":"m 496 -17 q 321 15 400 -17 q 186 110 242 47 q 100 267 131 174 q 69 485 69 361 q 100 702 69 608 q 186 859 131 796 q 321 954 242 922 q 496 986 400 986 q 671 954 592 986 q 806 859 750 922 q 892 702 861 796 q 922 485 922 608 q 892 267 922 361 q 806 110 861 174 q 671 15 750 47 q 496 -17 592 -17 m 496 171 q 645 233 592 171 q 699 413 699 296 l 699 557 q 645 736 699 674 q 496 799 592 799 q 347 736 400 799 q 293 557 293 674 l 293 413 q 347 233 293 296 q 496 171 400 171 m 518 1028 l 396 1088 l 533 1357 l 704 1272 l 518 1028 z "},"Ŏ":{"ha":992,"x_min":69,"x_max":922,"o":"m 496 -17 q 321 15 400 -17 q 186 110 242 47 q 100 267 131 174 q 69 485 69 361 q 100 702 69 608 q 186 859 131 796 q 321 954 242 922 q 496 986 400 986 q 671 954 592 986 q 806 859 750 922 q 892 702 861 796 q 922 485 922 608 q 892 267 922 361 q 806 110 861 174 q 671 15 750 47 q 496 -17 592 -17 m 496 171 q 645 233 592 171 q 699 413 699 296 l 699 557 q 645 736 699 674 q 496 799 592 799 q 347 736 400 799 q 293 557 293 674 l 293 413 q 347 233 293 296 q 496 171 400 171 m 496 1028 q 390 1051 435 1028 q 315 1108 346 1074 q 264 1185 283 1143 q 232 1264 244 1226 l 344 1322 l 371 1278 q 429 1199 401 1226 q 496 1171 457 1171 q 563 1199 535 1171 q 622 1278 592 1226 l 649 1322 l 760 1264 q 726 1185 747 1226 q 674 1108 706 1143 q 599 1051 643 1074 q 496 1028 554 1028 z "},"Ǒ":{"ha":992,"x_min":69,"x_max":922,"o":"m 496 -17 q 321 15 400 -17 q 186 110 242 47 q 100 267 131 174 q 69 485 69 361 q 100 702 69 608 q 186 859 131 796 q 321 954 242 922 q 496 986 400 986 q 671 954 592 986 q 806 859 750 922 q 892 702 861 796 q 922 485 922 608 q 892 267 922 361 q 806 110 861 174 q 671 15 750 47 q 496 -17 592 -17 m 496 171 q 645 233 592 171 q 699 413 699 296 l 699 557 q 645 736 699 674 q 496 799 592 799 q 347 736 400 799 q 293 557 293 674 l 293 413 q 347 233 293 296 q 496 171 400 171 m 410 1039 l 226 1260 l 328 1340 l 496 1181 l 664 1340 l 765 1260 l 582 1039 l 410 1039 z "},"Ô":{"ha":992,"x_min":69,"x_max":922,"o":"m 496 -17 q 321 15 400 -17 q 186 110 242 47 q 100 267 131 174 q 69 485 69 361 q 100 702 69 608 q 186 859 131 796 q 321 954 242 922 q 496 986 400 986 q 671 954 592 986 q 806 859 750 922 q 892 702 861 796 q 922 485 922 608 q 892 267 922 361 q 806 110 861 174 q 671 15 750 47 q 496 -17 592 -17 m 496 171 q 645 233 592 171 q 699 413 699 296 l 699 557 q 645 736 699 674 q 496 799 592 799 q 347 736 400 799 q 293 557 293 674 l 293 413 q 347 233 293 296 q 496 171 400 171 m 582 1328 l 765 1107 l 664 1026 l 496 1186 l 328 1026 l 226 1107 l 410 1328 l 582 1328 z "}}}
